# Blender 3.1.0
# www.blender.org
mtllib fingermedium.mtl
o finger
v 0.041440 0.026403 0.000309
v 0.041794 0.002583 0.000294
v -0.041549 0.002534 0.000263
v -0.041549 0.002534 0.000263
v -0.041918 0.016102 0.037976
v -0.041605 0.026309 0.000333
v -0.041605 0.026309 0.000333
v -0.041918 0.016102 0.037976
v -0.041556 0.025220 0.038375
v 0.041794 0.002583 0.000294
v -0.034922 -0.000024 0.072330
v -0.041549 0.002534 0.000263
v 0.041602 0.025253 0.038073
v -0.041556 0.025220 0.038375
v 0.023359 0.014274 0.107607
v -0.041549 0.002534 0.000263
v -0.041605 0.026309 0.000333
v 0.041440 0.026403 0.000309
v 0.034464 0.013989 0.102656
v 0.041979 0.015103 0.036871
v 0.041602 0.025253 0.038073
v 0.041979 0.015103 0.036871
v 0.034771 -0.000133 0.100332
v 0.041794 0.002583 0.000294
v 0.034464 0.013989 0.102656
v 0.034771 -0.000133 0.100332
v 0.041979 0.015103 0.036871
v -0.034492 -0.000057 0.101906
v -0.041549 0.002534 0.000263
v -0.034922 -0.000024 0.072330
v 0.041794 0.002583 0.000294
v 0.034771 -0.000133 0.100332
v -0.034922 -0.000024 0.072330
v 0.034771 -0.000133 0.100332
v -0.021926 -0.000091 0.107449
v -0.034922 -0.000024 0.072330
v 0.041602 0.025253 0.038073
v 0.041979 0.015103 0.036871
v 0.041794 0.002583 0.000294
v 0.041602 0.025253 0.038073
v 0.041794 0.002583 0.000294
v 0.041440 0.026403 0.000309
v 0.041602 0.025253 0.038073
v 0.041440 0.026403 0.000309
v -0.041556 0.025220 0.038375
v -0.041556 0.025220 0.038375
v -0.021112 0.014293 0.107698
v 0.023359 0.014274 0.107607
v -0.031114 0.014218 0.104732
v -0.021112 0.014293 0.107698
v -0.041556 0.025220 0.038375
v -0.034492 -0.000057 0.101906
v -0.021926 -0.000091 0.107449
v -0.031114 0.014218 0.104732
v -0.041549 0.002534 0.000263
v -0.034492 -0.000057 0.101906
v -0.041918 0.016102 0.037976
v 0.041602 0.025253 0.038073
v 0.023359 0.014274 0.107607
v 0.034464 0.013989 0.102656
v 0.041440 0.026403 0.000309
v -0.041605 0.026309 0.000333
v -0.041556 0.025220 0.038375
v -0.041918 0.016102 0.037976
v -0.035365 0.013918 0.101179
v -0.041556 0.025220 0.038375
v -0.035365 0.013918 0.101179
v -0.031114 0.014218 0.104732
v -0.041556 0.025220 0.038375
v 0.023359 0.014274 0.107607
v -0.021926 -0.000091 0.107449
v 0.024552 -0.000021 0.107155
v -0.021112 0.014293 0.107698
v -0.021926 -0.000091 0.107449
v 0.023359 0.014274 0.107607
v 0.034771 -0.000133 0.100332
v 0.024552 -0.000021 0.107155
v -0.021926 -0.000091 0.107449
v 0.024552 -0.000021 0.107155
v 0.034771 -0.000133 0.100332
v 0.034464 0.013989 0.102656
v -0.021926 -0.000091 0.107449
v -0.034492 -0.000057 0.101906
v -0.034922 -0.000024 0.072330
v -0.031114 0.014218 0.104732
v -0.021926 -0.000091 0.107449
v -0.021112 0.014293 0.107698
v -0.034492 -0.000057 0.101906
v -0.035365 0.013918 0.101179
v -0.041918 0.016102 0.037976
v 0.024552 -0.000021 0.107155
v 0.034464 0.013989 0.102656
v 0.023359 0.014274 0.107607
v -0.031114 0.014218 0.104732
v -0.035365 0.013918 0.101179
v -0.034492 -0.000057 0.101906
vn 0.0029 0.0003 -2.0000
vn -4.0000 -0.0006 -0.0089
vn -3.9998 0.0099 0.0024
vn 0.0096 -0.9975 -0.1418
vn 0.0027 0.9536 0.6024
vn -0.0023 0.0015 -2.0000
vn 3.9934 0.0059 0.1144
vn 3.9927 -0.0508 0.0646
vn 3.9935 0.0007 0.1141
vn -3.4851 -0.4907 0.0105
vn 0.1451 -0.9979 -0.1058
vn -0.0149 -1.0000 -0.0063
vn 3.9996 0.0098 -0.0185
vn 4.0000 0.0037 -0.0038
vn -0.0046 0.9981 0.1216
vn 0.0114 0.9538 0.6006
vn -0.8757 0.9209 0.6452
vn -2.6457 -0.0350 1.4984
vn -3.9927 -0.0513 0.0641
vn 1.5109 0.8676 0.6470
vn -0.0179 0.9984 0.1143
vn -3.9944 0.0088 0.1048
vn -2.6637 0.6909 0.5630
vn 0.0510 -0.0155 1.9996
vn 0.0163 -0.0087 1.9999
vn 0.0262 -0.9993 0.0754
vn 3.1956 -0.0450 1.1995
vn -0.0360 -1.0000 -0.0044
vn -2.0406 -0.0002 1.7202
vn -3.9944 -0.0143 0.1016
vn 2.6626 0.0021 1.4925
vn -3.4326 -0.0001 1.0268
s 1
usemtl DefaultMaterial
f 1//1 2//1 3//1
f 4//2 5//2 6//2
f 7//3 8//3 9//3
f 10//4 11//4 12//4
f 13//5 14//5 15//5
f 16//6 17//6 18//6
f 19//7 20//7 21//7
f 22//8 23//8 24//8
f 25//9 26//9 27//9
f 28//10 29//10 30//10
f 31//11 32//11 33//11
f 34//12 35//12 36//12
f 37//13 38//13 39//13
f 40//14 41//14 42//14
f 43//15 44//15 45//15
f 46//16 47//16 48//16
f 49//17 50//17 51//17
f 52//18 53//18 54//18
f 55//19 56//19 57//19
f 58//20 59//20 60//20
f 61//21 62//21 63//21
f 64//22 65//22 66//22
f 67//23 68//23 69//23
f 70//24 71//24 72//24
f 73//25 74//25 75//25
f 76//26 77//26 78//26
f 79//27 80//27 81//27
f 82//28 83//28 84//28
f 85//29 86//29 87//29
f 88//30 89//30 90//30
f 91//31 92//31 93//31
f 94//32 95//32 96//32
