# Blender 3.1.0
# www.blender.org
mtllib fingerlong.mtl
o finger
v 0.031080 0.026403 0.000464
v 0.031346 0.002583 0.000440
v -0.031162 0.002534 0.000395
v -0.031162 0.002534 0.000395
v -0.031438 0.016102 0.056965
v -0.031204 0.026309 0.000500
v -0.031204 0.026309 0.000500
v -0.031438 0.016102 0.056965
v -0.031167 0.025220 0.057563
v 0.031346 0.002583 0.000440
v -0.026191 -0.000024 0.108494
v -0.031162 0.002534 0.000395
v 0.031202 0.025253 0.057110
v -0.031167 0.025220 0.057563
v 0.017519 0.014274 0.161410
v -0.031162 0.002534 0.000395
v -0.031204 0.026309 0.000500
v 0.031080 0.026403 0.000464
v 0.025848 0.013989 0.153984
v 0.031484 0.015103 0.055307
v 0.031202 0.025253 0.057110
v 0.031484 0.015103 0.055307
v 0.026078 -0.000133 0.150499
v 0.031346 0.002583 0.000440
v 0.025848 0.013989 0.153984
v 0.026078 -0.000133 0.150499
v 0.031484 0.015103 0.055307
v -0.025869 -0.000057 0.152858
v -0.031162 0.002534 0.000395
v -0.026191 -0.000024 0.108494
v 0.031346 0.002583 0.000440
v 0.026078 -0.000133 0.150499
v -0.026191 -0.000024 0.108494
v 0.026078 -0.000133 0.150499
v -0.016444 -0.000091 0.161174
v -0.026191 -0.000024 0.108494
v 0.031202 0.025253 0.057110
v 0.031484 0.015103 0.055307
v 0.031346 0.002583 0.000440
v 0.031202 0.025253 0.057110
v 0.031346 0.002583 0.000440
v 0.031080 0.026403 0.000464
v 0.031202 0.025253 0.057110
v 0.031080 0.026403 0.000464
v -0.031167 0.025220 0.057563
v -0.031167 0.025220 0.057563
v -0.015834 0.014293 0.161547
v 0.017519 0.014274 0.161410
v -0.023335 0.014218 0.157098
v -0.015834 0.014293 0.161547
v -0.031167 0.025220 0.057563
v -0.025869 -0.000057 0.152858
v -0.016444 -0.000091 0.161174
v -0.023335 0.014218 0.157098
v -0.031162 0.002534 0.000395
v -0.025869 -0.000057 0.152858
v -0.031438 0.016102 0.056965
v 0.031202 0.025253 0.057110
v 0.017519 0.014274 0.161410
v 0.025848 0.013989 0.153984
v 0.031080 0.026403 0.000464
v -0.031204 0.026309 0.000500
v -0.031167 0.025220 0.057563
v -0.031438 0.016102 0.056965
v -0.026524 0.013918 0.151768
v -0.031167 0.025220 0.057563
v -0.026524 0.013918 0.151768
v -0.023335 0.014218 0.157098
v -0.031167 0.025220 0.057563
v 0.017519 0.014274 0.161410
v -0.016444 -0.000091 0.161174
v 0.018414 -0.000021 0.160733
v -0.015834 0.014293 0.161547
v -0.016444 -0.000091 0.161174
v 0.017519 0.014274 0.161410
v 0.026078 -0.000133 0.150499
v 0.018414 -0.000021 0.160733
v -0.016444 -0.000091 0.161174
v 0.018414 -0.000021 0.160733
v 0.026078 -0.000133 0.150499
v 0.025848 0.013989 0.153984
v -0.016444 -0.000091 0.161174
v -0.025869 -0.000057 0.152858
v -0.026191 -0.000024 0.108494
v -0.023335 0.014218 0.157098
v -0.016444 -0.000091 0.161174
v -0.015834 0.014293 0.161547
v -0.025869 -0.000057 0.152858
v -0.026524 0.013918 0.151768
v -0.031438 0.016102 0.056965
v 0.018414 -0.000021 0.160733
v 0.025848 0.013989 0.153984
v 0.017519 0.014274 0.161410
v -0.023335 0.014218 0.157098
v -0.026524 0.013918 0.151768
v -0.025869 -0.000057 0.152858
vn 0.0022 0.0003 -3.0000
vn -3.0000 -0.0006 -0.0134
vn -2.9999 0.0099 0.0037
vn 0.0072 -0.9975 -0.2127
vn 0.0020 0.9536 0.9036
vn -0.0017 0.0015 -3.0000
vn 2.9950 0.0059 0.1717
vn 2.9946 -0.0508 0.0968
vn 2.9951 0.0007 0.1711
vn -2.6139 -0.4907 0.0157
vn 0.1088 -0.9979 -0.1587
vn -0.0112 -1.0000 -0.0095
vn 2.9997 0.0098 -0.0278
vn 3.0000 0.0037 -0.0058
vn -0.0034 0.9981 0.1824
vn 0.0085 0.9538 0.9009
vn -0.6568 0.9209 0.9678
vn -1.9843 -0.0350 2.2476
vn -2.9945 -0.0513 0.0961
vn 1.1332 0.8676 0.9706
vn -0.0135 0.9984 0.1715
vn -2.9958 0.0088 0.1571
vn -1.9978 0.6909 0.8445
vn 0.0383 -0.0155 2.9994
vn 0.0122 -0.0087 2.9999
vn 0.0196 -0.9993 0.1132
vn 2.3967 -0.0450 1.7993
vn -0.0270 -1.0000 -0.0066
vn -1.5304 -0.0002 2.5803
vn -2.9958 -0.0143 0.1524
vn 1.9970 0.0021 2.2388
vn -2.5745 -0.0001 1.5402
s 1
usemtl DefaultMaterial
f 1//1 2//1 3//1
f 4//2 5//2 6//2
f 7//3 8//3 9//3
f 10//4 11//4 12//4
f 13//5 14//5 15//5
f 16//6 17//6 18//6
f 19//7 20//7 21//7
f 22//8 23//8 24//8
f 25//9 26//9 27//9
f 28//10 29//10 30//10
f 31//11 32//11 33//11
f 34//12 35//12 36//12
f 37//13 38//13 39//13
f 40//14 41//14 42//14
f 43//15 44//15 45//15
f 46//16 47//16 48//16
f 49//17 50//17 51//17
f 52//18 53//18 54//18
f 55//19 56//19 57//19
f 58//20 59//20 60//20
f 61//21 62//21 63//21
f 64//22 65//22 66//22
f 67//23 68//23 69//23
f 70//24 71//24 72//24
f 73//25 74//25 75//25
f 76//26 77//26 78//26
f 79//27 80//27 81//27
f 82//28 83//28 84//28
f 85//29 86//29 87//29
f 88//30 89//30 90//30
f 91//31 92//31 93//31
f 94//32 95//32 96//32
