# File produced by Open Asset Import Library (http://www.assimp.sf.net)
# (assimp v3.2.0)

mtllib LElbowYaw.mtl

# 91 vertex positions
v  -0.013242 -0.0269819 0.0101735
v  -0.000127457 -0.0300468 0.0102006
v  -6.86798e-05 -0.024505 0.0204311
v  -0.0108787 -0.0219787 0.0204089
v  -0.0195221 -0.0150134 0.0202833
v  -0.0237281 -0.0185318 0.0100212
v  -0.024287 -0.00498885 0.0200794
v  -0.0294393 0.00709438 0.0094803
v  -0.0295088 -0.00637013 0.00977379
v  -0.0235332 0.019195 0.00919896
v  -0.0242296 0.00610954 0.0198375
v  -0.0193614 0.0160838 0.0196056
v  -0.0106465 0.0229582 0.0194295
v  0.000185211 0.0304624 0.00888175
v  -0.0129603 0.0275349 0.00898528
v  0.0132998 0.0273976 0.00890881
v  0.000189056 0.0253712 0.0193441
v  0.0237858 0.0189474 0.00906116
v  0.010999 0.022845 0.0193664
v  0.0196425 0.0158798 0.019492
v  0.0244074 0.00585514 0.0196958
v  0.029497 -0.00667882 0.00960195
v  0.0295666 0.00678569 0.00930852
v  0.02435 -0.0052433 0.0199377
v  0.0194817 -0.0152175 0.0201697
v  0.013018 -0.0271193 0.010097
v  0.0235909 -0.0187794 0.00988334
v  0.0107668 -0.0220919 0.0203458
v  -0.0139045 -0.0284879 0.000662537
v  -0.000163803 -0.031699 0.000690857
v  -0.0309479 -0.00689196 0.000243774
v  -0.0246869 0.0198937 -0.000358582
v  0.000163803 0.031699 -0.000690857
v  0.0248912 0.0196343 -0.00050293
v  0.030875 -0.00721538 6.37207e-05
v  0.0136093 -0.0286318 0.000582397
v  -0.000189056 -0.0253712 -0.0193441
v  -0.000185211 -0.0304624 -0.00888175
v  -0.0132998 -0.0273976 -0.00890881
v  -0.010999 -0.022845 -0.0193664
v  -0.0237858 -0.0189475 -0.00906116
v  -0.0196425 -0.0158798 -0.019492
v  -0.0295666 -0.00678575 -0.00930852
v  -0.02435 0.0052433 -0.0199377
v  -0.0244074 -0.00585514 -0.0196959
v  -0.0194818 0.0152175 -0.0201697
v  -0.029497 0.00667876 -0.00960195
v  -0.0235909 0.0187794 -0.00988334
v  -0.013018 0.0271193 -0.010097
v  -0.0107668 0.0220919 -0.0203458
v  0.000127457 0.0300468 -0.0102006
v  0.0108787 0.0219787 -0.0204089
v  6.86798e-05 0.024505 -0.0204312
v  0.0195221 0.0150134 -0.0202833
v  0.013242 0.0269819 -0.0101735
v  0.0237281 0.0185318 -0.0100212
v  0.0295088 0.00637013 -0.00977379
v  0.0242296 -0.00610959 -0.0198375
v  0.024287 0.00498885 -0.0200794
v  0.0294393 -0.00709438 -0.0094803
v  0.0235331 -0.019195 -0.00919896
v  0.0106464 -0.0229582 -0.0194295
v  0.0193614 -0.0160838 -0.0196056
v  0.0129602 -0.027535 -0.00898528
v  -0.000173767 -0.0199183 -0.0238905
v  -0.0119383 -0.0152466 -0.0239567
v  -0.0189807 -0.000430618 -0.024258
v  -0.0117856 0.0143109 -0.0246008
v  2.66113e-05 0.0188593 -0.0247356
v  0.0117912 0.0141875 -0.0246695
v  0.0188335 -0.000628433 -0.0243682
v  0.0116384 -0.0153699 -0.0240253
v  -0.0248912 -0.0196344 0.00050293
v  -0.030875 0.00721538 -6.37207e-05
v  -0.0136093 0.0286318 -0.000582397
v  0.0139045 0.0284879 -0.000662537
v  0.0309479 0.00689196 -0.000243774
v  0.0246869 -0.0198937 0.000358521
v  -2.66113e-05 -0.0188593 0.0247356
v  -0.0117912 -0.0141876 0.0246695
v  -0.0188479 -0.00214618 0.0244286
v  -0.0188192 0.00340301 0.0243077
v  -0.0138172 0.0136513 0.0240693
v  -0.00945967 0.0170885 0.0239813
v  0.000173767 0.0199184 0.0238905
v  0.00977749 0.0169879 0.0239252
v  0.0140992 0.0135053 0.023988
v  0.018995 0.00320518 0.0241975
v  0.0189664 -0.00234401 0.0243184
v  0.0139644 -0.0125923 0.0245568
v  0.00960684 -0.0160295 0.0246448

# 98 UV coordinates
vt 0.0714289 0.571429 0
vt 0 0.571429 0
vt 0 0.714286 0
vt 0.0714289 0.714286 0
vt 0.142857 0.714286 0
vt 0.142857 0.571429 0
vt 0.214286 0.714286 0
vt 0.285714 0.571429 0
vt 0.214286 0.571429 0
vt 0.357143 0.571429 0
vt 0.285714 0.714286 0
vt 0.357143 0.714286 0
vt 0.428571 0.714286 0
vt 0.5 0.571429 0
vt 0.428571 0.571429 0
vt 0.571429 0.571429 0
vt 0.5 0.714286 0
vt 0.642857 0.571429 0
vt 0.571429 0.714286 0
vt 0.642857 0.714286 0
vt 0.714286 0.714286 0
vt 0.785714 0.571429 0
vt 0.714286 0.571429 0
vt 0.785714 0.714286 0
vt 0.857143 0.714286 0
vt 0.928572 0.571429 0
vt 0.857143 0.571429 0
vt 0.928572 0.714286 0
vt 1 0.714286 0
vt 0.0714289 0.5 0
vt 0 0.5 0
vt 0.214286 0.5 0
vt 0.357143 0.5 0
vt 0.5 0.5 0
vt 0.642857 0.5 0
vt 0.785714 0.5 0
vt 0.928572 0.5 0
vt 1 0.571429 0
vt 0 0.285714 0
vt 0 0.428571 0
vt 0.0714289 0.428571 0
vt 0.0714289 0.285714 0
vt 0.142857 0.428571 0
vt 0.142857 0.285714 0
vt 0.214286 0.428571 0
vt 0.285714 0.285714 0
vt 0.214286 0.285714 0
vt 0.357143 0.285714 0
vt 0.285714 0.428571 0
vt 0.357143 0.428571 0
vt 0.428571 0.428571 0
vt 0.428571 0.285714 0
vt 0.5 0.428571 0
vt 0.571429 0.285714 0
vt 0.5 0.285714 0
vt 0.642857 0.285714 0
vt 0.571429 0.428571 0
vt 0.642857 0.428571 0
vt 0.714286 0.428571 0
vt 0.785714 0.285714 0
vt 0.714286 0.285714 0
vt 0.785714 0.428571 0
vt 0.857143 0.428571 0
vt 0.928572 0.285714 0
vt 0.857143 0.285714 0
vt 1 0.285714 0
vt 0.928572 0.428571 0
vt 0 0.214286 0
vt 0.107143 0.214286 0
vt 0.25 0.214286 0
vt 0.392857 0.214286 0
vt 0.5 0.214286 0
vt 0.607143 0.214286 0
vt 0.75 0.214286 0
vt 0.892857 0.214286 0
vt 1 0.214286 0
vt 0.142857 0.5 0
vt 0.285714 0.5 0
vt 0.428571 0.5 0
vt 0.571429 0.5 0
vt 0.714286 0.5 0
vt 0.857143 0.5 0
vt 1 0.5 0
vt 0 0.785714 0
vt 0.107143 0.785714 0
vt 0.232143 0.785714 0
vt 0.267857 0.785714 0
vt 0.375 0.785714 0
vt 0.410714 0.785714 0
vt 0.5 0.785714 0
vt 0.589286 0.785714 0
vt 0.625 0.785714 0
vt 0.732143 0.785714 0
vt 0.767857 0.785714 0
vt 0.875 0.785714 0
vt 0.910714 0.785714 0
vt 1 0.785714 0
vt 1 0.428571 0

# 91 vertex normals
vn -0.41728 -0.850276 0.320749
vn -0.00399792 -0.946837 0.321604
vn -0.00659198 -0.756493 0.65392
vn -0.332957 -0.684408 0.648579
vn -0.606769 -0.454054 0.652394
vn -0.747734 -0.583972 0.315928
vn -0.746025 -0.164891 0.645131
vn -0.927702 0.223548 0.298898
vn -0.929899 -0.20072 0.308145
vn -0.7416 0.604877 0.290017
vn -0.752373 0.197028 0.628559
vn -0.606739 0.495376 0.621632
vn -0.330668 0.720511 0.609485
vn 0.00582898 0.95996 0.280038
vn -0.408399 0.867702 0.283303
vn 0.419111 0.863369 0.280892
vn 0.00589007 0.790094 0.612903
vn 0.749565 0.597095 0.285684
vn 0.341716 0.717002 0.607532
vn 0.615497 0.488998 0.618061
vn 0.758019 0.189123 0.624165
vn 0.929533 -0.210456 0.302744
vn 0.93173 0.213813 0.293496
vn 0.756188 -0.169561 0.631977
vn 0.610553 -0.46794 0.638905
vn 0.41023 -0.85461 0.318339
vn 0.7434 -0.591784 0.311594
vn 0.334422 -0.69335 0.638264
vn -0.43852 -0.898465 0.0208746
vn -0.00515759 -0.999725 0.0217292
vn -0.976043 -0.217353 0.00766009
vn -0.778588 0.6274 -0.0112918
vn 0.00515759 0.999725 -0.0217292
vn 0.785028 0.619221 -0.0158391
vn 0.973754 -0.227546 0.0019837
vn 0.429212 -0.903012 0.0183111
vn -0.00589007 -0.778314 -0.627766
vn -0.00582898 -0.95996 -0.280038
vn -0.419111 -0.863369 -0.280892
vn -0.336772 -0.711966 -0.616138
vn -0.749565 -0.597095 -0.285684
vn -0.607013 -0.471847 -0.639424
vn -0.93173 -0.213843 -0.293496
vn -0.737113 0.173406 -0.653096
vn -0.739036 -0.194067 -0.64507
vn -0.602222 0.449782 -0.659505
vn -0.929533 0.210456 -0.302744
vn -0.7434 0.591784 -0.311594
vn -0.41023 0.85461 -0.318339
vn -0.329539 0.687887 -0.646657
vn 0.00399792 0.946837 -0.321604
vn 0.332957 0.684408 -0.648579
vn 0.0019837 0.750298 -0.661092
vn 0.603046 0.443464 -0.663015
vn 0.41728 0.850276 -0.320749
vn 0.747734 0.583972 -0.315928
vn 0.929899 0.20072 -0.308145
vn 0.733177 -0.201758 -0.649373
vn 0.735099 0.165716 -0.657369
vn 0.927702 -0.223548 -0.298898
vn 0.7416 -0.604877 -0.290017
vn 0.325724 -0.715445 -0.618061
vn 0.598285 -0.478133 -0.642933
vn 0.408399 -0.867702 -0.283303
vn -0.00540173 -0.582476 -0.8128
vn -0.363598 -0.446364 -0.817621
vn -0.538652 -0.0155644 -0.842372
vn -0.359142 0.414075 -0.83636
vn 0.000396741 0.546525 -0.837428
vn 0.358593 0.410291 -0.838466
vn 0.533555 -0.0211798 -0.845485
vn 0.354137 -0.450117 -0.819697
vn -0.785028 -0.619221 0.0158391
vn -0.973754 0.227546 -0.0019837
vn -0.429212 0.903012 -0.0183111
vn 0.43852 0.898465 -0.0208746
vn 0.976043 0.217353 -0.00766009
vn 0.778588 -0.6274 0.0112918
vn -0.0130924 -0.563829 0.82577
vn -0.36256 -0.42674 0.828486
vn -0.572588 -0.101138 0.813563
vn -0.590198 0.134648 0.795923
vn -0.454756 0.412214 0.789453
vn -0.28782 0.560167 0.776727
vn 0.00549328 0.616504 0.787286
vn 0.298196 0.557115 0.775018
vn 0.463607 0.407422 0.786767
vn 0.59621 0.128452 0.792444
vn 0.595019 -0.0999481 0.797418
vn 0.459548 -0.377514 0.803888
vn 0.292581 -0.525864 0.798639

# Mesh 'LElbowYaw_LElbowYaw' with 161 faces
g LElbowYaw_LElbowYaw
usemtl milky_white
f  1/1/1 2/2/2 3/3/3
f  1/1/1 4/4/4 5/5/5
f  6/6/6 5/5/5 7/7/7
f  8/8/8 9/9/9 7/7/7
f  10/10/10 8/8/8 11/11/11
f  10/10/10 12/12/12 13/13/13
f  14/14/14 15/15/15 13/13/13
f  16/16/16 14/14/14 17/17/17
f  18/18/18 16/16/16 19/19/19
f  18/18/18 20/20/20 21/21/21
f  22/22/22 23/23/23 21/21/21
f  22/22/22 24/24/24 25/25/25
f  26/26/26 27/27/27 25/25/25
f  26/26/26 28/28/28 3/29/3
f  29/30/29 30/31/30 2/2/2
f  29/30/29 1/1/1 6/6/6
f  6/6/6 9/9/9 31/32/31
f  31/32/31 9/9/9 8/8/8
f  8/8/8 10/10/10 32/33/32
f  32/33/32 10/10/10 15/15/15
f  15/15/15 14/14/14 33/34/33
f  33/34/33 14/14/14 16/16/16
f  16/16/16 18/18/18 34/35/34
f  34/35/34 18/18/18 23/23/23
f  23/23/23 22/22/22 35/36/35
f  35/36/35 22/22/22 27/27/27
f  27/27/27 26/26/26 36/37/36
f  36/37/36 26/26/26 2/38/2
f  37/39/37 38/40/38 39/41/39
f  40/42/40 39/41/39 41/43/41
f  42/44/42 41/43/41 43/45/43
f  44/46/44 45/47/45 43/45/43
f  46/48/46 44/46/44 47/49/47
f  46/48/46 48/50/48 49/51/49
f  50/52/50 49/51/49 51/53/51
f  52/54/52 53/55/53 51/53/51
f  54/56/54 52/54/52 55/57/55
f  54/56/54 56/58/56 57/59/57
f  58/60/58 59/61/59 57/59/57
f  58/60/58 60/62/60 61/63/61
f  62/64/62 63/65/63 61/63/61
f  37/66/37 62/64/62 64/67/64
f  65/68/65 37/39/37 40/42/40
f  40/42/40 42/44/42 66/69/66
f  42/44/42 45/47/45 67/70/67
f  45/47/45 44/46/44 67/70/67
f  44/46/44 46/48/46 68/71/68
f  46/48/46 50/52/50 68/71/68
f  50/52/50 53/55/53 69/72/69
f  69/72/69 53/55/53 52/54/52
f  52/54/52 54/56/54 70/73/70
f  70/73/70 54/56/54 59/61/59
f  59/61/59 58/60/58 71/74/71
f  71/74/71 58/60/58 63/65/63
f  63/65/63 62/64/62 72/75/72
f  62/64/62 37/66/37 65/76/65
f  30/31/30 29/30/29 39/41/39
f  39/41/39 29/30/29 73/77/73
f  73/77/73 31/32/31 43/45/43
f  43/45/43 31/32/31 74/78/74
f  74/78/74 32/33/32 48/50/48
f  48/50/48 32/33/32 75/79/75
f  75/79/75 33/34/33 51/53/51
f  51/53/51 33/34/33 76/80/76
f  76/80/76 34/35/34 56/58/56
f  56/58/56 34/35/34 77/81/77
f  77/81/77 35/36/35 60/62/60
f  60/62/60 35/36/35 78/82/78
f  78/82/78 36/37/36 64/67/64
f  64/67/64 36/37/36 30/83/30
f  79/84/79 80/85/80 4/4/4
f  80/85/80 5/5/5 4/4/4
f  5/5/5 80/85/80 81/86/81
f  7/7/7 81/86/81 82/87/82
f  82/87/82 83/88/83 12/12/12
f  13/13/13 12/12/12 83/88/83
f  13/13/13 84/89/84 85/90/85
f  85/90/85 86/91/86 19/19/19
f  19/19/19 86/91/86 87/92/87
f  20/20/20 87/92/87 88/93/88
f  24/24/24 21/21/21 88/93/88
f  24/24/24 89/94/89 90/95/90
f  28/28/28 25/25/25 90/95/90
f  28/28/28 91/96/91 79/97/79
f  4/4/4 1/1/1 3/3/3
f  6/6/6 1/1/1 5/5/5
f  9/9/9 6/6/6 7/7/7
f  11/11/11 8/8/8 7/7/7
f  12/12/12 10/10/10 11/11/11
f  15/15/15 10/10/10 13/13/13
f  17/17/17 14/14/14 13/13/13
f  19/19/19 16/16/16 17/17/17
f  20/20/20 18/18/18 19/19/19
f  23/23/23 18/18/18 21/21/21
f  24/24/24 22/22/22 21/21/21
f  27/27/27 22/22/22 25/25/25
f  28/28/28 26/26/26 25/25/25
f  2/38/2 26/26/26 3/29/3
f  1/1/1 29/30/29 2/2/2
f  73/77/73 29/30/29 6/6/6
f  73/77/73 6/6/6 31/32/31
f  74/78/74 31/32/31 8/8/8
f  74/78/74 8/8/8 32/33/32
f  75/79/75 32/33/32 15/15/15
f  75/79/75 15/15/15 33/34/33
f  76/80/76 33/34/33 16/16/16
f  76/80/76 16/16/16 34/35/34
f  77/81/77 34/35/34 23/23/23
f  77/81/77 23/23/23 35/36/35
f  78/82/78 35/36/35 27/27/27
f  78/82/78 27/27/27 36/37/36
f  30/83/30 36/37/36 2/38/2
f  40/42/40 37/39/37 39/41/39
f  42/44/42 40/42/40 41/43/41
f  45/47/45 42/44/42 43/45/43
f  47/49/47 44/46/44 43/45/43
f  48/50/48 46/48/46 47/49/47
f  50/52/50 46/48/46 49/51/49
f  53/55/53 50/52/50 51/53/51
f  55/57/55 52/54/52 51/53/51
f  56/58/56 54/56/54 55/57/55
f  59/61/59 54/56/54 57/59/57
f  60/62/60 58/60/58 57/59/57
f  63/65/63 58/60/58 61/63/61
f  64/67/64 62/64/62 61/63/61
f  38/98/38 37/66/37 64/67/64
f  66/69/66 65/68/65 40/42/40
f  66/69/66 42/44/42 67/70/67
f  67/70/67 44/46/44 68/71/68
f  68/71/68 50/52/50 69/72/69
f  70/73/70 69/72/69 52/54/52
f  71/74/71 70/73/70 59/61/59
f  72/75/72 71/74/71 63/65/63
f  72/75/72 62/64/62 65/76/65
f  38/40/38 30/31/30 39/41/39
f  41/43/41 39/41/39 73/77/73
f  41/43/41 73/77/73 43/45/43
f  47/49/47 43/45/43 74/78/74
f  47/49/47 74/78/74 48/50/48
f  49/51/49 48/50/48 75/79/75
f  49/51/49 75/79/75 51/53/51
f  55/57/55 51/53/51 76/80/76
f  55/57/55 76/80/76 56/58/56
f  57/59/57 56/58/56 77/81/77
f  57/59/57 77/81/77 60/62/60
f  61/63/61 60/62/60 78/82/78
f  61/63/61 78/82/78 64/67/64
f  38/98/38 64/67/64 30/83/30
f  3/3/3 79/84/79 4/4/4
f  7/7/7 5/5/5 81/86/81
f  11/11/11 7/7/7 82/87/82
f  11/11/11 82/87/82 12/12/12
f  84/89/84 13/13/13 83/88/83
f  17/17/17 13/13/13 85/90/85
f  17/17/17 85/90/85 19/19/19
f  20/20/20 19/19/19 87/92/87
f  21/21/21 20/20/20 88/93/88
f  89/94/89 24/24/24 88/93/88
f  25/25/25 24/24/24 90/95/90
f  91/96/91 28/28/28 90/95/90
f  3/29/3 28/28/28 79/97/79

