# File produced by Open Asset Import Library (http://www.assimp.sf.net)
# (assimp v3.2.0)

mtllib LShoulderPitch.mtl

# 98 vertex positions
v  0 0 0.0412238
v  -0.011771 -0.011771 0.0380859
v  0 -0.015802 0.0380859
v  -0.0158019 0 0.0380859
v  -0.011771 0.011771 0.0380859
v  0 0.0158019 0.0380859
v  0.011771 0.011771 0.0380859
v  0.015802 0 0.0380859
v  0.011771 -0.011771 0.0380859
v  -0.0119635 -0.0288826 0.0298251
v  0 -0.0312623 0.0298251
v  -0.0288826 -0.0119635 0.0298251
v  -0.0221058 -0.0221058 0.0298251
v  -0.0312623 0 0.0298251
v  -0.0288826 0.0119635 0.0298251
v  -0.0119635 0.0288826 0.0298251
v  -0.0221058 0.0221058 0.0298251
v  0 0.0312623 0.0298251
v  0.0119636 0.0288826 0.0298251
v  0.0288827 0.0119635 0.0298251
v  0.0221058 0.0221058 0.0298251
v  0.0312623 0 0.0298251
v  0.0288826 -0.0119636 0.0298251
v  0.0119635 -0.0288827 0.0298251
v  0.0221058 -0.0221058 0.0298251
v  -0.0153795 -0.0371295 0.0166467
v  0 -0.0401887 0.0166467
v  -0.0284177 -0.0284177 0.0166467
v  -0.0371295 -0.0153795 0.0166467
v  -0.0401887 0 0.0166467
v  -0.0371296 0.0153795 0.0166467
v  -0.0284177 0.0284177 0.0166467
v  0 0.0401887 0.0166467
v  -0.0153795 0.0371296 0.0166467
v  0.0153795 0.0371296 0.0166467
v  0.0284177 0.0284177 0.0166467
v  0.0401887 0 0.0166467
v  0.0371296 0.0153795 0.0166467
v  0.0371295 -0.0153796 0.0166467
v  0.0284177 -0.0284178 0.0166467
v  0.0153795 -0.0371296 0.0166467
v  -0.0166467 -0.0401887 0
v  0 -0.0435 0
v  -0.0307591 -0.0307591 0
v  -0.0401887 -0.0166467 0
v  -0.0435 0 0
v  -0.0401887 0.0166467 0
v  -0.0166467 0.0401887 0
v  -0.0307592 0.0307591 0
v  0 0.0435 0
v  0.0166467 0.0401887 0
v  0.0307592 0.0307591 0
v  0.0401887 0.0166467 0
v  0.0401887 -0.0166467 0
v  0.0435 0 0
v  0.0307591 -0.0307592 0
v  0.0166467 -0.0401887 0
v  0 -0.0401887 -0.0166467
v  -0.0153795 -0.0371295 -0.0166467
v  -0.0371295 -0.0153795 -0.0166467
v  -0.0284177 -0.0284177 -0.0166467
v  -0.0401887 0 -0.0166467
v  -0.0371296 0.0153795 -0.0166467
v  -0.0284177 0.0284177 -0.0166467
v  0 0.0401887 -0.0166467
v  -0.0153795 0.0371296 -0.0166467
v  0.0153795 0.0371296 -0.0166467
v  0.0284177 0.0284177 -0.0166467
v  0.0371296 0.0153795 -0.0166467
v  0.0401887 0 -0.0166467
v  0.0284177 -0.0284178 -0.0166467
v  0.0371295 -0.0153796 -0.0166467
v  0.0153795 -0.0371296 -0.0166467
v  -0.0111395 -0.0284209 -0.0303678
v  0 -0.0306367 -0.0303678
v  -0.0217211 -0.0217211 -0.0303678
v  -0.0284209 -0.0111395 -0.0303678
v  -0.0284209 0.0111395 -0.0303678
v  -0.0306367 0 -0.0303678
v  -0.0217211 0.0217211 -0.0303678
v  -0.0111395 0.0284209 -0.0303678
v  0.0111395 0.0284209 -0.0303678
v  0 0.0306367 -0.0303678
v  0.0217212 0.0217211 -0.0303678
v  0.0284209 0.0111394 -0.0303678
v  0.0284209 -0.0111395 -0.0303678
v  0.0306367 0 -0.0303678
v  0.0217211 -0.0217212 -0.0303678
v  0.0111394 -0.0284209 -0.0303678
v  0 -0.0158019 -0.0380859
v  -0.011771 -0.011771 -0.0380859
v  -0.015802 0 -0.0380859
v  -0.011771 0.011771 -0.0380859
v  0 0.0158019 -0.0380859
v  0.011771 0.011771 -0.0380859
v  0.015802 0 -0.0380859
v  0.011771 -0.011771 -0.0380859
v  0 0 -0.0412238

# 119 UV coordinates
vt 0.0625 1 0
vt 0.125 0.875 0
vt 0.03125 0.875 0
vt 0.125 1 0
vt 0.25 0.875 0
vt 0.3125 1 0
vt 0.375 0.875 0
vt 0.375 1 0
vt 0.5 0.875 0
vt 0.5625 1 0
vt 0.625 0.875 0
vt 0.625 1 0
vt 0.75 0.875 0
vt 0.8125 1 0
vt 0.875 0.875 0
vt 0.875 1 0
vt 0.96875 0.875 0
vt 0.0625 0.75 0
vt 0 0.75 0
vt 0.1875 0.75 0
vt 0.125 0.75 0
vt 0.25 0.75 0
vt 0.3125 0.75 0
vt 0.4375 0.75 0
vt 0.375 0.75 0
vt 0.5 0.75 0
vt 0.5625 0.75 0
vt 0.6875 0.75 0
vt 0.625 0.75 0
vt 0.75 0.75 0
vt 0.8125 0.75 0
vt 0.9375 0.75 0
vt 0.875 0.75 0
vt 1 0.75 0
vt 0.0625 0.625 0
vt 0 0.625 0
vt 0.125 0.625 0
vt 0.1875 0.625 0
vt 0.25 0.625 0
vt 0.3125 0.625 0
vt 0.375 0.625 0
vt 0.5 0.625 0
vt 0.4375 0.625 0
vt 0.5625 0.625 0
vt 0.625 0.625 0
vt 0.75 0.625 0
vt 0.6875 0.625 0
vt 0.8125 0.625 0
vt 0.875 0.625 0
vt 1 0.625 0
vt 0.9375 0.625 0
vt 0.0625 0.5 0
vt 0 0.5 0
vt 0.125 0.5 0
vt 0.1875 0.5 0
vt 0.25 0.5 0
vt 0.3125 0.5 0
vt 0.4375 0.5 0
vt 0.375 0.5 0
vt 0.5 0.5 0
vt 0.5625 0.5 0
vt 0.625 0.5 0
vt 0.6875 0.5 0
vt 0.8125 0.5 0
vt 0.75 0.5 0
vt 0.875 0.5 0
vt 0.9375 0.5 0
vt 1 0.5 0
vt 0 0.375 0
vt 0.0625 0.375 0
vt 0.1875 0.375 0
vt 0.125 0.375 0
vt 0.25 0.375 0
vt 0.3125 0.375 0
vt 0.375 0.375 0
vt 0.5 0.375 0
vt 0.4375 0.375 0
vt 0.5625 0.375 0
vt 0.625 0.375 0
vt 0.6875 0.375 0
vt 0.75 0.375 0
vt 0.875 0.375 0
vt 0.8125 0.375 0
vt 0.9375 0.375 0
vt 1 0.375 0
vt 0.0625 0.25 0
vt 0 0.25 0
vt 0.125 0.25 0
vt 0.1875 0.25 0
vt 0.3125 0.25 0
vt 0.25 0.25 0
vt 0.375 0.25 0
vt 0.4375 0.25 0
vt 0.5625 0.25 0
vt 0.5 0.25 0
vt 0.625 0.25 0
vt 0.6875 0.25 0
vt 0.8125 0.25 0
vt 0.75 0.25 0
vt 0.875 0.25 0
vt 0.9375 0.25 0
vt 0.03125 0.125 0
vt 0.125 0.125 0
vt 0.25 0.125 0
vt 0.375 0.125 0
vt 0.5 0.125 0
vt 0.625 0.125 0
vt 0.75 0.125 0
vt 0.875 0.125 0
vt 1 0.25 0
vt 0.96875 0.125 0
vt 0.0625 0 0
vt 0.125 0 0
vt 0.3125 0 0
vt 0.375 0 0
vt 0.5625 0 0
vt 0.625 0 0
vt 0.8125 0 0
vt 0.875 0 0

# 98 vertex normals
vn 0 0 1
vn -0.253029 -0.253029 0.933775
vn 0 -0.347758 0.937559
vn -0.347758 0 0.937559
vn -0.253029 0.253029 0.933775
vn 0 0.347758 0.937559
vn 0.253029 0.253029 0.933775
vn 0.347758 0 0.937559
vn 0.253029 -0.253029 0.933775
vn -0.254585 -0.635914 0.728538
vn 0 -0.685018 0.728477
vn -0.635914 -0.254585 0.728538
vn -0.47969 -0.47969 0.734672
vn -0.685018 0 0.728477
vn -0.635914 0.254585 0.728538
vn -0.254585 0.635914 0.728538
vn -0.47969 0.47969 0.734672
vn 0 0.685018 0.728477
vn 0.254585 0.635914 0.728538
vn 0.635914 0.254585 0.728538
vn 0.47969 0.47969 0.734672
vn 0.685018 0 0.728477
vn 0.635914 -0.254585 0.728538
vn 0.254585 -0.635914 0.728538
vn 0.47969 -0.47969 0.734672
vn -0.354411 -0.855648 0.377087
vn 0 -0.926145 0.377087
vn -0.654897 -0.654897 0.377087
vn -0.855648 -0.354411 0.377087
vn -0.926145 0 0.377087
vn -0.855648 0.354411 0.377087
vn -0.654897 0.654897 0.377087
vn 0 0.926145 0.377087
vn -0.354411 0.855648 0.377087
vn 0.354411 0.855648 0.377087
vn 0.654897 0.654897 0.377087
vn 0.926145 0 0.377087
vn 0.855648 0.354411 0.377087
vn 0.855648 -0.354411 0.377087
vn 0.654897 -0.654897 0.377087
vn 0.354411 -0.855648 0.377087
vn -0.382672 -0.923856 0
vn 0 -1 0
vn -0.707083 -0.707083 0
vn -0.923856 -0.382672 0
vn -1 0 0
vn -0.923856 0.382672 0
vn -0.382672 0.923856 0
vn -0.707083 0.707083 0
vn 0 1 0
vn 0.382672 0.923856 0
vn 0.707083 0.707083 0
vn 0.923856 0.382672 0
vn 0.923856 -0.382672 0
vn 1 0 0
vn 0.707083 -0.707083 0
vn 0.382672 -0.923856 0
vn 0 -0.923887 -0.382611
vn -0.353038 -0.853511 -0.38319
vn -0.853511 -0.353038 -0.38319
vn -0.65273 -0.65273 -0.384503
vn -0.923887 0 -0.382611
vn -0.853511 0.353038 -0.38319
vn -0.65273 0.65273 -0.384503
vn 0 0.923887 -0.382611
vn -0.353038 0.853511 -0.38319
vn 0.353038 0.853511 -0.38319
vn 0.65273 0.65273 -0.384503
vn 0.853511 0.353038 -0.38319
vn 0.923887 0 -0.382611
vn 0.65273 -0.65273 -0.384503
vn 0.853511 -0.353038 -0.38319
vn 0.353038 -0.853511 -0.38319
vn -0.245186 -0.629353 -0.737388
vn 0 -0.676443 -0.736473
vn -0.473922 -0.473922 -0.742119
vn -0.629353 -0.245186 -0.737388
vn -0.629353 0.245186 -0.737388
vn -0.676443 0 -0.736473
vn -0.473922 0.473922 -0.742119
vn -0.245186 0.629353 -0.737388
vn 0.245186 0.629353 -0.737388
vn 0 0.676443 -0.736473
vn 0.473922 0.473922 -0.742119
vn 0.629353 0.245186 -0.737388
vn 0.629353 -0.245186 -0.737388
vn 0.676443 0 -0.736473
vn 0.473922 -0.473922 -0.742119
vn 0.245186 -0.629353 -0.737388
vn 0 -0.343181 -0.939238
vn -0.248756 -0.248756 -0.936064
vn -0.343181 0 -0.939238
vn -0.248756 0.248756 -0.936064
vn 0 0.343181 -0.939238
vn 0.248756 0.248756 -0.936064
vn 0.343181 0 -0.939238
vn 0.248756 -0.248756 -0.936064
vn 0 0 -1

# Mesh 'LShoulderPitch_LShoulderPitch' with 192 faces
g LShoulderPitch_LShoulderPitch
usemtl milky_white
f  1/1/1 2/2/2 3/3/3
f  1/4/1 4/5/4 2/2/2
f  1/6/1 5/7/5 4/5/4
f  1/8/1 6/9/6 5/7/5
f  1/10/1 7/11/7 6/9/6
f  1/12/1 8/13/8 7/11/7
f  1/14/1 9/15/9 8/13/8
f  1/16/1 3/17/3 9/15/9
f  3/3/3 10/18/10 11/19/11
f  10/18/10 3/3/3 2/2/2
f  12/20/12 13/21/13 2/2/2
f  4/5/4 14/22/14 12/20/12
f  4/5/4 15/23/15 14/22/14
f  15/23/15 4/5/4 5/7/5
f  16/24/16 17/25/17 5/7/5
f  6/9/6 18/26/18 16/24/16
f  6/9/6 19/27/19 18/26/18
f  19/27/19 6/9/6 7/11/7
f  20/28/20 21/29/21 7/11/7
f  8/13/8 22/30/22 20/28/20
f  8/13/8 23/31/23 22/30/22
f  23/31/23 8/13/8 9/15/9
f  24/32/24 25/33/25 9/15/9
f  3/17/3 11/34/11 24/32/24
f  26/35/26 27/36/27 11/19/11
f  28/37/28 26/35/26 10/18/10
f  29/38/29 28/37/28 13/21/13
f  30/39/30 29/38/29 12/20/12
f  31/40/31 30/39/30 14/22/14
f  31/40/31 15/23/15 17/25/17
f  32/41/32 17/25/17 16/24/16
f  33/42/33 34/43/34 16/24/16
f  35/44/35 33/42/33 18/26/18
f  36/45/36 35/44/35 19/27/19
f  36/45/36 21/29/21 20/28/20
f  37/46/37 38/47/38 20/28/20
f  39/48/39 37/46/37 22/30/22
f  39/48/39 23/31/23 25/33/25
f  40/49/40 25/33/25 24/32/24
f  27/50/27 41/51/41 24/32/24
f  42/52/42 43/53/43 27/36/27
f  44/54/44 42/52/42 26/35/26
f  44/54/44 28/37/28 29/38/29
f  45/55/45 29/38/29 30/39/30
f  46/56/46 30/39/30 31/40/31
f  47/57/47 31/40/31 32/41/32
f  48/58/48 49/59/49 32/41/32
f  48/58/48 34/43/34 33/42/33
f  50/60/50 33/42/33 35/44/35
f  51/61/51 35/44/35 36/45/36
f  52/62/52 36/45/36 38/47/38
f  53/63/53 38/47/38 37/46/37
f  54/64/54 55/65/55 37/46/37
f  56/66/56 54/64/54 39/48/39
f  57/67/57 56/66/56 40/49/40
f  43/68/43 57/67/57 41/51/41
f  58/69/58 43/53/43 42/52/42
f  59/70/59 42/52/42 44/54/44
f  60/71/60 61/72/61 44/54/44
f  62/73/62 60/71/60 45/55/45
f  63/74/63 62/73/62 46/56/46
f  64/75/64 63/74/63 47/57/47
f  64/75/64 49/59/49 48/58/48
f  65/76/65 66/77/66 48/58/48
f  67/78/67 65/76/65 50/60/50
f  68/79/68 67/78/67 51/61/51
f  69/80/69 68/79/68 52/62/52
f  70/81/70 69/80/69 53/63/53
f  70/81/70 55/65/55 54/64/54
f  71/82/71 72/83/72 54/64/54
f  73/84/73 71/82/71 56/66/56
f  58/85/58 73/84/73 57/67/57
f  74/86/74 75/87/75 58/69/58
f  76/88/76 74/86/74 59/70/59
f  76/88/76 61/72/61 60/71/60
f  77/89/77 60/71/60 62/73/62
f  78/90/78 79/91/79 62/73/62
f  80/92/80 78/90/78 63/74/63
f  80/92/80 64/75/64 66/77/66
f  81/93/81 66/77/66 65/76/65
f  82/94/82 83/95/83 65/76/65
f  84/96/84 82/94/82 67/78/67
f  84/96/84 68/79/68 69/80/69
f  85/97/85 69/80/69 70/81/70
f  86/98/86 87/99/87 70/81/70
f  88/100/88 86/98/86 72/83/72
f  88/100/88 71/82/71 73/84/73
f  89/101/89 73/84/73 58/85/58
f  75/87/75 74/86/74 90/102/90
f  91/103/91 90/102/90 74/86/74
f  91/103/91 76/88/76 77/89/77
f  77/89/77 79/91/79 92/104/92
f  79/91/79 78/90/78 92/104/92
f  93/105/93 92/104/92 78/90/78
f  93/105/93 80/92/80 81/93/81
f  81/93/81 83/95/83 94/106/94
f  83/95/83 82/94/82 94/106/94
f  95/107/95 94/106/94 82/94/82
f  95/107/95 84/96/84 85/97/85
f  85/97/85 87/99/87 96/108/96
f  87/99/87 86/98/86 96/108/96
f  97/109/97 96/108/96 86/98/86
f  97/109/97 88/100/88 89/101/89
f  89/101/89 75/110/75 90/111/90
f  98/112/98 90/102/90 91/103/91
f  98/113/98 91/103/91 92/104/92
f  98/114/98 92/104/92 93/105/93
f  98/115/98 93/105/93 94/106/94
f  98/116/98 94/106/94 95/107/95
f  98/117/98 95/107/95 96/108/96
f  98/118/98 96/108/96 97/109/97
f  98/119/98 97/109/97 90/111/90
f  13/21/13 10/18/10 2/2/2
f  4/5/4 12/20/12 2/2/2
f  17/25/17 15/23/15 5/7/5
f  6/9/6 16/24/16 5/7/5
f  21/29/21 19/27/19 7/11/7
f  8/13/8 20/28/20 7/11/7
f  25/33/25 23/31/23 9/15/9
f  3/17/3 24/32/24 9/15/9
f  10/18/10 26/35/26 11/19/11
f  13/21/13 28/37/28 10/18/10
f  12/20/12 29/38/29 13/21/13
f  14/22/14 30/39/30 12/20/12
f  15/23/15 31/40/31 14/22/14
f  32/41/32 31/40/31 17/25/17
f  34/43/34 32/41/32 16/24/16
f  18/26/18 33/42/33 16/24/16
f  19/27/19 35/44/35 18/26/18
f  21/29/21 36/45/36 19/27/19
f  38/47/38 36/45/36 20/28/20
f  22/30/22 37/46/37 20/28/20
f  23/31/23 39/48/39 22/30/22
f  40/49/40 39/48/39 25/33/25
f  41/51/41 40/49/40 24/32/24
f  11/34/11 27/50/27 24/32/24
f  26/35/26 42/52/42 27/36/27
f  28/37/28 44/54/44 26/35/26
f  45/55/45 44/54/44 29/38/29
f  46/56/46 45/55/45 30/39/30
f  47/57/47 46/56/46 31/40/31
f  49/59/49 47/57/47 32/41/32
f  34/43/34 48/58/48 32/41/32
f  50/60/50 48/58/48 33/42/33
f  51/61/51 50/60/50 35/44/35
f  52/62/52 51/61/51 36/45/36
f  53/63/53 52/62/52 38/47/38
f  55/65/55 53/63/53 37/46/37
f  39/48/39 54/64/54 37/46/37
f  40/49/40 56/66/56 39/48/39
f  41/51/41 57/67/57 40/49/40
f  27/50/27 43/68/43 41/51/41
f  59/70/59 58/69/58 42/52/42
f  61/72/61 59/70/59 44/54/44
f  45/55/45 60/71/60 44/54/44
f  46/56/46 62/73/62 45/55/45
f  47/57/47 63/74/63 46/56/46
f  49/59/49 64/75/64 47/57/47
f  66/77/66 64/75/64 48/58/48
f  50/60/50 65/76/65 48/58/48
f  51/61/51 67/78/67 50/60/50
f  52/62/52 68/79/68 51/61/51
f  53/63/53 69/80/69 52/62/52
f  55/65/55 70/81/70 53/63/53
f  72/83/72 70/81/70 54/64/54
f  56/66/56 71/82/71 54/64/54
f  57/67/57 73/84/73 56/66/56
f  43/68/43 58/85/58 57/67/57
f  59/70/59 74/86/74 58/69/58
f  61/72/61 76/88/76 59/70/59
f  77/89/77 76/88/76 60/71/60
f  79/91/79 77/89/77 62/73/62
f  63/74/63 78/90/78 62/73/62
f  64/75/64 80/92/80 63/74/63
f  81/93/81 80/92/80 66/77/66
f  83/95/83 81/93/81 65/76/65
f  67/78/67 82/94/82 65/76/65
f  68/79/68 84/96/84 67/78/67
f  85/97/85 84/96/84 69/80/69
f  87/99/87 85/97/85 70/81/70
f  72/83/72 86/98/86 70/81/70
f  71/82/71 88/100/88 72/83/72
f  89/101/89 88/100/88 73/84/73
f  75/110/75 89/101/89 58/85/58
f  76/88/76 91/103/91 74/86/74
f  92/104/92 91/103/91 77/89/77
f  80/92/80 93/105/93 78/90/78
f  94/106/94 93/105/93 81/93/81
f  84/96/84 95/107/95 82/94/82
f  96/108/96 95/107/95 85/97/85
f  88/100/88 97/109/97 86/98/86
f  90/111/90 97/109/97 89/101/89

