# Exported using automatic converter by Erwin Coumans
mtllib Phalax.mtl
#object LFinger11_Phalax

v 0.012931 0.000365 -0.005284
v 0.013412 -0.004896 -0.004516
v 0.004865 -0.004811 -0.003219
v 0.016063 -0.002995 -0.003742
v 0.015253 0.000377 -0.004231
v 0.017177 0.000416 -0.000445
v -0.001258 0.000205 -0.000373
v -0.000391 -0.000423 0.007134
v 0.000255 0.003453 0.006813
v 0.017938 0.000365 0.002140
v 0.017535 0.004876 -0.000717
v 0.017033 0.003884 0.008203
v 0.017307 0.000012 0.009102
v 0.018199 0.000309 0.002969
v 0.002950 0.006850 0.001210
v 0.003313 0.003385 0.006791
v 0.002829 -0.000106 0.007143
v 0.002869 -0.007055 0.000353
v 0.004729 -0.007013 0.001483
v 0.003427 -0.003558 0.006620
v 0.006052 -0.005764 -0.001142
v 0.010948 -0.005730 -0.002442
v 0.017098 -0.006370 -0.001860
v 0.015474 -0.005445 -0.002078
v 0.018268 -0.007280 0.002131
v 0.017224 -0.006936 0.002066
v 0.017158 -0.003825 0.008013
v 0.015166 -0.003733 0.007908
v 0.015246 0.000053 0.008990
v 0.018016 0.008138 0.002511
v 0.016989 0.007432 0.002420
v 0.016874 0.007329 -0.001522
v 0.015286 0.006090 -0.001794
v 0.013241 0.005595 -0.004258
v 0.004707 0.004894 -0.002979
v 0.005859 0.006055 -0.000851
v 0.010752 0.006245 -0.002147
v 0.004498 0.007130 0.001832
v 0.011054 -0.006504 -0.002731
v 0.006015 -0.006507 -0.001515
v 0.015798 -0.005917 -0.002682
v 0.015953 0.003746 -0.003576
v 0.017939 0.005664 0.001929
v 0.017681 -0.004125 -0.000939
v 0.018115 -0.005161 0.001663
v 0.000381 -0.004256 0.006623
v 0.015042 0.003875 0.008096
v 0.004580 0.000047 -0.004172
v 0.000154 -0.005250 -0.000062
v 0.002322 -0.004740 0.000890
v 0.001519 -0.004793 0.002498
v -0.001940 -0.004770 0.000919
v -0.001912 -0.004720 -0.001076
v -0.000334 -0.004664 -0.002297
v 0.003125 -0.004687 -0.000718
v -0.001778 -0.003329 0.003790
v -0.003240 -0.003323 0.002589
v -0.004022 -0.003270 -0.000072
v -0.003164 -0.003191 -0.002709
v -0.000744 -0.003118 -0.004063
v 0.002019 -0.003079 -0.003813
v 0.004008 -0.003120 -0.002497
v 0.000587 -0.003344 0.004352
v -0.002282 -0.001181 0.004782
v -0.005098 -0.001137 0.001146
v -0.005064 -0.001078 -0.001212
v -0.002146 -0.000943 -0.004765
v 0.000161 -0.000893 -0.005256
v 0.002452 -0.000870 -0.004698
v 0.004375 0.000296 -0.003260
v -0.004144 0.001245 0.003345
v -0.004105 -0.001173 0.003285
v -0.005137 0.001282 0.001205
v -0.004011 -0.001009 -0.003322
v -0.005104 0.001340 -0.001153
v -0.002186 0.001476 -0.004705
v 0.000121 0.001525 -0.005197
v 0.002413 0.001549 -0.004638
v 0.000109 0.000016 0.005281
v -0.002321 0.001238 0.004842
v -0.003350 0.003454 0.002756
v -0.004133 0.003506 0.000095
v -0.003275 0.003585 -0.002542
v -0.004050 0.001410 -0.003262
v -0.000854 0.003658 -0.003896
v 0.001909 0.003697 -0.003646
v 0.003897 0.003657 -0.002330
v 0.000476 0.003432 0.004519
v -0.001888 0.003448 0.003957
v -0.002100 0.005023 0.001160
v -0.002072 0.005072 -0.000835
v -0.000494 0.005128 -0.002056
v 0.002965 0.005105 -0.000476
v 0.001359 0.005000 0.002739
v -0.000023 0.005619 0.000206
v 0.002162 0.005053 0.001132
v 0.004473 0.007928 0.002066
v 0.003338 0.003679 0.007569
v 0.010061 0.004085 0.007194
v 0.002852 -0.000127 0.007994
v 0.010090 0.000003 0.007519
v 0.004730 -0.007822 0.001678
v 0.010629 -0.006795 0.001117
v 0.010194 -0.004057 0.006993
v 0.005797 0.006814 -0.001186
v 0.010402 0.007122 0.001460
v 0.014398 0.004305 0.008376
v 0.014602 0.000103 0.009339
v 0.017200 -0.007700 0.001970
v 0.014535 -0.004060 0.008170
v 0.016940 0.008198 0.002361
v 0.015594 0.006602 -0.002373
v 0.010833 0.007035 -0.002397
v 0.003462 -0.003889 0.007383
usemtl shiny_white

vn 0.101779 0.027222 -0.994415
vn 0.135441 -0.598254 -0.789758
vn -0.285318 -0.559771 -0.777947
vn 0.680288 -0.043001 -0.731651
vn 0.627583 0.029878 -0.777947
vn 0.943541 0.021424 -0.330516
vn -0.912290 0.034516 -0.408063
vn -0.704489 -0.028626 0.709098
vn -0.564074 0.548753 0.616962
vn 0.974425 0.020600 -0.223701
vn 0.909909 0.057161 -0.410749
vn 0.482711 0.480453 0.732200
vn 0.586657 -0.014435 0.809687
vn 0.999634 0.017335 -0.020203
vn -0.462844 0.874477 -0.144902
vn -0.807978 0.414808 0.418439
vn -0.693625 -0.023987 0.719932
vn -0.382855 -0.890622 -0.245308
vn -0.748314 -0.640522 -0.172368
vn -0.774957 -0.461409 0.431806
vn -0.316874 -0.599780 -0.734703
vn -0.163915 -0.364238 -0.916745
vn 0.409741 -0.754082 -0.513260
vn 0.345225 -0.536577 -0.769982
vn 0.577807 -0.811152 0.090304
vn 0.458296 -0.834346 0.306253
vn 0.503464 -0.515671 0.693228
vn 0.351756 -0.473556 0.807459
vn 0.229591 -0.025025 0.972961
vn 0.523301 0.836970 0.160009
vn 0.363231 0.836726 0.409772
vn 0.325602 0.819483 -0.471541
vn 0.276070 0.579455 -0.766808
vn 0.100620 0.639210 -0.762383
vn -0.338908 0.575549 -0.744194
vn -0.409253 0.575396 -0.708090
vn -0.197119 0.377880 -0.904599
vn -0.811182 0.556200 -0.180517
vn -0.081637 -0.402081 -0.911924
vn -0.500595 -0.417737 -0.758202
vn 0.511368 -0.295328 -0.807001
vn 0.679342 0.094211 -0.727714
vn 0.971679 0.025147 -0.234840
vn 0.912748 -0.011383 -0.408307
vn 0.971099 0.012665 -0.238197
vn -0.530046 -0.621204 0.577136
vn 0.349559 0.434889 0.829829
vn -0.401471 0.024415 -0.915525
vn 0.001831 -0.999634 -0.026246
vn 0.083804 -0.996460 0.005432
vn -0.085726 -0.936674 0.339457
vn -0.363201 -0.913663 0.182440
vn -0.392529 -0.887845 -0.239967
vn -0.054353 -0.887448 -0.457656
vn 0.219245 -0.912442 -0.345439
vn -0.317637 -0.637410 0.701987
vn -0.623432 -0.648274 0.437025
vn -0.771386 -0.635762 -0.026795
vn -0.587024 -0.628590 -0.510086
vn -0.157872 -0.614948 -0.772576
vn 0.315439 -0.596332 -0.738121
vn 0.483474 -0.580401 -0.655232
vn -0.137577 -0.627094 0.766656
vn -0.397656 -0.242225 0.884976
vn -0.947294 -0.252327 0.197211
vn -0.941130 -0.241554 -0.236396
vn -0.406110 -0.216773 -0.887692
vn 0.018067 -0.207617 -0.978027
vn 0.414716 -0.202460 -0.887112
vn 0.624531 0.026368 -0.780541
vn -0.782372 0.204443 0.588244
vn -0.774835 -0.258583 0.576830
vn -0.954863 0.211310 0.208655
vn -0.744682 -0.244484 -0.621021
vn -0.948698 0.222083 -0.224952
vn -0.413678 0.246864 -0.876278
vn 0.010498 0.256020 -0.966582
vn 0.410321 0.260720 -0.873837
vn -0.146580 -0.029725 0.988739
vn -0.401471 0.186529 0.896664
vn -0.643910 0.605304 0.467910
vn -0.791711 0.610828 0.003906
vn -0.607624 0.633503 -0.478988
vn -0.752739 0.250343 -0.608814
vn -0.178472 0.646779 -0.741478
vn 0.302255 0.645680 -0.701224
vn 0.483139 0.621692 -0.616474
vn -0.138066 0.577013 0.804956
vn -0.328837 0.594684 0.733573
vn -0.403424 0.883450 0.238197
vn -0.421461 0.885311 -0.196265
vn -0.082308 0.899258 -0.429518
vn 0.221900 0.940825 -0.256111
vn -0.059847 0.922239 0.381909
vn -0.028687 0.999237 0.026429
vn 0.196661 0.971770 0.130100
vn -0.605030 0.792718 0.074313
vn -0.601642 0.441328 0.665731
vn -0.110935 0.564928 0.817621
vn -0.688101 -0.029054 0.725028
vn -0.134068 -0.027406 0.990570
vn -0.578784 -0.814722 0.034699
vn -0.001526 -0.993469 0.114017
vn -0.086642 -0.608295 0.788934
vn -0.514542 0.438032 -0.737113
vn -0.036164 0.986419 0.160069
vn 0.149419 0.517258 0.842677
vn 0.095004 -0.014984 0.995361
vn 0.629963 -0.755638 0.179235
vn 0.148228 -0.543870 0.825953
vn 0.613849 0.760765 0.210669
vn 0.500839 0.351238 -0.791040
vn -0.095462 0.443617 -0.891079
vn -0.586383 -0.492996 0.642720

vt 0.007349 0.516592
vt 0.109247 0.482258
vt 0.151163 0.652842
vt 0.399777 0.112860
vt 0.466970 0.094838
vt 0.468414 0.180495
vt 0.472909 0.863867
vt 0.462701 0.729703
vt 0.541893 0.729099
vt 0.468200 0.234464
vt 0.558501 0.176262
vt 0.545604 0.362086
vt 0.464782 0.372370
vt 0.467375 0.251692
vt 0.680073 0.679470
vt 0.542188 0.664904
vt 0.466383 0.671466
vt 0.241472 0.687551
vt 0.258689 0.649042
vt 0.390033 0.666604
vt 0.193094 0.625597
vt 0.158272 0.525341
vt 0.156642 0.394849
vt 0.152520 0.429750
vt 0.238930 0.357871
vt 0.241697 0.378616
vt 0.384015 0.362247
vt 0.384538 0.405512
vt 0.466056 0.407477
vt 0.695586 0.354990
vt 0.691018 0.378031
vt 0.800474 0.413115
vt 0.776179 0.429500
vt 0.822374 0.483830
vt 0.781264 0.654997
vt 0.737871 0.626056
vt 0.773063 0.525915
vt 0.672613 0.647984
vt 0.171314 0.520610
vt 0.200814 0.615770
vt 0.157061 0.432066
vt 0.467341 0.043413
vt 0.606981 0.156070
vt 0.534028 0.113308
vt 0.625571 0.240290
vt 0.575109 0.229460
vt 0.331294 0.154692
vt 0.375886 0.175568
vt 0.356374 0.228787
vt 0.359088 0.061234
vt 0.923350 0.520839
vt 0.383459 0.732016
vt 0.313444 0.239686
vt 0.547496 0.404549
vt 0.575594 0.062295
vt 0.579969 0.962303
vt 0.472366 0.989387
vt 0.362383 0.970888
vt 0.669779 0.200867
vt 0.623444 0.203369
vt 0.642338 0.122920
vt 0.705540 0.162232
vt 0.712810 0.200760
vt 0.707890 0.238773
vt 0.647268 0.282828
vt 0.728591 0.093363
vt 0.741112 0.119872
vt 0.750174 0.167480
vt 0.755029 0.216330
vt 0.746156 0.264296
vt 0.732120 0.308076
vt 0.709215 0.345508
vt 0.702035 0.057575
vt 0.782486 0.065867
vt 0.789320 0.141054
vt 0.791303 0.180075
vt 0.791958 0.256004
vt 0.790879 0.294808
vt 0.788121 0.333702
vt 0.818539 0.381984
vt 0.833612 0.102929
vt 0.786612 0.103315
vt 0.830832 0.140578
vt 0.793013 0.218200
vt 0.830162 0.179317
vt 0.834047 0.254735
vt 0.838574 0.293184
vt 0.845401 0.331371
vt 0.809860 0.015451
vt 0.838263 0.065589
vt 0.879337 0.117552
vt 0.870691 0.164689
vt 0.867762 0.213390
vt 0.830158 0.217269
vt 0.880350 0.260091
vt 0.899367 0.301587
vt 0.925028 0.336252
vt 0.918831 0.056724
vt 0.892860 0.091866
vt 0.914930 0.158424
vt 0.908543 0.195998
vt 0.915887 0.232552
vt 0.982000 0.266344
vt 0.979849 0.124192
vt 0.950040 0.194179
vt 0.995471 0.194996
vt 0.054962 0.679534
vt 0.622078 0.861803
vt 0.877428 0.684267
vt 0.316283 0.877281
vt 0.667746 0.637488
vt 0.536109 0.649166
vt 0.551587 0.513495
vt 0.466201 0.657450
vt 0.465905 0.513406
vt 0.263705 0.638161
vt 0.247968 0.520242
vt 0.380341 0.514224
vt 0.730517 0.615947
vt 0.683922 0.519953
vt 0.548988 0.421582
vt 0.467148 0.418326
vt 0.241971 0.387210
vt 0.385022 0.422107
vt 0.690753 0.386956
vt 0.771744 0.431343
vt 0.760172 0.520975
vt 0.395886 0.650271
s off
f 97/111/97 98/112/98 99/113/99
f 98/112/98 100/114/100 101/115/101
f 102/116/102 103/117/103 104/118/104
f 40/40/40 39/39/39 103/117/103
f 105/119/105 97/111/97 106/120/106
f 106/120/106 99/113/99 107/121/107
f 101/115/101 108/122/108 107/121/107
f 103/117/103 109/123/109 110/124/110
f 103/117/103 39/39/39 41/41/41
f 106/120/106 111/125/111 112/126/112
f 97/111/97 38/38/38 16/16/16
f 16/16/16 17/17/17 100/114/100
f 20/20/20 19/19/19 102/116/102
f 19/19/19 21/21/21 40/40/40
f 24/24/24 26/26/26 109/123/109
f 26/26/26 28/28/28 110/124/110
f 28/28/28 29/29/29 108/122/108
f 31/31/31 111/125/111 107/121/107
f 33/33/33 112/126/112 111/125/111
f 33/33/33 37/37/37 113/127/113
f 37/37/37 36/36/36 105/119/105
f 105/119/105 36/36/36 38/38/38
f 114/128/114 104/118/104 101/115/101
f 110/124/110 108/122/108 101/115/101
f 20/20/20 114/128/114 100/114/100
f 47/54/47 107/121/107 108/122/108
f 106/120/106 97/111/97 99/113/99
f 99/113/99 98/112/98 101/115/101
f 114/128/114 102/116/102 104/118/104
f 102/116/102 40/40/40 103/117/103
f 113/127/113 105/119/105 106/120/106
f 111/125/111 106/120/106 107/121/107
f 99/113/99 101/115/101 107/121/107
f 104/118/104 103/117/103 110/124/110
f 109/123/109 103/117/103 41/41/41
f 113/127/113 106/120/106 112/126/112
f 98/112/98 97/111/97 16/16/16
f 98/112/98 16/16/16 100/114/100
f 114/128/114 20/20/20 102/116/102
f 102/116/102 19/19/19 40/40/40
f 41/41/41 24/24/24 109/123/109
f 109/123/109 26/26/26 110/124/110
f 110/124/110 28/28/28 108/122/108
f 47/54/47 31/31/31 107/121/107
f 31/31/31 33/33/33 111/125/111
f 112/126/112 33/33/33 113/127/113
f 113/127/113 37/37/37 105/119/105
f 97/111/97 105/119/105 38/38/38
f 100/114/100 114/128/114 101/115/101
f 104/118/104 110/124/110 101/115/101
f 17/17/17 20/20/20 100/114/100
f 29/29/29 47/54/47 108/122/108
