# File produced by Open Asset Import Library (http://www.assimp.sf.net)
# (assimp v3.2.0)

mtllib RElbowYaw.mtl

# 91 vertex positions
v  -0.013242 0.0269819 0.0101735
v  -0.0108787 0.0219787 0.0204089
v  -6.86798e-05 0.024505 0.0204311
v  -0.0237281 0.0185318 0.0100212
v  -0.0195221 0.0150134 0.0202833
v  -0.024287 0.00498885 0.0200794
v  -0.0294393 -0.00709438 0.0094803
v  -0.0242296 -0.00610954 0.0198375
v  -0.0235332 -0.019195 0.00919896
v  -0.0193614 -0.0160838 0.0196056
v  -0.0106465 -0.0229582 0.0194295
v  0.000189056 -0.0253712 0.0193441
v  -0.0129603 -0.0275349 0.00898528
v  0.0132998 -0.0273976 0.00890881
v  0.010999 -0.022845 0.0193664
v  0.0237858 -0.0189474 0.00906116
v  0.0196425 -0.0158798 0.019492
v  0.0244074 -0.00585514 0.0196958
v  0.029497 0.00667882 0.00960195
v  0.02435 0.0052433 0.0199377
v  0.0194817 0.0152175 0.0201697
v  0.013018 0.0271193 0.010097
v  0.0107668 0.0220919 0.0203458
v  -0.000127457 0.0300468 0.0102006
v  -0.000163803 0.031699 0.000690857
v  -0.0139045 0.0284879 0.000662537
v  -0.0309479 0.00689196 0.000243774
v  -0.0295088 0.00637013 0.00977379
v  -0.030875 -0.00721538 -6.37207e-05
v  -0.0246869 -0.0198937 -0.000358582
v  -0.0136093 -0.0286318 -0.000582397
v  0.000163803 -0.031699 -0.000690857
v  0.000185211 -0.0304624 0.00888175
v  0.0139045 -0.0284879 -0.000662537
v  0.0248912 -0.0196343 -0.00050293
v  0.0309479 -0.00689196 -0.000243774
v  0.0295666 -0.00678569 0.00930852
v  0.030875 0.00721538 6.37207e-05
v  0.0246869 0.0198937 0.000358582
v  0.0235909 0.0187794 0.00988334
v  0.0136093 0.0286318 0.000582397
v  -0.0132998 0.0273976 -0.00890881
v  -0.000185211 0.0304624 -0.00888175
v  -0.000189056 0.0253712 -0.0193441
v  -0.0237858 0.0189475 -0.00906116
v  -0.010999 0.022845 -0.0193664
v  -0.0295666 0.00678575 -0.00930852
v  -0.0196425 0.0158798 -0.019492
v  -0.02435 -0.0052433 -0.0199377
v  -0.029497 -0.00667876 -0.00960195
v  -0.0194818 -0.0152175 -0.0201697
v  -0.0235909 -0.0187794 -0.00988334
v  -0.013018 -0.0271193 -0.010097
v  6.86798e-05 -0.024505 -0.0204311
v  0.000127457 -0.0300468 -0.0102006
v  0.013242 -0.0269819 -0.0101735
v  0.0195221 -0.0150134 -0.0202833
v  0.0237281 -0.0185318 -0.0100212
v  0.0295088 -0.00637013 -0.00977379
v  0.0242296 0.00610959 -0.0198375
v  0.0294393 0.00709438 -0.0094803
v  0.0235331 0.019195 -0.00919896
v  0.0106464 0.0229582 -0.0194295
v  0.0129602 0.027535 -0.00898528
v  -0.000173767 0.0199183 -0.0238905
v  -0.0119383 0.0152466 -0.0239567
v  -0.0189807 0.000430618 -0.024258
v  -0.0244074 0.00585514 -0.0196959
v  -0.0117856 -0.0143109 -0.0246008
v  -0.0107668 -0.0220919 -0.0203458
v  2.66113e-05 -0.0188593 -0.0247356
v  0.0117912 -0.0141876 -0.0246695
v  0.0108787 -0.0219787 -0.0204089
v  0.0188335 0.000628433 -0.0243682
v  0.024287 -0.00498885 -0.0200794
v  0.0116384 0.0153699 -0.0240253
v  0.0193614 0.0160838 -0.0196056
v  -0.0248912 0.0196344 0.00050293
v  -2.66113e-05 0.0188593 0.0247356
v  -0.0117912 0.0141876 0.0246695
v  -0.0188479 0.00214618 0.0244285
v  -0.0188192 -0.00340301 0.0243077
v  -0.0138172 -0.0136513 0.0240693
v  -0.00945967 -0.0170885 0.0239812
v  0.000173767 -0.0199183 0.0238905
v  0.0140992 -0.0135053 0.023988
v  0.00977749 -0.0169879 0.0239252
v  0.018995 -0.00320518 0.0241974
v  0.0189664 0.00234401 0.0243184
v  0.0139644 0.0125923 0.0245568
v  0.00960684 0.0160295 0.0246448

# 98 UV coordinates
vt 0.0714289 0.571429 0
vt 0.0714289 0.714286 0
vt 0 0.714286 0
vt 0.142857 0.571429 0
vt 0.142857 0.714286 0
vt 0.214286 0.714286 0
vt 0.285714 0.571429 0
vt 0.285714 0.714286 0
vt 0.357143 0.571429 0
vt 0.357143 0.714286 0
vt 0.428571 0.714286 0
vt 0.5 0.714286 0
vt 0.428571 0.571429 0
vt 0.571429 0.571429 0
vt 0.571429 0.714286 0
vt 0.642857 0.571429 0
vt 0.642857 0.714286 0
vt 0.714286 0.714286 0
vt 0.785714 0.571429 0
vt 0.785714 0.714286 0
vt 0.857143 0.714286 0
vt 0.928572 0.571429 0
vt 0.928572 0.714286 0
vt 1 0.714286 0
vt 0 0.571429 0
vt 0 0.5 0
vt 0.0714289 0.5 0
vt 0.214286 0.5 0
vt 0.214286 0.571429 0
vt 0.285714 0.5 0
vt 0.357143 0.5 0
vt 0.428571 0.5 0
vt 0.5 0.5 0
vt 0.5 0.571429 0
vt 0.571429 0.5 0
vt 0.642857 0.5 0
vt 0.714286 0.5 0
vt 0.714286 0.571429 0
vt 0.785714 0.5 0
vt 0.857143 0.5 0
vt 0.857143 0.571429 0
vt 0.928572 0.5 0
vt 1 0.5 0
vt 1 0.571429 0
vt 0.0714289 0.428571 0
vt 0 0.428571 0
vt 0 0.285714 0
vt 0.142857 0.428571 0
vt 0.0714289 0.285714 0
vt 0.214286 0.428571 0
vt 0.142857 0.285714 0
vt 0.285714 0.285714 0
vt 0.285714 0.428571 0
vt 0.357143 0.285714 0
vt 0.357143 0.428571 0
vt 0.428571 0.428571 0
vt 0.5 0.285714 0
vt 0.5 0.428571 0
vt 0.571429 0.428571 0
vt 0.642857 0.285714 0
vt 0.642857 0.428571 0
vt 0.714286 0.428571 0
vt 0.785714 0.285714 0
vt 0.785714 0.428571 0
vt 0.857143 0.428571 0
vt 0.928572 0.285714 0
vt 0.928572 0.428571 0
vt 1 0.285714 0
vt 1 0.428571 0
vt 0 0.214286 0
vt 0.107143 0.214286 0
vt 0.25 0.214286 0
vt 0.214286 0.285714 0
vt 0.392857 0.214286 0
vt 0.428571 0.285714 0
vt 0.5 0.214286 0
vt 0.607143 0.214286 0
vt 0.571429 0.285714 0
vt 0.75 0.214286 0
vt 0.714286 0.285714 0
vt 0.892857 0.214286 0
vt 0.857143 0.285714 0
vt 1 0.214286 0
vt 0.142857 0.5 0
vt 0 0.785714 0
vt 0.107143 0.785714 0
vt 0.232143 0.785714 0
vt 0.267857 0.785714 0
vt 0.375 0.785714 0
vt 0.410714 0.785714 0
vt 0.5 0.785714 0
vt 0.625 0.785714 0
vt 0.589286 0.785714 0
vt 0.732143 0.785714 0
vt 0.767857 0.785714 0
vt 0.875 0.785714 0
vt 0.910714 0.785714 0
vt 1 0.785714 0

# 91 vertex normals
vn -0.41728 0.850276 0.320749
vn -0.332957 0.684408 0.648579
vn -0.00659198 0.756493 0.65392
vn -0.747734 0.583972 0.315928
vn -0.606769 0.454054 0.652394
vn -0.746025 0.164891 0.645131
vn -0.927702 -0.223548 0.298898
vn -0.752373 -0.197028 0.628559
vn -0.7416 -0.604877 0.290017
vn -0.606739 -0.495376 0.621632
vn -0.330668 -0.720511 0.609485
vn 0.00589007 -0.790094 0.612903
vn -0.408399 -0.867702 0.283303
vn 0.419111 -0.863369 0.280892
vn 0.341716 -0.717002 0.607532
vn 0.749565 -0.597095 0.285684
vn 0.615497 -0.488998 0.618061
vn 0.758019 -0.189123 0.624165
vn 0.929533 0.210456 0.302744
vn 0.756188 0.169561 0.631977
vn 0.610553 0.46794 0.638905
vn 0.41023 0.85461 0.318339
vn 0.334422 0.69335 0.638264
vn -0.00399792 0.946837 0.321604
vn -0.00515759 0.999725 0.0217292
vn -0.43852 0.898465 0.0208746
vn -0.976043 0.217353 0.00766009
vn -0.929899 0.20072 0.308145
vn -0.973754 -0.227546 -0.0019837
vn -0.778588 -0.6274 -0.0112918
vn -0.429212 -0.903012 -0.0183111
vn 0.00515759 -0.999725 -0.0217292
vn 0.00582898 -0.95996 0.280038
vn 0.43852 -0.898465 -0.0208746
vn 0.785028 -0.619221 -0.0158391
vn 0.976043 -0.217353 -0.00766009
vn 0.93173 -0.213813 0.293496
vn 0.973754 0.227546 0.0019837
vn 0.778588 0.6274 0.0112918
vn 0.7434 0.591784 0.311594
vn 0.429212 0.903012 0.0183111
vn -0.419111 0.863369 -0.280892
vn -0.00582898 0.95996 -0.280038
vn -0.00589007 0.778314 -0.627766
vn -0.749565 0.597095 -0.285684
vn -0.336772 0.711966 -0.616138
vn -0.93173 0.213843 -0.293496
vn -0.607013 0.471847 -0.639424
vn -0.737113 -0.173406 -0.653096
vn -0.929533 -0.210456 -0.302744
vn -0.602222 -0.449782 -0.659505
vn -0.7434 -0.591784 -0.311594
vn -0.41023 -0.85461 -0.318339
vn 0.0019837 -0.750298 -0.661092
vn 0.00399792 -0.946837 -0.321604
vn 0.41728 -0.850276 -0.320749
vn 0.603046 -0.443464 -0.663015
vn 0.747734 -0.583972 -0.315928
vn 0.929899 -0.20072 -0.308145
vn 0.733177 0.201758 -0.649373
vn 0.927702 0.223548 -0.298898
vn 0.7416 0.604877 -0.290017
vn 0.325724 0.715445 -0.618061
vn 0.408399 0.867702 -0.283303
vn -0.00540173 0.582476 -0.8128
vn -0.363598 0.446364 -0.817621
vn -0.538652 0.0155644 -0.842372
vn -0.739036 0.194067 -0.64507
vn -0.359142 -0.414075 -0.83636
vn -0.329539 -0.687887 -0.646657
vn 0.000396741 -0.546525 -0.837428
vn 0.358593 -0.410321 -0.838466
vn 0.332957 -0.684408 -0.648579
vn 0.533555 0.0211798 -0.845485
vn 0.735099 -0.165716 -0.657369
vn 0.354137 0.450117 -0.819697
vn 0.598285 0.478133 -0.642933
vn -0.785028 0.619221 0.0158391
vn -0.0130924 0.563829 0.82577
vn -0.36256 0.42674 0.828486
vn -0.572588 0.101138 0.813563
vn -0.590198 -0.134648 0.795923
vn -0.454726 -0.412214 0.789453
vn -0.28782 -0.560167 0.776727
vn 0.00549328 -0.616504 0.787286
vn 0.463607 -0.407422 0.786767
vn 0.298196 -0.557115 0.775018
vn 0.59621 -0.128452 0.792444
vn 0.595019 0.0999481 0.797449
vn 0.459548 0.377514 0.803888
vn 0.292581 0.525864 0.798639

# Mesh 'RElbowYaw_RElbowYaw' with 161 faces
g RElbowYaw_RElbowYaw
usemtl milky_white
f  1/1/1 2/2/2 3/3/3
f  1/1/1 4/4/4 5/5/5
f  6/6/6 5/5/5 4/4/4
f  7/7/7 8/8/8 6/6/6
f  9/9/9 10/10/10 8/8/8
f  11/11/11 10/10/10 9/9/9
f  12/12/12 11/11/11 13/13/13
f  14/14/14 15/15/15 12/12/12
f  16/16/16 17/17/17 15/15/15
f  18/18/18 17/17/17 16/16/16
f  19/19/19 20/20/20 18/18/18
f  21/21/21 20/20/20 19/19/19
f  22/22/22 23/23/23 21/21/21
f  3/24/3 23/23/23 22/22/22
f  24/25/24 25/26/25 26/27/26
f  4/4/4 1/1/1 26/27/26
f  27/28/27 28/29/28 4/4/4
f  27/28/27 29/30/29 7/7/7
f  30/31/30 9/9/9 7/7/7
f  30/31/30 31/32/31 13/13/13
f  32/33/32 33/34/33 13/13/13
f  32/33/32 34/35/34 14/14/14
f  35/36/35 16/16/16 14/14/14
f  35/36/35 36/37/36 37/38/37
f  38/39/38 19/19/19 37/38/37
f  38/39/38 39/40/39 40/41/40
f  41/42/41 22/22/22 40/41/40
f  41/42/41 25/43/25 24/44/24
f  42/45/42 43/46/43 44/47/44
f  45/48/45 42/45/42 46/49/46
f  47/50/47 45/48/45 48/51/48
f  49/52/49 50/53/50 47/50/47
f  51/54/51 52/55/52 50/53/50
f  53/56/53 52/55/52 51/54/51
f  54/57/54 55/58/55 53/56/53
f  56/59/56 55/58/55 54/57/54
f  57/60/57 58/61/58 56/59/56
f  59/62/59 58/61/58 57/60/57
f  60/63/60 61/64/61 59/62/59
f  62/65/62 61/64/61 60/63/60
f  63/66/63 64/67/64 62/65/62
f  44/68/44 43/69/43 64/67/64
f  65/70/65 66/71/66 46/49/46
f  46/49/46 66/71/66 48/51/48
f  67/72/67 68/73/68 48/51/48
f  68/73/68 67/72/67 49/52/49
f  67/72/67 69/74/69 51/54/51
f  51/54/51 69/74/69 70/75/70
f  70/75/70 69/74/69 71/76/71
f  71/76/71 72/77/72 73/78/73
f  73/78/73 72/77/72 57/60/57
f  72/77/72 74/79/74 75/80/75
f  75/80/75 74/79/74 60/63/60
f  74/79/74 76/81/76 77/82/77
f  77/82/77 76/81/76 63/66/63
f  63/66/63 76/81/76 65/83/65
f  42/45/42 26/27/26 25/26/25
f  42/45/42 45/48/45 78/84/78
f  47/50/47 27/28/27 78/84/78
f  47/50/47 50/53/50 29/30/29
f  52/55/52 30/31/30 29/30/29
f  52/55/52 53/56/53 31/32/31
f  55/58/55 32/33/32 31/32/31
f  55/58/55 56/59/56 34/35/34
f  58/61/58 35/36/35 34/35/34
f  58/61/58 59/62/59 36/37/36
f  61/64/61 38/39/38 36/37/36
f  61/64/61 62/65/62 39/40/39
f  64/67/64 41/42/41 39/40/39
f  64/67/64 43/69/43 25/43/25
f  79/85/79 3/3/3 2/2/2
f  80/86/80 2/2/2 5/5/5
f  5/5/5 6/6/6 81/87/81
f  8/8/8 82/88/82 81/87/81
f  10/10/10 83/89/83 82/88/82
f  11/11/11 84/90/84 83/89/83
f  11/11/11 12/12/12 85/91/85
f  85/91/85 12/12/12 15/15/15
f  86/92/86 87/93/87 15/15/15
f  17/17/17 18/18/18 88/94/88
f  20/20/20 89/95/89 88/94/88
f  20/20/20 21/21/21 90/96/90
f  23/23/23 91/97/91 90/96/90
f  23/23/23 3/24/3 79/98/79
f  24/25/24 1/1/1 3/3/3
f  2/2/2 1/1/1 5/5/5
f  28/29/28 6/6/6 4/4/4
f  28/29/28 7/7/7 6/6/6
f  7/7/7 9/9/9 8/8/8
f  13/13/13 11/11/11 9/9/9
f  33/34/33 12/12/12 13/13/13
f  33/34/33 14/14/14 12/12/12
f  14/14/14 16/16/16 15/15/15
f  37/38/37 18/18/18 16/16/16
f  37/38/37 19/19/19 18/18/18
f  40/41/40 21/21/21 19/19/19
f  40/41/40 22/22/22 21/21/21
f  24/44/24 3/24/3 22/22/22
f  1/1/1 24/25/24 26/27/26
f  78/84/78 4/4/4 26/27/26
f  78/84/78 27/28/27 4/4/4
f  28/29/28 27/28/27 7/7/7
f  29/30/29 30/31/30 7/7/7
f  9/9/9 30/31/30 13/13/13
f  31/32/31 32/33/32 13/13/13
f  33/34/33 32/33/32 14/14/14
f  34/35/34 35/36/35 14/14/14
f  16/16/16 35/36/35 37/38/37
f  36/37/36 38/39/38 37/38/37
f  19/19/19 38/39/38 40/41/40
f  39/40/39 41/42/41 40/41/40
f  22/22/22 41/42/41 24/44/24
f  46/49/46 42/45/42 44/47/44
f  48/51/48 45/48/45 46/49/46
f  68/73/68 47/50/47 48/51/48
f  68/73/68 49/52/49 47/50/47
f  49/52/49 51/54/51 50/53/50
f  70/75/70 53/56/53 51/54/51
f  70/75/70 54/57/54 53/56/53
f  73/78/73 56/59/56 54/57/54
f  73/78/73 57/60/57 56/59/56
f  75/80/75 59/62/59 57/60/57
f  75/80/75 60/63/60 59/62/59
f  77/82/77 62/65/62 60/63/60
f  77/82/77 63/66/63 62/65/62
f  63/66/63 44/68/44 64/67/64
f  44/47/44 65/70/65 46/49/46
f  66/71/66 67/72/67 48/51/48
f  49/52/49 67/72/67 51/54/51
f  54/57/54 70/75/70 71/76/71
f  54/57/54 71/76/71 73/78/73
f  57/60/57 72/77/72 75/80/75
f  60/63/60 74/79/74 77/82/77
f  44/68/44 63/66/63 65/83/65
f  43/46/43 42/45/42 25/26/25
f  26/27/26 42/45/42 78/84/78
f  45/48/45 47/50/47 78/84/78
f  27/28/27 47/50/47 29/30/29
f  50/53/50 52/55/52 29/30/29
f  30/31/30 52/55/52 31/32/31
f  53/56/53 55/58/55 31/32/31
f  32/33/32 55/58/55 34/35/34
f  56/59/56 58/61/58 34/35/34
f  35/36/35 58/61/58 36/37/36
f  59/62/59 61/64/61 36/37/36
f  38/39/38 61/64/61 39/40/39
f  62/65/62 64/67/64 39/40/39
f  41/42/41 64/67/64 25/43/25
f  80/86/80 79/85/79 2/2/2
f  80/86/80 5/5/5 81/87/81
f  6/6/6 8/8/8 81/87/81
f  8/8/8 10/10/10 82/88/82
f  10/10/10 11/11/11 83/89/83
f  84/90/84 11/11/11 85/91/85
f  87/93/87 85/91/85 15/15/15
f  17/17/17 86/92/86 15/15/15
f  86/92/86 17/17/17 88/94/88
f  18/18/18 20/20/20 88/94/88
f  89/95/89 20/20/20 90/96/90
f  21/21/21 23/23/23 90/96/90
f  91/97/91 23/23/23 79/98/79

