# File produced by Open Asset Import Library (http://www.assimp.sf.net)
# (assimp v3.2.0)

mtllib RShoulderPitch.mtl

# 98 vertex positions
v  0 0 0.0412238
v  0 0.0158019 0.0380859
v  -0.011771 0.011771 0.0380859
v  -0.0158019 0 0.0380859
v  -0.011771 -0.011771 0.0380859
v  0 -0.0158019 0.0380859
v  0.011771 -0.011771 0.0380859
v  0.015802 0 0.0380859
v  0.011771 0.011771 0.0380859
v  0 0.0312623 0.0298251
v  -0.0119635 0.0288826 0.0298251
v  -0.0288826 0.0119635 0.0298251
v  -0.0312623 0 0.0298251
v  -0.0288826 -0.0119635 0.0298251
v  -0.0119635 -0.0288826 0.0298251
v  0 -0.0312623 0.0298251
v  0.0119635 -0.0288826 0.0298251
v  0.0288827 -0.0119635 0.0298251
v  0.0312623 0 0.0298251
v  0.0288826 0.0119636 0.0298251
v  0.0119635 0.0288827 0.0298251
v  -0.0153795 0.0371295 0.0166467
v  -0.0284177 0.0284177 0.0166467
v  -0.0221058 0.0221058 0.0298251
v  -0.0371295 0.0153795 0.0166467
v  -0.0401887 0 0.0166467
v  -0.0371296 -0.0153795 0.0166467
v  -0.0221058 -0.0221058 0.0298251
v  -0.0284177 -0.0284177 0.0166467
v  0 -0.0401887 0.0166467
v  0.0284177 -0.0284177 0.0166467
v  0.0221058 -0.0221058 0.0298251
v  0.0371296 -0.0153795 0.0166467
v  0.0401887 0 0.0166467
v  0.0284177 0.0284178 0.0166467
v  0.0221058 0.0221058 0.0298251
v  0.0153795 0.0371296 0.0166467
v  0 0.0401887 0.0166467
v  -0.0166467 0.0401887 0
v  -0.0307591 0.0307591 0
v  -0.0401887 0.0166467 0
v  -0.0435 0 0
v  -0.0401887 -0.0166467 0
v  -0.0166467 -0.0401887 0
v  -0.0153795 -0.0371296 0.0166467
v  0 -0.0435 0
v  0.0153795 -0.0371296 0.0166467
v  0.0166467 -0.0401887 0
v  0.0401887 -0.0166467 0
v  0.0435 0 0
v  0.0401887 0.0166467 0
v  0.0371295 0.0153796 0.0166467
v  0.0307591 0.0307592 0
v  0.0166467 0.0401887 0
v  0 0.0435 0
v  0 0.0401887 -0.0166467
v  -0.0153795 0.0371295 -0.0166467
v  -0.0371295 0.0153795 -0.0166467
v  -0.0401887 0 -0.0166467
v  -0.0371296 -0.0153795 -0.0166467
v  -0.0284177 -0.0284177 -0.0166467
v  -0.0307592 -0.0307591 0
v  -0.0153795 -0.0371296 -0.0166467
v  0.0153795 -0.0371296 -0.0166467
v  0.0284177 -0.0284177 -0.0166467
v  0.0307592 -0.0307591 0
v  0.0371296 -0.0153795 -0.0166467
v  0.0401887 0 -0.0166467
v  0.0284177 0.0284178 -0.0166467
v  0.0153795 0.0371296 -0.0166467
v  -0.0111395 0.0284209 -0.0303678
v  -0.0217211 0.0217211 -0.0303678
v  -0.0284177 0.0284177 -0.0166467
v  -0.0284209 0.0111395 -0.0303678
v  -0.0284209 -0.0111394 -0.0303678
v  -0.0217211 -0.0217211 -0.0303678
v  0 -0.0401887 -0.0166467
v  -0.0111395 -0.0284209 -0.0303678
v  0.0111395 -0.0284209 -0.0303678
v  0.0217212 -0.0217211 -0.0303678
v  0.0284209 -0.0111394 -0.0303678
v  0.0284209 0.0111395 -0.0303678
v  0.0371295 0.0153796 -0.0166467
v  0.0217211 0.0217212 -0.0303678
v  0.0111394 0.0284209 -0.0303678
v  0 0.0306367 -0.0303678
v  0 0.0158019 -0.0380859
v  -0.011771 0.011771 -0.0380859
v  -0.015802 0 -0.0380859
v  -0.0306367 0 -0.0303678
v  -0.011771 -0.011771 -0.0380859
v  0 -0.0158019 -0.0380859
v  0 -0.0306367 -0.0303678
v  0.011771 -0.011771 -0.0380859
v  0.015802 0 -0.0380859
v  0.0306367 0 -0.0303678
v  0.011771 0.011771 -0.0380859
v  0 0 -0.0412238

# 119 UV coordinates
vt 0.0625 1 0
vt 0.03125 0.875 0
vt 0.125 0.875 0
vt 0.125 1 0
vt 0.25 0.875 0
vt 0.3125 1 0
vt 0.375 0.875 0
vt 0.375 1 0
vt 0.5 0.875 0
vt 0.5625 1 0
vt 0.625 0.875 0
vt 0.625 1 0
vt 0.75 0.875 0
vt 0.8125 1 0
vt 0.875 0.875 0
vt 0.875 1 0
vt 0.96875 0.875 0
vt 0 0.75 0
vt 0.0625 0.75 0
vt 0.1875 0.75 0
vt 0.25 0.75 0
vt 0.3125 0.75 0
vt 0.4375 0.75 0
vt 0.5 0.75 0
vt 0.5625 0.75 0
vt 0.6875 0.75 0
vt 0.75 0.75 0
vt 0.8125 0.75 0
vt 0.9375 0.75 0
vt 1 0.75 0
vt 0.0625 0.625 0
vt 0.125 0.625 0
vt 0.125 0.75 0
vt 0.1875 0.625 0
vt 0.25 0.625 0
vt 0.3125 0.625 0
vt 0.375 0.75 0
vt 0.375 0.625 0
vt 0.5 0.625 0
vt 0.625 0.625 0
vt 0.625 0.75 0
vt 0.6875 0.625 0
vt 0.75 0.625 0
vt 0.875 0.625 0
vt 0.875 0.75 0
vt 0.9375 0.625 0
vt 1 0.625 0
vt 0.0625 0.5 0
vt 0 0.625 0
vt 0.125 0.5 0
vt 0.1875 0.5 0
vt 0.25 0.5 0
vt 0.3125 0.5 0
vt 0.4375 0.5 0
vt 0.4375 0.625 0
vt 0.5 0.5 0
vt 0.5625 0.625 0
vt 0.5625 0.5 0
vt 0.6875 0.5 0
vt 0.75 0.5 0
vt 0.8125 0.5 0
vt 0.8125 0.625 0
vt 0.875 0.5 0
vt 0.9375 0.5 0
vt 0 0.5 0
vt 0 0.375 0
vt 0.0625 0.375 0
vt 0.1875 0.375 0
vt 0.25 0.375 0
vt 0.3125 0.375 0
vt 0.375 0.375 0
vt 0.375 0.5 0
vt 0.4375 0.375 0
vt 0.5625 0.375 0
vt 0.625 0.375 0
vt 0.625 0.5 0
vt 0.6875 0.375 0
vt 0.75 0.375 0
vt 0.875 0.375 0
vt 0.9375 0.375 0
vt 1 0.375 0
vt 1 0.5 0
vt 0.0625 0.25 0
vt 0.125 0.25 0
vt 0.125 0.375 0
vt 0.1875 0.25 0
vt 0.3125 0.25 0
vt 0.375 0.25 0
vt 0.5 0.375 0
vt 0.4375 0.25 0
vt 0.5625 0.25 0
vt 0.625 0.25 0
vt 0.6875 0.25 0
vt 0.8125 0.25 0
vt 0.8125 0.375 0
vt 0.875 0.25 0
vt 0.9375 0.25 0
vt 0 0.25 0
vt 0.03125 0.125 0
vt 0.125 0.125 0
vt 0.25 0.125 0
vt 0.25 0.25 0
vt 0.375 0.125 0
vt 0.5 0.125 0
vt 0.5 0.25 0
vt 0.625 0.125 0
vt 0.75 0.125 0
vt 0.75 0.25 0
vt 0.875 0.125 0
vt 0.96875 0.125 0
vt 1 0.25 0
vt 0.0625 0 0
vt 0.125 0 0
vt 0.3125 0 0
vt 0.375 0 0
vt 0.5625 0 0
vt 0.625 0 0
vt 0.8125 0 0
vt 0.875 0 0

# 98 vertex normals
vn 0 0 1
vn 0 0.347758 0.937559
vn -0.253029 0.253029 0.933775
vn -0.347758 0 0.937559
vn -0.253029 -0.253029 0.933775
vn 0 -0.347758 0.937559
vn 0.253029 -0.253029 0.933775
vn 0.347758 0 0.937559
vn 0.253029 0.253029 0.933775
vn 0 0.685018 0.728477
vn -0.254585 0.635914 0.728538
vn -0.635914 0.254585 0.728538
vn -0.685018 0 0.728477
vn -0.635914 -0.254585 0.728538
vn -0.254585 -0.635914 0.728538
vn 0 -0.685018 0.728477
vn 0.254585 -0.635914 0.728538
vn 0.635914 -0.254585 0.728538
vn 0.685018 0 0.728477
vn 0.635914 0.254585 0.728538
vn 0.254585 0.635914 0.728538
vn -0.354411 0.855648 0.377087
vn -0.654897 0.654897 0.377087
vn -0.47969 0.47969 0.734672
vn -0.855648 0.354411 0.377087
vn -0.926145 0 0.377087
vn -0.855648 -0.354411 0.377087
vn -0.47969 -0.47969 0.734672
vn -0.654897 -0.654897 0.377087
vn 0 -0.926145 0.377087
vn 0.654897 -0.654897 0.377087
vn 0.47969 -0.47969 0.734672
vn 0.855648 -0.354411 0.377087
vn 0.926145 0 0.377087
vn 0.654897 0.654897 0.377087
vn 0.47969 0.47969 0.734672
vn 0.354411 0.855648 0.377087
vn 0 0.926145 0.377087
vn -0.382672 0.923856 0
vn -0.707083 0.707083 0
vn -0.923856 0.382672 0
vn -1 0 0
vn -0.923856 -0.382672 0
vn -0.382672 -0.923856 0
vn -0.354411 -0.855648 0.377087
vn 0 -1 0
vn 0.354411 -0.855648 0.377087
vn 0.382672 -0.923856 0
vn 0.923856 -0.382672 0
vn 1 0 0
vn 0.923856 0.382672 0
vn 0.855648 0.354411 0.377087
vn 0.707083 0.707083 0
vn 0.382672 0.923856 0
vn 0 1 0
vn 0 0.923887 -0.382611
vn -0.353038 0.853511 -0.38319
vn -0.853511 0.353038 -0.38319
vn -0.923887 0 -0.382611
vn -0.853511 -0.353038 -0.38319
vn -0.65273 -0.65273 -0.384503
vn -0.707083 -0.707083 0
vn -0.353038 -0.853511 -0.38319
vn 0.353038 -0.853511 -0.38319
vn 0.65273 -0.65273 -0.384503
vn 0.707083 -0.707083 0
vn 0.853511 -0.353038 -0.38319
vn 0.923887 0 -0.382611
vn 0.65273 0.65273 -0.384503
vn 0.353038 0.853511 -0.38319
vn -0.245186 0.629353 -0.737388
vn -0.473922 0.473922 -0.742119
vn -0.65273 0.65273 -0.384503
vn -0.629353 0.245186 -0.737388
vn -0.629353 -0.245186 -0.737388
vn -0.473922 -0.473922 -0.742119
vn 0 -0.923887 -0.382611
vn -0.245186 -0.629353 -0.737388
vn 0.245186 -0.629353 -0.737388
vn 0.473922 -0.473922 -0.742119
vn 0.629353 -0.245186 -0.737388
vn 0.629353 0.245186 -0.737388
vn 0.853511 0.353038 -0.38319
vn 0.473922 0.473922 -0.742119
vn 0.245186 0.629353 -0.737388
vn 0 0.676443 -0.736473
vn 0 0.343181 -0.939238
vn -0.248756 0.248756 -0.936064
vn -0.343181 0 -0.939238
vn -0.676443 0 -0.736473
vn -0.248756 -0.248756 -0.936064
vn 0 -0.343181 -0.939238
vn 0 -0.676443 -0.736473
vn 0.248756 -0.248756 -0.936064
vn 0.343181 0 -0.939238
vn 0.676443 0 -0.736473
vn 0.248756 0.248756 -0.936064
vn 0 0 -1

# Mesh 'RShoulderPitch_RShoulderPitch' with 192 faces
g RShoulderPitch_RShoulderPitch
usemtl milky_white
f  1/1/1 2/2/2 3/3/3
f  1/4/1 3/3/3 4/5/4
f  1/6/1 4/5/4 5/7/5
f  1/8/1 5/7/5 6/9/6
f  1/10/1 6/9/6 7/11/7
f  1/12/1 7/11/7 8/13/8
f  1/14/1 8/13/8 9/15/9
f  1/16/1 9/15/9 2/17/2
f  2/2/2 10/18/10 11/19/11
f  3/3/3 2/2/2 11/19/11
f  12/20/12 4/5/4 3/3/3
f  4/5/4 12/20/12 13/21/13
f  4/5/4 13/21/13 14/22/14
f  5/7/5 4/5/4 14/22/14
f  15/23/15 6/9/6 5/7/5
f  6/9/6 15/23/15 16/24/16
f  6/9/6 16/24/16 17/25/17
f  7/11/7 6/9/6 17/25/17
f  18/26/18 8/13/8 7/11/7
f  8/13/8 18/26/18 19/27/19
f  8/13/8 19/27/19 20/28/20
f  9/15/9 8/13/8 20/28/20
f  21/29/21 2/17/2 9/15/9
f  2/17/2 21/29/21 10/30/10
f  22/31/22 11/19/11 10/18/10
f  23/32/23 24/33/24 11/19/11
f  25/34/25 12/20/12 24/33/24
f  26/35/26 13/21/13 12/20/12
f  27/36/27 14/22/14 13/21/13
f  28/37/28 14/22/14 27/36/27
f  15/23/15 28/37/28 29/38/29
f  30/39/30 16/24/16 15/23/15
f  17/25/17 16/24/16 30/39/30
f  31/40/31 32/41/32 17/25/17
f  33/42/33 18/26/18 32/41/32
f  19/27/19 18/26/18 33/42/33
f  20/28/20 19/27/19 34/43/34
f  35/44/35 36/45/36 20/28/20
f  37/46/37 21/29/21 36/45/36
f  38/47/38 10/30/10 21/29/21
f  39/48/39 22/31/22 38/49/38
f  40/50/40 23/32/23 22/31/22
f  25/34/25 23/32/23 40/50/40
f  26/35/26 25/34/25 41/51/41
f  27/36/27 26/35/26 42/52/42
f  29/38/29 27/36/27 43/53/43
f  44/54/44 45/55/45 29/38/29
f  46/56/46 30/39/30 45/55/45
f  47/57/47 30/39/30 46/56/46
f  31/40/31 47/57/47 48/58/48
f  49/59/49 33/42/33 31/40/31
f  50/60/50 34/43/34 33/42/33
f  51/61/51 52/62/52 34/43/34
f  53/63/53 35/44/35 52/62/52
f  37/46/37 35/44/35 53/63/53
f  38/47/38 37/46/37 54/64/54
f  39/48/39 55/65/55 56/66/56
f  40/50/40 39/48/39 57/67/57
f  58/68/58 41/51/41 40/50/40
f  59/69/59 42/52/42 41/51/41
f  60/70/60 43/53/43 42/52/42
f  61/71/61 62/72/62 43/53/43
f  44/54/44 62/72/62 61/71/61
f  46/56/46 44/54/44 63/73/63
f  64/74/64 48/58/48 46/56/46
f  65/75/65 66/76/66 48/58/48
f  49/59/49 66/76/66 65/75/65
f  50/60/50 49/59/49 67/77/67
f  51/61/51 50/60/50 68/78/68
f  69/79/69 53/63/53 51/61/51
f  70/80/70 54/64/54 53/63/53
f  56/81/56 55/82/55 54/64/54
f  71/83/71 57/67/57 56/66/56
f  72/84/72 73/85/73 57/67/57
f  58/68/58 73/85/73 72/84/72
f  59/69/59 58/68/58 74/86/74
f  75/87/75 60/70/60 59/69/59
f  76/88/76 61/71/61 60/70/60
f  63/73/63 61/71/61 76/88/76
f  77/89/77 63/73/63 78/90/78
f  79/91/79 64/74/64 77/89/77
f  80/92/80 65/75/65 64/74/64
f  67/77/67 65/75/65 80/92/80
f  68/78/68 67/77/67 81/93/81
f  82/94/82 83/95/83 68/78/68
f  84/96/84 69/79/69 83/95/83
f  70/80/70 69/79/69 84/96/84
f  56/81/56 70/80/70 85/97/85
f  86/98/86 87/99/87 71/83/71
f  88/100/88 72/84/72 71/83/71
f  74/86/74 72/84/72 88/100/88
f  74/86/74 89/101/89 90/102/90
f  90/102/90 89/101/89 75/87/75
f  91/103/91 76/88/76 75/87/75
f  78/90/78 76/88/76 91/103/91
f  78/90/78 92/104/92 93/105/93
f  93/105/93 92/104/92 79/91/79
f  94/106/94 80/92/80 79/91/79
f  81/93/81 80/92/80 94/106/94
f  81/93/81 95/107/95 96/108/96
f  96/108/96 95/107/95 82/94/82
f  97/109/97 84/96/84 82/94/82
f  85/97/85 84/96/84 97/109/97
f  85/97/85 87/110/87 86/111/86
f  98/112/98 88/100/88 87/99/87
f  98/113/98 89/101/89 88/100/88
f  98/114/98 91/103/91 89/101/89
f  98/115/98 92/104/92 91/103/91
f  98/116/98 94/106/94 92/104/92
f  98/117/98 95/107/95 94/106/94
f  98/118/98 97/109/97 95/107/95
f  98/119/98 87/110/87 97/109/97
f  24/33/24 3/3/3 11/19/11
f  24/33/24 12/20/12 3/3/3
f  28/37/28 5/7/5 14/22/14
f  28/37/28 15/23/15 5/7/5
f  32/41/32 7/11/7 17/25/17
f  32/41/32 18/26/18 7/11/7
f  36/45/36 9/15/9 20/28/20
f  36/45/36 21/29/21 9/15/9
f  38/49/38 22/31/22 10/18/10
f  22/31/22 23/32/23 11/19/11
f  23/32/23 25/34/25 24/33/24
f  25/34/25 26/35/26 12/20/12
f  26/35/26 27/36/27 13/21/13
f  29/38/29 28/37/28 27/36/27
f  45/55/45 15/23/15 29/38/29
f  45/55/45 30/39/30 15/23/15
f  47/57/47 17/25/17 30/39/30
f  47/57/47 31/40/31 17/25/17
f  31/40/31 33/42/33 32/41/32
f  34/43/34 19/27/19 33/42/33
f  52/62/52 20/28/20 34/43/34
f  52/62/52 35/44/35 20/28/20
f  35/44/35 37/46/37 36/45/36
f  37/46/37 38/47/38 21/29/21
f  55/65/55 39/48/39 38/49/38
f  39/48/39 40/50/40 22/31/22
f  41/51/41 25/34/25 40/50/40
f  42/52/42 26/35/26 41/51/41
f  43/53/43 27/36/27 42/52/42
f  62/72/62 29/38/29 43/53/43
f  62/72/62 44/54/44 29/38/29
f  44/54/44 46/56/46 45/55/45
f  48/58/48 47/57/47 46/56/46
f  66/76/66 31/40/31 48/58/48
f  66/76/66 49/59/49 31/40/31
f  49/59/49 50/60/50 33/42/33
f  50/60/50 51/61/51 34/43/34
f  51/61/51 53/63/53 52/62/52
f  54/64/54 37/46/37 53/63/53
f  55/82/55 38/47/38 54/64/54
f  57/67/57 39/48/39 56/66/56
f  73/85/73 40/50/40 57/67/57
f  73/85/73 58/68/58 40/50/40
f  58/68/58 59/69/59 41/51/41
f  59/69/59 60/70/60 42/52/42
f  60/70/60 61/71/61 43/53/43
f  63/73/63 44/54/44 61/71/61
f  77/89/77 46/56/46 63/73/63
f  77/89/77 64/74/64 46/56/46
f  64/74/64 65/75/65 48/58/48
f  67/77/67 49/59/49 65/75/65
f  68/78/68 50/60/50 67/77/67
f  83/95/83 51/61/51 68/78/68
f  83/95/83 69/79/69 51/61/51
f  69/79/69 70/80/70 53/63/53
f  70/80/70 56/81/56 54/64/54
f  86/98/86 71/83/71 56/66/56
f  71/83/71 72/84/72 57/67/57
f  74/86/74 58/68/58 72/84/72
f  90/102/90 59/69/59 74/86/74
f  90/102/90 75/87/75 59/69/59
f  75/87/75 76/88/76 60/70/60
f  78/90/78 63/73/63 76/88/76
f  93/105/93 77/89/77 78/90/78
f  93/105/93 79/91/79 77/89/77
f  79/91/79 80/92/80 64/74/64
f  81/93/81 67/77/67 80/92/80
f  96/108/96 68/78/68 81/93/81
f  96/108/96 82/94/82 68/78/68
f  82/94/82 84/96/84 83/95/83
f  85/97/85 70/80/70 84/96/84
f  86/111/86 56/81/56 85/97/85
f  87/99/87 88/100/88 71/83/71
f  89/101/89 74/86/74 88/100/88
f  89/101/89 91/103/91 75/87/75
f  92/104/92 78/90/78 91/103/91
f  92/104/92 94/106/94 79/91/79
f  95/107/95 81/93/81 94/106/94
f  95/107/95 97/109/97 82/94/82
f  87/110/87 85/97/85 97/109/97

