# File produced by Open Asset Import Library (http://www.assimp.sf.net)
# (assimp v3.2.0)

mtllib Wheel.mtl

# 88 vertex positions
v  0 -0.0715332 0
v  0 -0.0644492 0.0310371
v  -0.0188661 -0.0644492 0.0236574
v  -0.0302589 -0.0644492 0
v  -0.0188661 -0.0644492 -0.0236574
v  0 -0.0644492 -0.0310371
v  0.0188661 -0.0644492 -0.0236574
v  0.0302589 -0.0644492 0
v  0.0188661 -0.0644492 0.0236574
v  -0.0242658 -0.0446002 0.0503885
v  -0.0437254 -0.0446002 0.0348698
v  -0.0545247 -0.0446002 0.0124449
v  -0.0545247 -0.0446002 -0.0124449
v  -0.0437254 -0.0446002 -0.0348698
v  -0.0242658 -0.0446002 -0.0503885
v  0.0242658 -0.0446002 -0.0503885
v  0.0437254 -0.0446002 -0.0348698
v  0.0545248 -0.0446002 -0.0124449
v  0.0545247 -0.0446002 0.0124449
v  0.0437254 -0.0446002 0.0348699
v  0.0242657 -0.0446002 0.0503885
v  -0.029439 -0.0213971 0.0611306
v  0 -0.0446002 0.055927
v  -0.0661488 -0.0213971 0.015098
v  -0.0661488 -0.0213971 -0.015098
v  -0.0530472 -0.0213971 -0.0423037
v  -0.029439 -0.0213971 -0.0611306
v  0 -0.0213971 -0.0678499
v  0 -0.0446002 -0.055927
v  0.029439 -0.0213971 -0.0611306
v  0.0661488 -0.0213971 -0.015098
v  0.0661488 -0.0213971 0.015098
v  0.0294388 -0.0213971 0.0611306
v  0 0 0.0710893
v  -0.0308444 0 0.0640492
v  -0.0555798 0 0.0443234
v  -0.0530472 -0.0213971 0.0423037
v  -0.0693069 0 0.0158188
v  -0.0693069 0 -0.0158188
v  -0.0555798 0 -0.0443234
v  -0.0308444 0 -0.0640492
v  0 0 -0.0710893
v  0.0308444 0 -0.0640492
v  0.0555798 0 -0.0443234
v  0.0530472 -0.0213971 -0.0423037
v  0.0693069 0 -0.0158188
v  0.0693069 0 0.0158189
v  0.0555798 0 0.0443234
v  0.0530471 -0.0213971 0.0423037
v  0.0308444 0 0.0640492
v  0 -0.0213971 0.0678499
v  -0.029439 0.0213971 0.0611306
v  0 0.0213971 0.0678499
v  0 0.0446003 0.055927
v  -0.0437254 0.0446003 0.0348698
v  -0.0530472 0.0213971 0.0423037
v  -0.0661488 0.0213971 0.015098
v  -0.0545247 0.0446003 -0.0124449
v  -0.0661488 0.0213971 -0.015098
v  -0.0437254 0.0446003 -0.0348698
v  -0.0530472 0.0213971 -0.0423037
v  -0.029439 0.0213971 -0.0611306
v  0 0.0446003 -0.0559269
v  0 0.0213971 -0.0678499
v  0.029439 0.0213971 -0.0611306
v  0.0437254 0.0446003 -0.0348698
v  0.0530472 0.0213971 -0.0423037
v  0.0661488 0.0213971 -0.015098
v  0.0661488 0.0213971 0.015098
v  0.0545247 0.0446003 -0.0124449
v  0.0437254 0.0446003 0.0348699
v  0.0530471 0.0213971 0.0423037
v  0.0242657 0.0446003 0.0503885
v  0.0294388 0.0213971 0.0611306
v  -0.0242658 0.0446003 0.0503885
v  0 0.0644493 0.0310371
v  -0.0188661 0.0644493 0.0236574
v  -0.0545247 0.0446003 0.0124449
v  -0.0302589 0.0644493 0
v  -0.0188661 0.0644493 -0.0236574
v  -0.0242658 0.0446003 -0.0503884
v  0 0.0644493 -0.0310371
v  0.0242658 0.0446003 -0.0503884
v  0.0188661 0.0644493 -0.0236574
v  0.0302589 0.0644493 0
v  0.0545247 0.0446003 0.0124449
v  0.0188661 0.0644493 0.0236574
v  0 0.0715333 0

# 109 UV coordinates
vt 0.785612 0.140521 0
vt 0.84612 0.20585 0
vt 0.79155 0.229321 0
vt 0.741309 0.151425 0
vt 0.697372 0.23342 0
vt 0.646487 0.152015 0
vt 0.591719 0.230588 0
vt 0.547253 0.146612 0
vt 0.500499 0.231827 0
vt 0.453745 0.146612 0
vt 0.409281 0.230588 0
vt 0.354513 0.152015 0
vt 0.303631 0.23342 0
vt 0.259695 0.151425 0
vt 0.209456 0.229321 0
vt 0.215395 0.140522 0
vt 0.154887 0.205851 0
vt 0.865389 0.305784 0
vt 0.804377 0.320303 0
vt 0.742748 0.32381 0
vt 0.682283 0.324488 0
vt 0.62206 0.322961 0
vt 0.562124 0.321092 0
vt 0.438874 0.321092 0
vt 0.37894 0.322962 0
vt 0.31872 0.324488 0
vt 0.258257 0.32381 0
vt 0.196629 0.320303 0
vt 0.13562 0.305785 0
vt 0.895935 0.380944 0
vt 0.920722 0.272603 0
vt 0.755203 0.393438 0
vt 0.689202 0.394253 0
vt 0.625258 0.393224 0
vt 0.562539 0.39211 0
vt 0.500499 0.3913 0
vt 0.500499 0.319345 0
vt 0.43846 0.39211 0
vt 0.3118 0.394253 0
vt 0.245803 0.393438 0
vt 0.105074 0.380946 0
vt 0.080286 0.272604 0
vt 0.985956 0.449432 0
vt 0.905161 0.449523 0
vt 0.829859 0.449579 0
vt 0.824158 0.390693 0
vt 0.758635 0.449351 0
vt 0.690966 0.45028 0
vt 0.626055 0.450118 0
vt 0.562856 0.450103 0
vt 0.500499 0.450104 0
vt 0.438143 0.450103 0
vt 0.374946 0.450118 0
vt 0.375742 0.393224 0
vt 0.310037 0.45028 0
vt 0.24237 0.449351 0
vt 0.171149 0.44958 0
vt 0.176849 0.390694 0
vt 0.095848 0.449525 0
vt 0.015054 0.449434 0
vt 0.030899 0.358653 0
vt 0.896087 0.518133 0
vt 0.970306 0.540255 0
vt 0.921102 0.626428 0
vt 0.804656 0.579011 0
vt 0.82432 0.508517 0
vt 0.755614 0.505635 0
vt 0.682573 0.575376 0
vt 0.689591 0.505973 0
vt 0.622247 0.577101 0
vt 0.625382 0.506948 0
vt 0.562586 0.508073 0
vt 0.5005 0.580808 0
vt 0.500499 0.508893 0
vt 0.438413 0.508073 0
vt 0.378754 0.577101 0
vt 0.375619 0.506949 0
vt 0.311411 0.505974 0
vt 0.245392 0.505635 0
vt 0.31843 0.575376 0
vt 0.196352 0.579012 0
vt 0.176687 0.508518 0
vt 0.135316 0.593385 0
vt 0.104923 0.518135 0
vt 0.0799079 0.62643 0
vt 0.030705 0.540257 0
vt 0.865694 0.593383 0
vt 0.846654 0.693376 0
vt 0.792023 0.670057 0
vt 0.743067 0.57568 0
vt 0.697794 0.6663 0
vt 0.59195 0.669453 0
vt 0.562222 0.579039 0
vt 0.5005 0.668278 0
vt 0.438778 0.579039 0
vt 0.409052 0.669453 0
vt 0.30321 0.6663 0
vt 0.257939 0.57568 0
vt 0.208986 0.670058 0
vt 0.154356 0.693378 0
vt 0.78631 0.758873 0
vt 0.742022 0.748135 0
vt 0.647029 0.747859 0
vt 0.547423 0.753459 0
vt 0.453577 0.753459 0
vt 0.353973 0.747859 0
vt 0.258986 0.748136 0
vt 0.214702 0.758873 0
vt 0.97011 0.358651 0

# 88 vertex normals
vn 0 -1 0
vn 0 -0.88873 0.458388
vn -0.293069 -0.893582 0.339946
vn -0.446272 -0.894894 0
vn -0.293069 -0.893582 -0.339946
vn 0 -0.88873 -0.458388
vn 0.293069 -0.893582 -0.339946
vn 0.446272 -0.894894 0
vn 0.293069 -0.893582 0.339946
vn -0.341594 -0.622944 0.703696
vn -0.611133 -0.630421 0.478591
vn -0.755211 -0.630421 0.179388
vn -0.755211 -0.630421 -0.179388
vn -0.611133 -0.630421 -0.478591
vn -0.341594 -0.622944 -0.703696
vn 0.341594 -0.622944 -0.703696
vn 0.611133 -0.630421 -0.478591
vn 0.755211 -0.630421 -0.179388
vn 0.755211 -0.630421 0.179388
vn 0.611133 -0.630421 0.478591
vn 0.341594 -0.622944 0.703696
vn -0.41377 -0.300882 0.859188
vn 0 -0.630329 0.776299
vn -0.929716 -0.300882 0.212195
vn -0.929716 -0.300882 -0.212195
vn -0.745567 -0.300882 -0.594592
vn -0.41377 -0.300882 -0.859188
vn 0 -0.300882 -0.953642
vn 0 -0.630329 -0.776299
vn 0.41377 -0.300882 -0.859188
vn 0.929716 -0.300882 -0.212195
vn 0.929716 -0.300882 0.212195
vn 0.41377 -0.300882 0.859188
vn 0 0 1
vn -0.433882 0 0.900967
vn -0.781823 0 0.623463
vn -0.745567 -0.300882 0.594592
vn -0.974914 0 0.22251
vn -0.974914 0 -0.22251
vn -0.781823 0 -0.623463
vn -0.433882 0 -0.900967
vn 0 0 -1
vn 0.433882 0 -0.900967
vn 0.781823 0 -0.623463
vn 0.745598 -0.300882 -0.594592
vn 0.974914 0 -0.22251
vn 0.974914 0 0.22251
vn 0.781823 0 0.623463
vn 0.745567 -0.300882 0.594592
vn 0.433882 0 0.900967
vn 0 -0.300882 0.953642
vn -0.41377 0.300882 0.859188
vn 0 0.300882 0.953642
vn 0 0.630329 0.776299
vn -0.611133 0.630421 0.478591
vn -0.745567 0.300882 0.594592
vn -0.929716 0.300882 0.212195
vn -0.755211 0.630421 -0.179388
vn -0.929716 0.300882 -0.212195
vn -0.611133 0.630421 -0.478591
vn -0.745567 0.300882 -0.594592
vn -0.41377 0.300882 -0.859188
vn 0 0.630329 -0.776299
vn 0 0.300882 -0.953642
vn 0.41377 0.300882 -0.859188
vn 0.611133 0.630421 -0.478591
vn 0.745567 0.300882 -0.594592
vn 0.929716 0.300882 -0.212195
vn 0.929716 0.300882 0.212195
vn 0.755211 0.630421 -0.179388
vn 0.611133 0.630421 0.478591
vn 0.745567 0.300882 0.594592
vn 0.341594 0.622944 0.703696
vn 0.41377 0.300882 0.859188
vn -0.341594 0.622944 0.703696
vn 0 0.88873 0.458388
vn -0.293069 0.893582 0.339946
vn -0.755211 0.630421 0.179388
vn -0.446272 0.894894 0
vn -0.293069 0.893582 -0.339946
vn -0.341594 0.622944 -0.703696
vn 0 0.88873 -0.458388
vn 0.341594 0.622944 -0.703696
vn 0.293069 0.893582 -0.339946
vn 0.446272 0.894894 0
vn 0.755211 0.630421 0.179388
vn 0.293069 0.893582 0.339946
vn 0 1 0

# Mesh 'WheelB_Wheel' with 172 faces
g WheelB_Wheel
usemtl black
f  1/1/1 2/2/2 3/3/3
f  1/4/1 3/3/3 4/5/4
f  1/6/1 4/5/4 5/7/5
f  1/8/1 5/7/5 6/9/6
f  1/10/1 6/9/6 7/11/7
f  1/12/1 7/11/7 8/13/8
f  1/14/1 8/13/8 9/15/9
f  1/16/1 9/15/9 2/17/2
f  10/18/10 3/3/3 2/2/2
f  3/3/3 10/18/10 11/19/11
f  4/5/4 3/3/3 11/19/11
f  4/5/4 12/20/12 13/21/13
f  14/22/14 5/7/5 4/5/4
f  5/7/5 14/22/14 15/23/15
f  6/9/6 5/7/5 15/23/15
f  16/24/16 7/11/7 6/9/6
f  7/11/7 16/24/16 17/25/17
f  18/26/18 8/13/8 7/11/7
f  8/13/8 18/26/18 19/27/19
f  9/15/9 8/13/8 19/27/19
f  9/15/9 20/28/20 21/29/21
f  2/17/2 9/15/9 21/29/21
f  22/30/22 10/18/10 23/31/23
f  11/19/11 10/18/10 22/30/22
f  24/32/24 12/20/12 11/19/11
f  25/33/25 13/21/13 12/20/12
f  26/34/26 14/22/14 13/21/13
f  27/35/27 15/23/15 14/22/14
f  28/36/28 29/37/29 15/23/15
f  16/24/16 29/37/29 28/36/28
f  17/25/17 16/24/16 30/38/30
f  31/39/31 18/26/18 17/25/17
f  32/40/32 19/27/19 18/26/18
f  20/28/20 19/27/19 32/40/32
f  33/41/33 21/29/21 20/28/20
f  23/42/23 21/29/21 33/41/33
f  34/43/34 35/44/35 22/30/22
f  36/45/36 37/46/37 22/30/22
f  38/47/38 24/32/24 37/46/37
f  39/48/39 25/33/25 24/32/24
f  40/49/40 26/34/26 25/33/25
f  40/49/40 41/50/41 27/35/27
f  41/50/41 42/51/42 28/36/28
f  43/52/43 30/38/30 28/36/28
f  44/53/44 45/54/45 30/38/30
f  44/53/44 46/55/46 31/39/31
f  46/55/46 47/56/47 32/40/32
f  48/57/48 49/58/49 32/40/32
f  50/59/50 33/41/33 49/58/49
f  34/60/34 51/61/51 33/41/33
f  52/62/52 53/63/53 54/64/54
f  55/65/55 56/66/56 52/62/52
f  57/67/57 56/66/56 55/65/55
f  58/68/58 59/69/59 57/67/57
f  60/70/60 61/71/61 59/69/59
f  62/72/62 61/71/61 60/70/60
f  63/73/63 64/74/64 62/72/62
f  65/75/65 64/74/64 63/73/63
f  66/76/66 67/77/67 65/75/65
f  68/78/68 67/77/67 66/76/66
f  69/79/69 68/78/68 70/80/70
f  71/81/71 72/82/72 69/79/69
f  73/83/73 74/84/74 72/82/72
f  54/85/54 53/86/53 74/84/74
f  75/87/75 54/64/54 76/88/76
f  75/87/75 77/89/77 55/65/55
f  78/90/78 55/65/55 77/89/77
f  78/90/78 79/91/79 58/68/58
f  80/92/80 60/70/60 58/68/58
f  60/70/60 80/92/80 81/93/81
f  82/94/82 63/73/63 81/93/81
f  83/95/83 63/73/63 82/94/82
f  83/95/83 84/96/84 66/76/66
f  85/97/85 70/80/70 66/76/66
f  70/80/70 85/97/85 86/98/86
f  87/99/87 71/81/71 86/98/86
f  71/81/71 87/99/87 73/83/73
f  76/100/76 54/85/54 73/83/73
f  88/101/88 77/89/77 76/88/76
f  88/102/88 79/91/79 77/89/77
f  88/103/88 80/92/80 79/91/79
f  88/104/88 82/94/82 80/92/80
f  88/105/88 84/96/84 82/94/82
f  88/106/88 85/97/85 84/96/84
f  88/107/88 87/99/87 85/97/85
f  88/108/88 76/100/76 87/99/87
f  52/62/52 35/44/35 34/43/34
f  52/62/52 56/66/56 36/45/36
f  57/67/57 38/47/38 36/45/36
f  59/69/59 39/48/39 38/47/38
f  59/69/59 61/71/61 40/49/40
f  61/71/61 62/72/62 41/50/41
f  64/74/64 42/51/42 41/50/41
f  64/74/64 65/75/65 43/52/43
f  65/75/65 67/77/67 44/53/44
f  67/77/67 68/78/68 46/55/46
f  68/78/68 69/79/69 47/56/47
f  69/79/69 72/82/72 48/57/48
f  72/82/72 74/84/74 50/59/50
f  74/84/74 53/86/53 34/60/34
f  23/31/23 10/18/10 2/2/2
f  12/20/12 4/5/4 11/19/11
f  13/21/13 14/22/14 4/5/4
f  29/37/29 6/9/6 15/23/15
f  29/37/29 16/24/16 6/9/6
f  17/25/17 18/26/18 7/11/7
f  20/28/20 9/15/9 19/27/19
f  23/42/23 2/17/2 21/29/21
f  51/109/51 22/30/22 23/31/23
f  37/46/37 11/19/11 22/30/22
f  37/46/37 24/32/24 11/19/11
f  24/32/24 25/33/25 12/20/12
f  25/33/25 26/34/26 13/21/13
f  26/34/26 27/35/27 14/22/14
f  27/35/27 28/36/28 15/23/15
f  30/38/30 16/24/16 28/36/28
f  45/54/45 17/25/17 30/38/30
f  45/54/45 31/39/31 17/25/17
f  31/39/31 32/40/32 18/26/18
f  49/58/49 20/28/20 32/40/32
f  49/58/49 33/41/33 20/28/20
f  51/61/51 23/42/23 33/41/33
f  51/109/51 34/43/34 22/30/22
f  35/44/35 36/45/36 22/30/22
f  36/45/36 38/47/38 37/46/37
f  38/47/38 39/48/39 24/32/24
f  39/48/39 40/49/40 25/33/25
f  26/34/26 40/49/40 27/35/27
f  27/35/27 41/50/41 28/36/28
f  42/51/42 43/52/43 28/36/28
f  43/52/43 44/53/44 30/38/30
f  45/54/45 44/53/44 31/39/31
f  31/39/31 46/55/46 32/40/32
f  47/56/47 48/57/48 32/40/32
f  48/57/48 50/59/50 49/58/49
f  50/59/50 34/60/34 33/41/33
f  75/87/75 52/62/52 54/64/54
f  75/87/75 55/65/55 52/62/52
f  78/90/78 57/67/57 55/65/55
f  78/90/78 58/68/58 57/67/57
f  58/68/58 60/70/60 59/69/59
f  81/93/81 62/72/62 60/70/60
f  81/93/81 63/73/63 62/72/62
f  83/95/83 65/75/65 63/73/63
f  83/95/83 66/76/66 65/75/65
f  70/80/70 68/78/68 66/76/66
f  86/98/86 69/79/69 70/80/70
f  86/98/86 71/81/71 69/79/69
f  71/81/71 73/83/73 72/82/72
f  73/83/73 54/85/54 74/84/74
f  77/89/77 75/87/75 76/88/76
f  79/91/79 78/90/78 77/89/77
f  79/91/79 80/92/80 58/68/58
f  80/92/80 82/94/82 81/93/81
f  84/96/84 83/95/83 82/94/82
f  84/96/84 85/97/85 66/76/66
f  85/97/85 87/99/87 86/98/86
f  87/99/87 76/100/76 73/83/73
f  53/63/53 52/62/52 34/43/34
f  35/44/35 52/62/52 36/45/36
f  56/66/56 57/67/57 36/45/36
f  57/67/57 59/69/59 38/47/38
f  39/48/39 59/69/59 40/49/40
f  40/49/40 61/71/61 41/50/41
f  62/72/62 64/74/64 41/50/41
f  42/51/42 64/74/64 43/52/43
f  43/52/43 65/75/65 44/53/44
f  44/53/44 67/77/67 46/55/46
f  46/55/46 68/78/68 47/56/47
f  47/56/47 69/79/69 48/57/48
f  48/57/48 72/82/72 50/59/50
f  50/59/50 74/84/74 34/60/34

