# File produced by Open Asset Import Library (http://www.assimp.sf.net)
# (assimp v4.1.0)

mtllib ezqw9wwlx81b.mtl

# 52 vertex positions
v  0.05600947886705399 -0.003476754762232304 -0.009476752020418644
v  -0.05303306505084038 0.01568981818854809 -0.01075754407793283
v  -0.05446597561240196 -0.009212863631546497 -0.00983090978115797
v  0.0524975098669529 0.02293526381254196 -0.01262616273015738
v  0.01634350977838039 0.0635673850774765 -0.02172048762440681
v  -0.001610328210517764 0.0660705491900444 -0.02246326953172684
v  0.02912680432200432 -0.02579859457910061 -0.1767235100269318
v  0.009077186696231365 -0.02394110150635242 -0.1895608007907867
v  0.01108153536915779 0.03072896227240562 -0.1873239427804947
v  0.04809338599443436 -0.00890548899769783 -0.1177807301282883
v  0.03856875002384186 -0.02499160543084145 -0.1583042144775391
v  0.03945063799619675 0.02397095039486885 -0.1540010571479797
v  0.03010422363877296 -0.04192612320184708 -0.1607741713523865
v  -0.01829174160957336 0.06310515850782394 -0.02293751388788223
v  -0.04364652931690216 -0.01963005401194096 -0.132570892572403
v  -0.02950709126889706 -0.04254889488220215 -0.1621878296136856
v  -0.04069457575678825 -0.03934677690267563 -0.07772424817085266
v  -0.03391238674521446 -0.02509906701743603 -0.1716547906398773
v  -0.01687188073992729 0.02598230168223381 -0.1870643496513367
v  -0.01463619992136955 -0.02252819947898388 -0.1867450028657913
v  -0.008954667486250401 -0.0488646887242794 -0.1773509085178375
v  -0.005341925192624331 -0.06613567471504211 -0.02185124903917313
v  0.04865895584225655 -0.03215795755386353 -0.01521260105073452
v  0.03454013913869858 0.05373541638255119 -0.0214152280241251
v  0.01025382988154888 0.05908975005149841 -0.1007901728153229
v  -0.01166960038244724 0.05525330081582069 -0.135901004076004
v  -0.02820068597793579 0.05357308313250542 -0.09731364995241165
v  -0.03961436450481415 0.03918496146798134 -0.09954441338777542
v  -0.04412340000271797 0.03997740149497986 -0.01805970072746277
v  -0.03516972810029984 0.05271779373288155 -0.02142589725553989
v  -0.0304239746183157 0.04123526439070702 -0.1610476523637772
v  0.03211940079927444 0.0240883007645607 -0.1735759973526001
v  -0.03139374777674675 -0.05223824828863144 -0.07279259711503983
v  -0.02684765495359898 -0.05926103889942169 -0.02179456129670143
v  -0.04613249376416206 -0.03766230866312981 -0.01673904620110989
v  0.01752228662371635 -0.06393668055534363 -0.02210449054837227
v  0.01634494960308075 -0.05645874887704849 -0.1132149994373322
v  -0.0005421547684818506 -0.05885446444153786 -0.1082422956824303
v  0.01364065706729889 -0.05045511201024055 -0.1701054871082306
v  -0.04981832206249237 -0.01356790494173765 -0.07569169998168945
v  0.05023618414998055 0.009464357979595661 -0.08893648535013199
v  0.04105200991034508 0.03746884688735008 -0.0969969779253006
v  -0.04938694834709167 0.01834559999406338 -0.06751944869756699
v  0.02756552770733833 0.04387152194976807 -0.1633632779121399
v  0.01531306374818087 0.05056753009557724 -0.1665891110897064
v  0.03496994823217392 -0.05320711433887482 -0.02079033479094505
v  0.03165127336978912 -0.04816081747412682 -0.1170591339468956
v  -0.04602684453129768 0.01450064405798912 -0.1272594481706619
v  0.0303766243159771 0.05238950252532959 -0.07921115309000015
v  -0.01270228065550327 0.05022091418504715 -0.1737784594297409
v  -0.02115344069898129 -0.05430766940116882 -0.1212197840213776
v  -0.03638869896531105 0.02305920049548149 -0.1666370034217834

# 0 UV coordinates

# 100 vertex normals
vn -0.005149496253579855 0.03747988864779472 0.9992840886116028
vn 0.009365800768136978 0.1196254044771194 0.9927749037742615
vn -0.007641371805220842 0.2337035983800888 0.9722778797149658
vn 0.002151069929823279 0.2202388346195221 0.9754436016082764
vn 0.5401216745376587 0.01462654210627079 -0.8414598107337952
vn 0.9732324481010437 0.002667660126462579 -0.2298074215650558
vn 0.8371427655220032 -0.3581348955631256 -0.413438469171524
vn -0.08088734745979309 0.3031714260578156 0.949496865272522
vn -0.900621235370636 -0.4221533238887787 -0.1032859534025192
vn -0.9248061180114746 -0.333141028881073 -0.1837135702371597
vn -0.6133064031600952 -0.03346008434891701 -0.7891360521316528
vn -0.1311054527759552 -0.3580329716205597 -0.9244586229324341
vn 0.006305481772869825 -0.2013963460922241 0.9794895648956299
vn 0.007130737882107496 -0.1978551745414734 0.9802052974700928
vn 0.1829641461372375 0.3669407367706299 0.9120737910270691
vn 0.1404873132705688 0.9878291487693787 -0.06675960868597031
vn -0.2913470268249512 0.9529820680618286 -0.08331914246082306
vn -0.8233919143676758 0.5651713609695435 -0.05105948820710182
vn -0.112407423555851 0.3236887156963348 0.9394627213478088
vn -0.1204324662685394 0.3318407237529755 0.9356162548065186
vn -0.7769359946250916 0.6262884140014648 -0.06429024040699005
vn -0.7727354764938354 0.6276471614837646 -0.09454581141471863
vn 0.5512521862983704 0.01955813355743885 -0.8341094255447388
vn 0.8900604248046875 -0.0246743094176054 -0.4551742970943451
vn 0.9364127516746521 0.01394893322139978 -0.3506231307983398
vn -0.7485533952713013 -0.662621021270752 -0.0245196744799614
vn 0.03417199477553368 -0.2436845004558563 0.969252347946167
vn 0.1079636588692665 -0.9881162643432617 -0.1094076856970787
vn 0.09457960724830627 -0.9924262762069702 -0.07838895171880722
vn 0.1160548254847527 -0.9897907972335815 -0.08273714780807495
vn 0.6090250015258789 -0.5387527346611023 -0.5820945501327515
vn 0.4409155249595642 -0.4804216325283051 -0.7581481337547302
vn 0.2190085500478745 -0.5524507164955139 -0.8042595982551575
vn -0.05367137491703033 -0.2504431009292603 0.966642439365387
vn -0.09565325826406479 -0.3070372641086578 0.9468783140182495
vn -0.9422207474708557 -0.3281707167625427 -0.06726134568452835
vn -0.9418922066688538 -0.3274488747119904 -0.07494203746318817
vn -0.9616857767105103 -0.2695485353469849 -0.05004020407795906
vn -0.01631981879472733 0.04147326201200485 -0.9990063309669495
vn -0.1186112612485886 -0.01200247742235661 -0.9928682446479797
vn 0.9846143126487732 0.1047553271055222 -0.1398604512214661
vn 0.9536895751953125 0.2855904102325439 -0.09441573172807693
vn 0.8674101829528809 0.4965551197528839 -0.03213454782962799
vn -0.1723244339227676 0.9819190502166748 -0.078353151679039
vn -0.9421703219413757 0.3321020007133484 -0.04498214647173882
vn -0.9339020252227783 0.3532554805278778 -0.0551137886941433
vn -0.5262521505355835 0.8494449853897095 -0.03875397518277168
vn 0.8714954853057861 0.3679643571376801 -0.3241879343986511
vn 0.8772661685943604 0.4609792828559875 -0.1337988525629044
vn 0.4882355332374573 0.5786585211753845 -0.6532842516899109
vn 0.5815449357032776 0.4748575687408447 -0.6605420112609863
vn -0.7996870279312134 -0.5979118347167969 -0.05479146912693977
vn -0.7930487990379333 -0.6035920977592468 -0.08215905725955963
vn 0.1361309140920639 -0.3355348408222198 0.9321398735046387
vn 0.4509955048561096 -0.8851068019866943 -0.1148431673645973
vn 0.5164249539375305 -0.8450100421905518 -0.1387923806905746
vn -0.9933410286903381 -0.05338877812027931 -0.1020943522453308
vn 0.9973448514938354 -0.002034935401752591 -0.07279536128044128
vn 0.969779908657074 -0.2367362827062607 -0.05901620164513588
vn 0.8437923789024353 -0.5336277484893799 -0.05706019699573517
vn 0.9537482261657715 0.2899196445941925 -0.0794416144490242
vn 0.7697603106498718 0.6344582438468933 -0.0702270045876503
vn 0.7554431557655334 0.6488759517669678 -0.09091554582118988
vn 0.4265183508396149 0.9005840420722961 -0.08384814858436584
vn -0.02584121003746986 0.9953656792640686 -0.09262503683567047
vn 0.02863544411957264 0.9915878772735596 -0.1262278258800507
vn -0.9965910315513611 0.05505805462598801 -0.06144024059176445
vn -0.9968565702438354 0.03203070536255836 -0.07246404141187668
vn -0.9979173541069031 0.02832877263426781 -0.05795160681009293
vn -0.09136907756328583 0.4906886219978333 -0.8665312528610229
vn 0.1708232909440994 0.6942838430404663 -0.6991347074508667
vn 0.02167804539203644 0.990979015827179 -0.1322521865367889
vn -0.02475723810493946 -0.9898322820663452 -0.140068382024765
vn -0.5133266448974609 -0.8551673889160156 -0.07200337946414948
vn -0.6188101768493652 -0.7794608473777771 -0.09754383563995361
vn -0.1591155827045441 -0.9829930663108826 -0.09168887138366699
vn -0.4049147963523865 -0.897446870803833 -0.1750232130289078
vn -0.1378832310438156 -0.9824987053871155 -0.1252376139163971
vn -0.5369331240653992 -0.3838038742542267 -0.7512639164924622
vn -0.6097976565361023 -0.4913332462310791 -0.6218829751014709
vn 0.526222825050354 -0.8480398654937744 -0.0625937283039093
vn 0.4598053097724915 -0.8845396637916565 -0.07854059338569641
vn -0.7250629067420959 0.03438394144177437 -0.6878237128257751
vn -0.9247249364852905 0.3496906161308289 -0.1503340303897858
vn -0.9418264627456665 0.3278353214263916 -0.07407344132661819
vn -0.9173682928085327 0.3780748546123505 -0.1244780719280243
vn 0.9352095127105713 -0.3441852033138275 -0.08318453282117844
vn 0.8959499001502991 -0.4341742098331451 -0.0936296209692955
vn 0.9032897353172302 -0.4205752313137054 -0.08475946635007858
vn 0.9907426834106445 0.1255931854248047 -0.05152967199683189
vn 0.4978730976581573 0.8610174655914307 -0.1037846580147743
vn 0.3832916915416718 0.9196842312812805 -0.08525464683771133
vn 0.475364089012146 0.8780875205993652 -0.05469270795583725
vn -0.6880817413330078 0.4099265933036804 -0.5987517833709717
vn -0.5276955366134644 0.8371973633766174 -0.1436591148376465
vn -0.6602550148963928 0.4451448321342468 -0.6049044132232666
vn -0.3586939871311188 0.9265509843826294 -0.1133219376206398
vn -0.3040021955966949 -0.9504674673080444 -0.06476294249296188
vn -0.96978759765625 -0.02457796782255173 -0.2427094876766205
vn -0.9708989858627319 -0.03075065277516842 -0.2375068515539169

# Mesh '<STL_BINARY>' with 100 faces
g <STL_BINARY>
usemtl DefaultMaterial
f  1//1 2//1 3//1
f  1//2 4//2 2//2
f  2//3 5//3 6//3
f  4//4 5//4 2//4
f  7//5 8//5 9//5
f  10//6 11//6 12//6
f  7//7 11//7 13//7
f  14//8 2//8 6//8
f  15//9 16//9 17//9
f  15//10 18//10 16//10
f  18//11 19//11 20//11
f  21//12 20//12 8//12
f  22//13 23//13 3//13
f  3//14 23//14 1//14
f  4//15 24//15 5//15
f  5//16 25//16 6//16
f  14//17 26//17 27//17
f  28//18 29//18 30//18
f  14//19 29//19 2//19
f  30//20 29//20 14//20
f  30//21 27//21 28//21
f  28//22 27//22 31//22
f  9//23 32//23 7//23
f  7//24 32//24 11//24
f  11//25 32//25 12//25
f  33//26 34//26 35//26
f  36//27 23//27 22//27
f  37//28 38//28 39//28
f  38//29 36//29 22//29
f  36//30 38//30 37//30
f  7//31 13//31 39//31
f  7//32 39//32 8//32
f  8//33 39//33 21//33
f  3//34 35//34 22//34
f  22//35 35//35 34//35
f  17//36 40//36 15//36
f  35//37 40//37 17//37
f  35//38 3//38 40//38
f  9//39 8//39 19//39
f  20//40 19//40 8//40
f  10//41 12//41 41//41
f  12//42 42//42 41//42
f  4//43 42//43 24//43
f  26//44 14//44 6//44
f  29//45 43//45 2//45
f  43//46 29//46 28//46
f  14//47 27//47 30//47
f  32//48 44//48 12//48
f  42//49 12//49 44//49
f  44//50 9//50 45//50
f  9//51 44//51 32//51
f  33//52 35//52 17//52
f  33//53 17//53 16//53
f  36//54 46//54 23//54
f  39//55 47//55 37//55
f  39//56 13//56 47//56
f  48//57 15//57 40//57
f  1//58 10//58 41//58
f  1//59 23//59 10//59
f  47//60 23//60 46//60
f  42//61 4//61 41//61
f  42//62 49//62 24//62
f  44//63 49//63 42//63
f  45//64 25//64 5//64
f  25//65 26//65 6//65
f  26//66 25//66 45//66
f  2//67 43//67 3//67
f  40//68 3//68 43//68
f  48//69 40//69 43//69
f  9//70 19//70 50//70
f  9//71 50//71 45//71
f  26//72 45//72 50//72
f  21//73 39//73 38//73
f  33//74 51//74 34//74
f  16//75 51//75 33//75
f  51//76 38//76 22//76
f  21//77 51//77 16//77
f  38//78 51//78 21//78
f  21//79 18//79 20//79
f  18//80 21//80 16//80
f  46//81 36//81 47//81
f  47//82 36//82 37//82
f  19//83 18//83 52//83
f  31//84 52//84 48//84
f  28//85 48//85 43//85
f  48//86 28//86 31//86
f  23//87 11//87 10//87
f  47//88 13//88 11//88
f  11//89 23//89 47//89
f  4//90 1//90 41//90
f  44//91 45//91 49//91
f  5//92 49//92 45//92
f  49//93 5//93 24//93
f  19//94 52//94 31//94
f  27//95 50//95 31//95
f  50//96 19//96 31//96
f  26//97 50//97 27//97
f  34//98 51//98 22//98
f  52//99 18//99 48//99
f  15//100 48//100 18//100

