# File produced by Open Asset Import Library (http://www.assimp.sf.net)
# (assimp v4.1.0)

mtllib vddicfzdnqsx.mtl

# 52 vertex positions
v  -0.01037009060382843 -0.003860666649416089 -0.006311062723398209
v  -0.0197372417896986 -0.07032332569360733 -0.00794780720025301
v  -0.03164036199450493 -0.08573952317237854 0.0006705812993459404
v  -0.04815374314785004 -0.1260273903608322 -0.002897381549701095
v  -0.08942581713199615 -0.1752843707799911 -0.004033538978546858
v  -0.1332197487354279 -0.2125889509916306 0.006579540204256773
v  -0.06178809329867363 -0.145478218793869 0.004114114213734865
v  -0.01345916837453842 -0.02178613096475601 0.003645929042249918
v  -0.02266076765954494 -0.07965618371963501 0.00761311361566186
v  -0.09485264867544174 -0.1864400804042816 0.007208242546766996
v  -0.02040030620992184 0.07245631515979767 0.007806392852216959
v  -0.01206492725759745 0.01100188307464123 0.003351389430463314
v  -0.00980469211935997 -0.0009067013161256909 0.008942701853811741
v  -0.1289794594049454 -0.2217250466346741 0.007670825812965631
v  -0.08059054613113403 -0.1855628937482834 0.00748006533831358
v  -0.05177896842360497 -0.1375984102487564 0.008657378144562244
v  -0.04766790196299553 -0.1486049443483353 0.00757789658382535
v  -0.008835548534989357 -0.06691429018974304 0.007940695621073246
v  -0.00412915600463748 0.04339474067091942 0.007485527079552412
v  -0.0327775627374649 0.1198350340127945 0.008525867946445942
v  -0.04917579889297485 0.13530233502388 0.007417860440909863
v  -0.06022704765200615 0.1649362742900848 0.007389049045741558
v  -0.09105134010314941 0.1828154176473618 0.007215147372335196
v  -0.1061474829912186 0.2078307867050171 0.007353988010436296
v  -0.1339025050401688 0.2132113724946976 0.008696503937244415
v  -0.0004320964799262583 -0.007468107622116804 0.006349282339215279
v  -0.0193946361541748 0.101617269217968 0.001778796198777854
v  -0.100964829325676 -0.2050442844629288 -0.001484115258790553
v  -0.01928654871881008 -0.1013200581073761 -0.002208858262747526
v  -0.08879971504211426 0.1944521963596344 -0.00711025670170784
v  -0.1284316629171371 0.2228841185569763 0.002123166341334581
v  -0.04816773161292076 0.1495579779148102 -0.00715851504355669
v  -0.01223058346658945 0.0758238211274147 -0.007911929860711098
v  -0.001427087001502514 0.03397254645824432 -0.004145187791436911
v  -0.003163271583616734 -0.03928868472576141 -0.007570948917418718
v  -0.06281998008489609 -0.1679297536611557 -0.008077003061771393
v  -0.1288119852542877 -0.2221094220876694 -0.006977955345064402
v  -0.0327719934284687 -0.1197623088955879 -0.00854536984115839
v  -0.004225408658385277 -0.00715712970122695 -0.008849337697029114
v  -0.1276910603046417 0.2184635847806931 -0.008525327779352665
v  -0.02770738489925861 0.09449601918458939 -0.008749334141612053
v  -0.1333755850791931 0.2127657532691956 -0.004609513562172651
v  -0.08135188370943069 0.1747429668903351 -0.007971416227519512
v  -0.05442983657121658 -0.1412887722253799 -0.008716486394405365
v  -0.09634184092283249 -0.1871750354766846 -0.008705688640475273
v  -0.1332208961248398 -0.2135643512010574 -0.008176294155418873
v  -0.05983337387442589 0.1420912593603134 -0.003270745743066072
v  -0.03947778418660164 0.1151618659496307 -0.004218763671815395
v  -0.02974993549287319 0.08085613697767258 0.003419456537812948
v  -0.01473446469753981 0.02652147598564625 -0.00297449016943574
v  -0.05079489201307297 0.1268048584461212 0.003453137120231986
v  -0.1158686876296997 0.1981713026762009 0.003305222373455763

# 0 UV coordinates

# 100 vertex normals
vn -0.6745858192443848 0.1130399629473686 -0.7294901609420776
vn -0.8100612759590149 0.372158944606781 -0.4530987441539764
vn -0.6602172255516052 0.6919990181922913 -0.2919769585132599
vn -0.7421081066131592 0.6156960129737854 0.264941394329071
vn -0.9489168524742126 0.2615552842617035 0.1764812171459198
vn -0.7812087535858154 0.3650538623332977 -0.5064074993133545
vn -0.6681767106056213 0.1561115384101868 0.7274400591850281
vn -0.7141819000244141 0.3937767148017883 0.5786917209625244
vn -0.1464176625013351 0.1914981007575989 0.9705103635787964
vn -0.9851377010345459 -0.1407558619976044 0.09844554960727692
vn -0.07382569462060928 0.08442973345518112 0.9936907887458801
vn -0.02110530249774456 0.03351220488548279 0.9992154240608215
vn -0.01821796037256718 -0.01359590236097574 0.9997416138648987
vn 0.07508230954408646 -0.06951754540205002 0.9947512149810791
vn 0.1312247514724731 -0.04809986799955368 0.9901850819587708
vn -0.009572735987603664 -0.01531824003905058 0.9998368620872498
vn 0.06370743364095688 0.02465375885367393 0.9976640343666077
vn -0.01387465931475163 -0.01880609802901745 0.9997268915176392
vn -0.1079322397708893 -0.04327890276908875 0.993215799331665
vn -0.1022086888551712 -0.03714973852038383 0.9940690398216248
vn -0.006479167845100164 -0.001444024499505758 0.9999779462814331
vn -0.01363053638488054 -0.01377485506236553 0.9998121857643127
vn 0.05346446111798286 0.02672415971755981 0.9982120990753174
vn 0.2596050202846527 -0.01084718853235245 0.9656539559364319
vn 0.2652095258235931 -0.002262128982692957 0.9641881585121155
vn -0.03486098721623421 0.01213336363434792 0.999318540096283
vn 0.8215230703353882 0.5065901875495911 0.2616604864597321
vn 0.5611205101013184 -0.748981773853302 0.3523777425289154
vn 0.7962444424629211 -0.3805901408195496 0.4702615141868591
vn 0.6823589205741882 0.2463685125112534 0.6882505416870117
vn 0.5700165033340454 0.8183586597442627 -0.07328216731548309
vn 0.6757199764251709 0.7235029935836792 0.1412298828363419
vn 0.7380626797676086 0.6680929064750671 -0.09442123770713806
vn 0.8380327224731445 0.5283558964729309 0.1361662894487381
vn 0.9665650725364685 0.2531718313694 0.04069340229034424
vn 0.9667198657989502 0.2552145719528198 0.01783748529851437
vn 0.9825075268745422 0.06753849238157272 0.1735441237688065
vn 0.9874626994132996 -0.01605838909745216 -0.1570337563753128
vn 0.9837082624435425 -0.1359091401100159 0.1176724582910538
vn 0.9595757126808167 -0.2589467465877533 -0.1102772280573845
vn 0.833548903465271 -0.5314997434616089 -0.1506791263818741
vn 0.7429560422897339 -0.662095308303833 0.09821449965238571
vn 0.6954737305641174 -0.7182812094688416 -0.01970752701163292
vn 0.5182244181632996 -0.854774534702301 0.02835345454514027
vn 0.4996270835399628 -0.6208113431930542 -0.6041241884231567
vn 0.8205378651618958 -0.5142962336540222 -0.2494333386421204
vn 0.6555488705635071 -0.2324969321489334 -0.7184712290763855
vn 0.8362199664115906 0.005824764724820852 -0.5483632683753967
vn 0.5299844145774841 0.06068270653486252 -0.8458333611488342
vn 0.797501802444458 0.3933669924736023 -0.4574421346187592
vn 0.5090807676315308 0.8069058060646057 -0.2995660901069641
vn 0.1585905253887177 0.08734424412250519 -0.9834734797477722
vn -0.2947536706924438 -0.3237976133823395 -0.8990413546562195
vn 0.08213271945714951 0.07446064054965973 -0.9938359260559082
vn 0.08036012947559357 0.07379928976297379 -0.9940301179885864
vn 0.06443383544683456 0.05273393541574478 -0.9965276718139648
vn 0.03071462363004684 -0.01935969479382038 -0.9993407130241394
vn -0.394286721944809 -0.02766006253659725 -0.9185711145401001
vn 0.09112672507762909 -0.03658153116703033 -0.9951671957969666
vn 0.000208117620786652 0.01203112583607435 -0.9999275803565979
vn -0.005572500173002481 0.01355478167533875 -0.9998925924301147
vn 0.04614660516381264 -0.03849348798394203 -0.9981927275657654
vn 0.03965863585472107 -0.03645873069763184 -0.9985479116439819
vn 0.1474747657775879 -0.2254153192043304 -0.9630364179611206
vn 0.0686400905251503 -0.1037328168749809 -0.9922338724136353
vn -0.347558468580246 0.07200746238231659 -0.9348893165588379
vn -0.2946256399154663 -0.3236128389835358 -0.8991498351097107
vn -0.4548597931861877 -0.314491480588913 -0.8331852555274963
vn -0.9630516767501831 -0.2685423791408539 0.02040768414735794
vn -0.9519692063331604 -0.2408258765935898 -0.1890965700149536
vn -0.8765645027160645 -0.4016693234443665 0.2651346325874329
vn -0.6495258808135986 -0.5932404398918152 -0.4755858182907104
vn -0.6799211502075195 -0.7035974860191345 0.206537589430809
vn -0.5153167843818665 -0.1312880218029022 0.8468837141990662
vn -0.563531756401062 -0.2586780488491058 0.7845492959022522
vn -0.3227717280387878 -0.2924460470676422 0.9001631736755371
vn -0.5960919260978699 -0.268255740404129 0.7567782402038574
vn -0.3795316219329834 -0.3308129906654358 0.8640130162239075
vn -0.66737961769104 0.5745053887367249 0.4738649725914001
vn -0.5828706026077271 0.3064777851104736 0.7525511384010315
vn -0.9858795404434204 0.1601199358701706 0.0490223728120327
vn -0.9851617813110352 0.1715969890356064 0.003285575890913606
vn -0.9588323831558228 -0.1632529050111771 0.2323551326990128
vn -0.9875344038009644 -0.1478031426668167 0.05412932112812996
vn -0.3850001096725464 0.5227795839309692 -0.7605763673782349
vn -0.6267239451408386 0.5723182559013367 -0.528837263584137
vn -0.5618916749954224 0.4862411022186279 -0.6692139506340027
vn -0.8821210861206055 0.4332410991191864 -0.1848366409540176
vn -0.9855438470840454 -0.1557424962520599 0.06669061630964279
vn -0.5311293601989746 -0.7663778066635132 0.3613400459289551
vn -0.6404195427894592 -0.7680252194404602 0.0003605103120207787
vn -0.7381749153137207 -0.5439291596412659 -0.399047464132309
vn -0.7724462747573853 -0.5199102759361267 0.3647190928459167
vn -0.615692675113678 -0.1826261729001999 -0.7665312886238098
vn -0.9070952534675598 -0.4209249317646027 0.0006743362173438072
vn -0.8899945020675659 -0.4549737870693207 0.03014419227838516
vn -0.7697340250015259 0.5688521862030029 -0.2896838784217834
vn -0.8836473226547241 0.4654128849506378 -0.0505792461335659
vn 0.1385831236839294 0.5018318295478821 0.8537912964820862
vn -0.6546158194541931 0.7543188333511353 -0.04981159418821335

# Mesh '<STL_BINARY>' with 100 faces
g <STL_BINARY>
usemtl DefaultMaterial
f  1//1 2//1 3//1
f  3//2 2//2 4//2
f  5//3 6//3 7//3
f  5//4 7//4 4//4
f  3//5 8//5 1//5
f  4//6 7//6 3//6
f  9//7 8//7 3//7
f  3//8 7//8 9//8
f  10//9 7//9 6//9
f  11//10 12//10 13//10
f  6//11 14//11 10//11
f  10//12 14//12 15//12
f  10//13 15//13 16//13
f  16//14 15//14 17//14
f  16//15 17//15 9//15
f  9//16 18//16 13//16
f  11//17 13//17 19//17
f  11//18 19//18 20//18
f  11//19 20//19 21//19
f  21//20 20//20 22//20
f  21//21 22//21 23//21
f  23//22 22//22 24//22
f  23//23 24//23 25//23
f  18//24 26//24 13//24
f  13//25 26//25 19//25
f  9//26 17//26 18//26
f  20//27 27//27 22//27
f  15//28 14//28 28//28
f  17//29 29//29 18//29
f  20//30 19//30 27//30
f  30//31 31//31 24//31
f  30//32 24//32 22//32
f  30//33 22//33 32//33
f  32//34 22//34 27//34
f  33//35 27//35 34//35
f  34//36 27//36 19//36
f  34//37 19//37 26//37
f  34//38 26//38 35//38
f  35//39 26//39 18//39
f  35//40 18//40 29//40
f  29//41 17//41 36//41
f  36//42 17//42 15//42
f  36//43 15//43 28//43
f  37//44 28//44 14//44
f  28//45 37//45 36//45
f  36//46 38//46 29//46
f  29//47 38//47 35//47
f  35//48 39//48 34//48
f  34//49 39//49 33//49
f  27//50 33//50 32//50
f  30//51 40//51 31//51
f  33//52 41//52 32//52
f  42//53 40//53 43//53
f  43//54 40//54 30//54
f  43//55 30//55 32//55
f  43//56 32//56 41//56
f  41//57 33//57 1//57
f  1//58 33//58 39//58
f  2//59 39//59 35//59
f  2//60 35//60 38//60
f  2//61 38//61 44//61
f  44//62 38//62 36//62
f  44//63 36//63 45//63
f  45//64 36//64 46//64
f  46//65 36//65 37//65
f  39//66 2//66 1//66
f  42//67 43//67 47//67
f  47//68 48//68 49//68
f  49//69 48//69 50//69
f  50//70 12//70 49//70
f  49//71 51//71 47//71
f  47//72 51//72 52//72
f  47//73 52//73 42//73
f  11//74 49//74 12//74
f  51//75 49//75 21//75
f  52//76 51//76 23//76
f  49//77 11//77 21//77
f  51//78 21//78 23//78
f  7//79 10//79 16//79
f  7//80 16//80 9//80
f  8//81 9//81 13//81
f  8//82 13//82 1//82
f  50//83 41//83 1//83
f  50//84 1//84 12//84
f  45//85 46//85 5//85
f  45//86 5//86 44//86
f  44//87 5//87 4//87
f  44//88 4//88 2//88
f  1//89 13//89 12//89
f  52//90 23//90 25//90
f  52//91 25//91 42//91
f  47//92 43//92 48//92
f  48//93 43//93 41//93
f  48//94 41//94 50//94
f  14//95 6//95 37//95
f  37//96 6//96 46//96
f  31//97 40//97 42//97
f  31//98 42//98 25//98
f  31//99 25//99 24//99
f  6//100 5//100 46//100

