# Blender v3.0.0 OBJ File: 'drawer2blend.blend'
# www.blender.org
mtllib drawerhandle.mtl
o Cube.009_Cube.001
v 0.085000 -0.132000 -0.092000
v 0.085000 -0.122000 -0.092000
v 0.125000 -0.122000 -0.092000
v 0.125000 -0.132000 -0.092000
v 0.085000 -0.132000 -0.002000
v 0.085000 -0.122000 -0.002000
v 0.125000 -0.122000 -0.002000
v 0.125000 -0.132000 -0.002000
v 0.085321 0.125169 -0.092000
v 0.085321 0.135169 -0.092000
v 0.125321 0.135169 -0.092000
v 0.125321 0.125169 -0.092000
v 0.085321 0.125169 -0.002000
v 0.085321 0.135169 -0.002000
v 0.125321 0.135169 -0.002000
v 0.125321 0.125169 -0.002000
v -0.069515 -0.004683 -0.039205
v -0.169515 -0.004683 -0.039205
v -0.169515 0.005317 -0.039205
v -0.069515 0.005317 -0.039205
v -0.069515 -0.004683 -0.029205
v -0.169515 -0.004683 -0.029205
v -0.169515 0.005317 -0.029205
v -0.069515 0.005317 -0.029205
v -0.062715 -0.124540 -0.092000
v -0.072715 -0.124540 -0.092000
v -0.072715 0.125460 -0.092000
v -0.062715 0.125460 -0.092000
v -0.062715 -0.124540 -0.002000
v -0.072715 -0.124540 -0.002000
v -0.072715 0.125460 -0.002000
v -0.062715 0.125460 -0.002000
v -0.072562 -0.124560 -0.092000
v -0.072562 -0.114560 -0.092000
v 0.127438 -0.114560 -0.092000
v 0.127438 -0.124560 -0.092000
v -0.072562 -0.124560 -0.002000
v -0.072562 -0.114560 -0.002000
v 0.127438 -0.114560 -0.002000
v 0.127438 -0.124560 -0.002000
v -0.072562 0.115440 -0.092000
v -0.072562 0.125440 -0.092000
v 0.127438 0.125440 -0.092000
v 0.127438 0.115440 -0.092000
v -0.072562 0.115440 -0.002000
v -0.072562 0.125440 -0.002000
v 0.127438 0.125440 -0.002000
v 0.127438 0.115440 -0.002000
v 0.127438 -0.124534 -0.092000
v 0.117438 -0.124534 -0.092000
v 0.117438 0.125466 -0.092000
v 0.127438 0.125466 -0.092000
v 0.127438 -0.124534 -0.002000
v 0.117438 -0.124534 -0.002000
v 0.117438 0.125466 -0.002000
v 0.127438 0.125466 -0.002000
v 0.127438 -0.124534 -0.087000
v 0.127438 -0.124534 -0.097000
v 0.127438 0.125466 -0.097000
v 0.127438 0.125466 -0.087000
v -0.072562 -0.124534 -0.087000
v -0.072562 -0.124534 -0.097000
v -0.072562 0.125466 -0.097000
v -0.072562 0.125466 -0.087000
vn 0.0000 0.0000 -1.0000
vn 0.0000 0.0000 1.0000
vn -1.0000 0.0000 0.0000
vn 0.0000 1.0000 -0.0000
vn 1.0000 0.0000 -0.0000
vn -0.0000 -1.0000 -0.0000
usemtl Material.005
s off
f 1//1 2//1 3//1 4//1
f 5//2 8//2 7//2 6//2
f 1//3 5//3 6//3 2//3
f 2//4 6//4 7//4 3//4
f 3//5 7//5 8//5 4//5
f 5//6 1//6 4//6 8//6
f 9//1 10//1 11//1 12//1
f 13//2 16//2 15//2 14//2
f 9//3 13//3 14//3 10//3
f 10//4 14//4 15//4 11//4
f 11//5 15//5 16//5 12//5
f 13//6 9//6 12//6 16//6
f 17//1 18//1 19//1 20//1
f 21//2 24//2 23//2 22//2
f 17//6 21//6 22//6 18//6
f 18//3 22//3 23//3 19//3
f 19//4 23//4 24//4 20//4
f 21//5 17//5 20//5 24//5
f 25//1 26//1 27//1 28//1
f 29//2 32//2 31//2 30//2
f 25//6 29//6 30//6 26//6
f 26//3 30//3 31//3 27//3
f 27//4 31//4 32//4 28//4
f 29//5 25//5 28//5 32//5
f 33//1 34//1 35//1 36//1
f 37//2 40//2 39//2 38//2
f 33//3 37//3 38//3 34//3
f 34//4 38//4 39//4 35//4
f 35//5 39//5 40//5 36//5
f 37//6 33//6 36//6 40//6
f 41//1 42//1 43//1 44//1
f 45//2 48//2 47//2 46//2
f 41//3 45//3 46//3 42//3
f 42//4 46//4 47//4 43//4
f 43//5 47//5 48//5 44//5
f 45//6 41//6 44//6 48//6
f 49//1 50//1 51//1 52//1
f 53//2 56//2 55//2 54//2
f 49//6 53//6 54//6 50//6
f 50//3 54//3 55//3 51//3
f 51//4 55//4 56//4 52//4
f 53//5 49//5 52//5 56//5
f 57//5 58//5 59//5 60//5
f 61//3 64//3 63//3 62//3
f 57//6 61//6 62//6 58//6
f 58//1 62//1 63//1 59//1
f 59//4 63//4 64//4 60//4
f 61//2 57//2 60//2 64//2
o Cube.002_Cube.015
v -0.196953 -0.021000 -0.055000
v -0.156953 -0.021000 -0.055000
v -0.156953 -0.021000 -0.015000
v -0.196953 -0.021000 -0.015000
v -0.196953 0.019000 -0.055000
v -0.156953 0.019000 -0.055000
v -0.156953 0.019000 -0.015000
v -0.196953 0.019000 -0.015000
vn 0.0000 -1.0000 0.0000
vn 0.0000 1.0000 0.0000
vn 0.0000 0.0000 -1.0000
vn 1.0000 0.0000 0.0000
vn -0.0000 -0.0000 1.0000
vn -1.0000 0.0000 -0.0000
usemtl Material.001
s off
f 65//7 66//7 67//7 68//7
f 69//8 72//8 71//8 70//8
f 65//9 69//9 70//9 66//9
f 66//10 70//10 71//10 67//10
f 67//11 71//11 72//11 68//11
f 69//12 65//12 68//12 72//12
