# Blender v3.0.0 OBJ File: ''
# www.blender.org
mtllib drawer.mtl
o Cube.002_Cube.015
v 0.079306 -0.132674 -0.092843
v 0.079306 -0.122674 -0.092843
v 0.119306 -0.122674 -0.092843
v 0.119306 -0.132674 -0.092843
v 0.079306 -0.132674 -0.002843
v 0.119306 -0.132674 -0.002843
v 0.119306 -0.122674 -0.002843
v 0.079306 -0.122674 -0.002843
v 0.079627 0.124495 -0.092843
v 0.079627 0.134495 -0.092843
v 0.119627 0.134495 -0.092843
v 0.119627 0.124495 -0.092843
v 0.079627 0.124495 -0.002843
v 0.119627 0.124495 -0.002843
v 0.119627 0.134495 -0.002843
v 0.079627 0.134495 -0.002843
v -0.075209 -0.005357 -0.040048
v -0.175209 -0.005357 -0.040048
v -0.175209 0.004643 -0.040048
v -0.075209 0.004643 -0.040048
v -0.075209 -0.005357 -0.030048
v -0.075209 0.004643 -0.030048
v -0.175209 0.004643 -0.030048
v -0.175209 -0.005357 -0.030048
v -0.068409 -0.125214 -0.092843
v -0.078409 -0.125214 -0.092843
v -0.078409 0.124786 -0.092843
v -0.068409 0.124786 -0.092843
v -0.068409 -0.125214 -0.002843
v -0.068409 0.124786 -0.002843
v -0.078409 0.124786 -0.002843
v -0.078409 -0.125214 -0.002843
v -0.078256 -0.125234 -0.092843
v -0.078256 -0.115234 -0.092843
v 0.121744 -0.115234 -0.092843
v 0.121744 -0.125234 -0.092843
v -0.078256 -0.125234 -0.002843
v 0.121744 -0.125234 -0.002843
v 0.121744 -0.115234 -0.002843
v -0.078256 -0.115234 -0.002843
v -0.078256 0.114766 -0.092843
v -0.078256 0.124766 -0.092843
v 0.121744 0.124766 -0.092843
v 0.121744 0.114766 -0.092843
v -0.078256 0.114766 -0.002843
v 0.121744 0.114766 -0.002843
v 0.121744 0.124766 -0.002843
v -0.078256 0.124766 -0.002843
v 0.121744 -0.125209 -0.092843
v 0.111744 -0.125209 -0.092843
v 0.111744 0.124791 -0.092843
v 0.121744 0.124791 -0.092843
v 0.121744 -0.125209 -0.002843
v 0.121744 0.124791 -0.002843
v 0.111744 0.124792 -0.002843
v 0.111744 -0.125208 -0.002843
v 0.121744 -0.125209 -0.087843
v 0.121744 -0.125209 -0.097843
v 0.121744 0.124791 -0.097843
v 0.121744 0.124791 -0.087843
v -0.078256 -0.125209 -0.087843
v -0.078256 0.124791 -0.087843
v -0.078256 0.124791 -0.097843
v -0.078256 -0.125208 -0.097843
v -0.162289 -0.020364 -0.055053
v -0.202289 -0.020364 -0.055053
v -0.202289 0.019636 -0.055053
v -0.162289 0.019636 -0.055053
v -0.162289 -0.020364 -0.015053
v -0.162289 0.019636 -0.015053
v -0.202289 0.019636 -0.015053
v -0.202289 -0.020364 -0.015053
vn 0.0000 0.0000 -1.0000
vn 0.0000 -0.0000 1.0000
vn -1.0000 -0.0000 0.0000
vn 0.0000 1.0000 0.0000
vn 1.0000 0.0000 0.0000
vn 0.0000 -1.0000 0.0000
vn 0.0001 1.0000 -0.0000
vn -0.0000 -1.0000 -0.0001
usemtl Material.005
s 1
f 1//1 2//1 3//1 4//1
f 5//2 6//2 7//2 8//2
f 1//3 5//3 8//3 2//3
f 2//4 8//4 7//4 3//4
f 3//5 7//5 6//5 4//5
f 5//6 1//6 4//6 6//6
f 9//1 10//1 11//1 12//1
f 13//2 14//2 15//2 16//2
f 9//3 13//3 16//3 10//3
f 10//4 16//4 15//4 11//4
f 11//5 15//5 14//5 12//5
f 13//6 9//6 12//6 14//6
f 17//1 18//1 19//1 20//1
f 21//2 22//2 23//2 24//2
f 17//6 21//6 24//6 18//6
f 18//3 24//3 23//3 19//3
f 19//4 23//4 22//4 20//4
f 21//5 17//5 20//5 22//5
f 25//1 26//1 27//1 28//1
f 29//2 30//2 31//2 32//2
f 25//6 29//6 32//6 26//6
f 26//3 32//3 31//3 27//3
f 27//4 31//4 30//4 28//4
f 29//5 25//5 28//5 30//5
f 33//1 34//1 35//1 36//1
f 37//2 38//2 39//2 40//2
f 33//3 37//3 40//3 34//3
f 34//4 40//4 39//4 35//4
f 35//5 39//5 38//5 36//5
f 37//6 33//6 36//6 38//6
f 41//1 42//1 43//1 44//1
f 45//2 46//2 47//2 48//2
f 41//3 45//3 48//3 42//3
f 42//4 48//4 47//4 43//4
f 43//5 47//5 46//5 44//5
f 45//6 41//6 44//6 46//6
f 49//1 50//1 51//1 52//1
f 53//2 54//2 55//2 56//2
f 49//6 53//6 56//6 50//6
f 50//3 56//3 55//3 51//3
f 51//7 55//7 54//7 52//7
f 53//5 49//5 52//5 54//5
f 57//5 58//5 59//5 60//5
f 61//3 62//3 63//3 64//3
f 57//8 61//8 64//8 58//8
f 58//1 64//1 63//1 59//1
f 59//4 63//4 62//4 60//4
f 61//2 57//2 60//2 62//2
usemtl Material.001
f 65//1 66//1 67//1 68//1
f 69//2 70//2 71//2 72//2
f 65//6 69//6 72//6 66//6
f 66//3 72//3 71//3 67//3
f 67//4 71//4 70//4 68//4
f 69//5 65//5 68//5 70//5
