# Exported using automatic converter by Erwin Coumans
mtllib /home/gabi/mirracle_multimodal2/multimodal_compare/models/lanro_gym/objects_urdfs/drawer/drawerhandle.mtl
#object Cube.009_Cube.001

v 0.085000 -0.132000 -0.092000
v 0.085000 -0.122000 -0.092000
v 0.125000 -0.122000 -0.092000
v 0.125000 -0.132000 -0.092000
v 0.085000 -0.132000 -0.002000
v 0.085000 -0.122000 -0.002000
v 0.125000 -0.122000 -0.002000
v 0.125000 -0.132000 -0.002000
v 0.085321 0.125169 -0.092000
v 0.085321 0.135169 -0.092000
v 0.125321 0.135169 -0.092000
v 0.125321 0.125169 -0.092000
v 0.085321 0.125169 -0.002000
v 0.085321 0.135169 -0.002000
v 0.125321 0.135169 -0.002000
v 0.125321 0.125169 -0.002000
v -0.069515 -0.004683 -0.039205
v -0.169515 -0.004683 -0.039205
v -0.169515 0.005317 -0.039205
v -0.069515 0.005317 -0.039205
v -0.069515 -0.004683 -0.029205
v -0.169515 -0.004683 -0.029205
v -0.169515 0.005317 -0.029205
v -0.069515 0.005317 -0.029205
v -0.062715 -0.124540 -0.092000
v -0.072715 -0.124540 -0.092000
v -0.072715 0.125460 -0.092000
v -0.062715 0.125460 -0.092000
v -0.062715 -0.124540 -0.002000
v -0.072715 -0.124540 -0.002000
v -0.072715 0.125460 -0.002000
v -0.062715 0.125460 -0.002000
v -0.072562 -0.124560 -0.092000
v -0.072562 -0.114560 -0.092000
v 0.127438 -0.114560 -0.092000
v 0.127438 -0.124560 -0.092000
v -0.072562 -0.124560 -0.002000
v -0.072562 -0.114560 -0.002000
v 0.127438 -0.114560 -0.002000
v 0.127438 -0.124560 -0.002000
v -0.072562 0.115440 -0.092000
v -0.072562 0.125440 -0.092000
v 0.127438 0.125440 -0.092000
v 0.127438 0.115440 -0.092000
v -0.072562 0.115440 -0.002000
v -0.072562 0.125440 -0.002000
v 0.127438 0.125440 -0.002000
v 0.127438 0.115440 -0.002000
v 0.127438 -0.124534 -0.092000
v 0.117438 -0.124534 -0.092000
v 0.117438 0.125466 -0.092000
v 0.127438 0.125466 -0.092000
v 0.127438 -0.124534 -0.002000
v 0.117438 -0.124534 -0.002000
v 0.117438 0.125466 -0.002000
v 0.127438 0.125466 -0.002000
v 0.127438 -0.124534 -0.087000
v 0.127438 -0.124534 -0.097000
v 0.127438 0.125466 -0.097000
v 0.127438 0.125466 -0.087000
v -0.072562 -0.124534 -0.087000
v -0.072562 -0.124534 -0.097000
v -0.072562 0.125466 -0.097000
v -0.072562 0.125466 -0.087000
v -0.196953 -0.021000 -0.055000
v -0.156953 -0.021000 -0.055000
v -0.156953 -0.021000 -0.015000
v -0.196953 -0.021000 -0.015000
v -0.196953 0.019000 -0.055000
v -0.156953 0.019000 -0.055000
v -0.156953 0.019000 -0.015000
v -0.196953 0.019000 -0.015000
usemtl Material.005

vn 0.000000 0.000000 -1.000000
vn 0.000000 0.000000 1.000000
vn -1.000000 0.000000 0.000000
vn 0.000000 1.000000 -0.000000
vn 1.000000 0.000000 -0.000000
vn -0.000000 -1.000000 -0.000000
vn 0.000000 -1.000000 0.000000
vn 0.000000 1.000000 0.000000
vn 0.000000 0.000000 -1.000000
vn 1.000000 0.000000 0.000000
vn -0.000000 -0.000000 1.000000
vn -1.000000 0.000000 -0.000000

s off
f 1/0/1 2/0/1 3/0/1
f 1/0/1 3/0/1 4/0/1
f 5/0/2 8/0/2 7/0/2
f 5/0/2 7/0/2 6/0/2
f 1/0/3 5/0/3 6/0/3
f 1/0/3 6/0/3 2/0/3
f 2/0/4 6/0/4 7/0/4
f 2/0/4 7/0/4 3/0/4
f 3/0/5 7/0/5 8/0/5
f 3/0/5 8/0/5 4/0/5
f 5/0/6 1/0/6 4/0/6
f 5/0/6 4/0/6 8/0/6
f 9/0/1 10/0/1 11/0/1
f 9/0/1 11/0/1 12/0/1
f 13/0/2 16/0/2 15/0/2
f 13/0/2 15/0/2 14/0/2
f 9/0/3 13/0/3 14/0/3
f 9/0/3 14/0/3 10/0/3
f 10/0/4 14/0/4 15/0/4
f 10/0/4 15/0/4 11/0/4
f 11/0/5 15/0/5 16/0/5
f 11/0/5 16/0/5 12/0/5
f 13/0/6 9/0/6 12/0/6
f 13/0/6 12/0/6 16/0/6
f 17/0/1 18/0/1 19/0/1
f 17/0/1 19/0/1 20/0/1
f 21/0/2 24/0/2 23/0/2
f 21/0/2 23/0/2 22/0/2
f 17/0/6 21/0/6 22/0/6
f 17/0/6 22/0/6 18/0/6
f 18/0/3 22/0/3 23/0/3
f 18/0/3 23/0/3 19/0/3
f 19/0/4 23/0/4 24/0/4
f 19/0/4 24/0/4 20/0/4
f 21/0/5 17/0/5 20/0/5
f 21/0/5 20/0/5 24/0/5
f 25/0/1 26/0/1 27/0/1
f 25/0/1 27/0/1 28/0/1
f 29/0/2 32/0/2 31/0/2
f 29/0/2 31/0/2 30/0/2
f 25/0/6 29/0/6 30/0/6
f 25/0/6 30/0/6 26/0/6
f 26/0/3 30/0/3 31/0/3
f 26/0/3 31/0/3 27/0/3
f 27/0/4 31/0/4 32/0/4
f 27/0/4 32/0/4 28/0/4
f 29/0/5 25/0/5 28/0/5
f 29/0/5 28/0/5 32/0/5
f 33/0/1 34/0/1 35/0/1
f 33/0/1 35/0/1 36/0/1
f 37/0/2 40/0/2 39/0/2
f 37/0/2 39/0/2 38/0/2
f 33/0/3 37/0/3 38/0/3
f 33/0/3 38/0/3 34/0/3
f 34/0/4 38/0/4 39/0/4
f 34/0/4 39/0/4 35/0/4
f 35/0/5 39/0/5 40/0/5
f 35/0/5 40/0/5 36/0/5
f 37/0/6 33/0/6 36/0/6
f 37/0/6 36/0/6 40/0/6
f 41/0/1 42/0/1 43/0/1
f 41/0/1 43/0/1 44/0/1
f 45/0/2 48/0/2 47/0/2
f 45/0/2 47/0/2 46/0/2
f 41/0/3 45/0/3 46/0/3
f 41/0/3 46/0/3 42/0/3
f 42/0/4 46/0/4 47/0/4
f 42/0/4 47/0/4 43/0/4
f 43/0/5 47/0/5 48/0/5
f 43/0/5 48/0/5 44/0/5
f 45/0/6 41/0/6 44/0/6
f 45/0/6 44/0/6 48/0/6
f 49/0/1 50/0/1 51/0/1
f 49/0/1 51/0/1 52/0/1
f 53/0/2 56/0/2 55/0/2
f 53/0/2 55/0/2 54/0/2
f 49/0/6 53/0/6 54/0/6
f 49/0/6 54/0/6 50/0/6
f 50/0/3 54/0/3 55/0/3
f 50/0/3 55/0/3 51/0/3
f 51/0/4 55/0/4 56/0/4
f 51/0/4 56/0/4 52/0/4
f 53/0/5 49/0/5 52/0/5
f 53/0/5 52/0/5 56/0/5
f 57/0/5 58/0/5 59/0/5
f 57/0/5 59/0/5 60/0/5
f 61/0/3 64/0/3 63/0/3
f 61/0/3 63/0/3 62/0/3
f 57/0/6 61/0/6 62/0/6
f 57/0/6 62/0/6 58/0/6
f 58/0/1 62/0/1 63/0/1
f 58/0/1 63/0/1 59/0/1
f 59/0/4 63/0/4 64/0/4
f 59/0/4 64/0/4 60/0/4
f 61/0/2 57/0/2 60/0/2
f 61/0/2 60/0/2 64/0/2
