# File produced by Open Asset Import Library (http://www.assimp.sf.net)
# (assimp v4.1.0)

mtllib np304v6mdqos.mtl

# 35 vertex positions
v  -3.713965524010376e-10 -0.009379138238728046 -0.007930019870400429
v  -0.01211813651025295 -0.01040844433009624 -0.008184287697076797
v  -0.01211600005626678 -0.005831717047840357 -0.006020959466695786
v  -3.713965524010376e-10 -0.005873433314263821 -0.00600412068888545
v  -4.762565822602483e-06 -0.003202202962711453 -0.00157524470705539
v  -0.01213196292519569 -0.002943474100902677 0.0001213348368764855
v  5.180488642508863e-07 -0.005738962907344103 0.006321053486317396
v  -0.01211600005626678 -0.005706766620278358 0.005865017417818308
v  -0.01211600005626678 -0.009001164697110653 0.007779893931001425
v  -6.215947792043153e-07 -0.01348775066435337 0.008164931088685989
v  -0.01212020684033632 -0.01514226477593184 0.007565195672214031
v  -3.713965524010376e-10 -0.0182619821280241 0.004499879665672779
v  -0.01211588364094496 -0.01942633278667927 0.002155809430405498
v  -3.713965524010376e-10 -0.01957061886787415 0.0008094619261100888
v  -0.01211600005626678 -0.01914034783840179 -0.002734120935201645
v  -0.0001272712252102792 -0.01869296468794346 -0.003975094761699438
v  -0.01212132815271616 -0.01634322479367256 -0.006649749353528023
v  -3.321904102904227e-07 -0.01430097967386246 -0.007767144590616226
v  0.0001079984358511865 0.003458145540207624 0.002515484113246202
v  -0.01213361416012049 0.002956624608486891 7.542608727817424e-06
v  -3.712240237430109e-10 0.00383207737468183 -0.003057650057598948
v  -0.01212496683001518 0.006788821890950203 -0.007052422035485506
v  3.476722213235917e-06 0.00792988482862711 -0.007633651606738567
v  -0.01211600005626678 0.01325121521949768 -0.007970958016812801
v  -3.713965524010376e-10 0.01351943891495466 -0.007914697751402855
v  -0.01211646478623152 0.01773800514638424 -0.005424626171588898
v  -3.713965524010376e-10 0.01698656752705574 -0.006004120223224163
v  9.952477739716414e-07 0.01976381987333298 -0.0008045727736316621
v  -0.01211352180689573 0.01963622123003006 0.001495992648415267
v  -3.713965524010376e-10 0.0180601142346859 0.004792336840182543
v  -0.01212529558688402 0.01639042980968952 0.006560203153640032
v  2.196729553816112e-07 0.01314266212284565 0.008203588426113129
v  -0.01211246941238642 0.01072291750460863 0.008299464359879494
v  -3.713965524010376e-10 0.007471777964383364 0.007159425877034664
v  -0.01211600005626678 0.005831717047840357 0.006020959466695786

# 0 UV coordinates

# 49 vertex normals
vn -0.01732642762362957 0.4272872805595398 -0.9039498567581177
vn 0.002875880105420947 0.4814870357513428 -0.8764485120773315
vn 0.003666086122393608 0.8563005924224854 -0.5164648294448853
vn -0.04020415619015694 0.9041743874549866 -0.4252673387527466
vn 0.06297168880701065 0.9501981735229492 0.305217981338501
vn -0.01392264105379581 0.9010331034660339 0.4335267841815948
vn -0.0311894454061985 0.5022835731506348 0.8641402721405029
vn 0.0547243244946003 0.2311386615037918 0.9713805317878723
vn -0.04464447125792503 -0.03487415239214897 0.9983940720558167
vn 0.04383396729826927 -0.6083455681800842 0.7924608588218689
vn -0.04472877457737923 -0.7831631302833557 0.6202054619789124
vn 0.02590588107705116 -0.9421811103820801 0.3341011703014374
vn -0.01837322674691677 -0.9981256723403931 -0.05837440490722656
vn 0.01797456294298172 -0.9833449721336365 -0.1808578222990036
vn -0.02978656627237797 -0.8133674263954163 -0.5809872150421143
vn 0.04046619683504105 -0.6536529064178467 -0.7557118535041809
vn -0.04702561348676682 -0.250033438205719 -0.9670945405960083
vn 0.02377365715801716 -0.03306649252772331 -0.9991703629493713
vn 1 -0.0001410382683388889 2.53639755101176e-05
vn 1 3.992558049503714e-05 -1.415776841895422e-05
vn 0.9973927140235901 -0.06146938726305962 -0.03780661150813103
vn 1 -6.358729297062382e-05 0.0001157476435764693
vn 0.9999991655349731 -0.0003024805919267237 0.00125769735313952
vn 0.9999997019767761 0.0006548892124556005 -0.0004583560803439468
vn 1 0.0001209133333759382 1.199304733745521e-05
vn 0.05472319200634956 -0.9961901903152466 -0.06790026277303696
vn -0.05702559277415276 -0.8774124979972839 -0.4763353765010834
vn 0.03809152916073799 -0.7444326281547546 -0.6666101813316345
vn -0.03419139981269836 -0.1405924409627914 -0.9894769787788391
vn 0.005749143194407225 -0.05021276697516441 -0.9987220168113708
vn -0.006888074800372124 0.4935603439807892 -0.8696842789649963
vn -0.01195568777620792 0.482593297958374 -0.875762939453125
vn 0.03215337172150612 0.881601095199585 -0.4708988070487976
vn -0.06027502194046974 0.962634801864624 -0.2640098333358765
vn 0.04517992585897446 0.9556805491447449 0.2909182906150818
vn -0.0372479148209095 0.8413717746734619 0.5391716957092285
vn 0.04127334803342819 0.5695003271102905 0.8209542632102966
vn -0.0509534478187561 0.2928922176361084 0.9547868371009827
vn 0.0439172126352787 -0.1809098571538925 0.9825186729431152
vn -0.02800792641937733 -0.4220859408378601 0.9061230421066284
vn 0.04082238674163818 -0.7554842233657837 0.6538938283920288
vn -0.05136848986148834 -0.900936484336853 0.4308998584747314
vn 1 9.325139618820977e-12 -1.692234893879707e-11
vn 1 1.982325557037257e-05 -3.592946450226009e-05
vn 1 -3.830690184258856e-05 -0.0001710208889562637
vn 0.9999988079071045 0.0006914065452292562 0.00137900747358799
vn 1 -8.403225365327671e-05 0.0001523077953606844
vn 1 -4.152630936005153e-05 1.479322509112535e-05
vn 0.9988213777542114 0.04572205618023872 -0.01628788933157921

# Mesh '<STL_BINARY>' with 49 faces
g <STL_BINARY>
usemtl DefaultMaterial
f  1//1 2//1 3//1
f  1//2 3//2 4//2
f  4//3 3//3 5//3
f  5//4 3//4 6//4
f  5//5 6//5 7//5
f  6//6 8//6 7//6
f  7//7 8//7 9//7
f  7//8 9//8 10//8
f  10//9 9//9 11//9
f  10//10 11//10 12//10
f  12//11 11//11 13//11
f  12//12 13//12 14//12
f  14//13 13//13 15//13
f  14//14 15//14 16//14
f  16//15 15//15 17//15
f  16//16 17//16 18//16
f  18//17 17//17 2//17
f  18//18 2//18 1//18
f  7//19 10//19 18//19
f  14//20 18//20 12//20
f  14//21 16//21 18//21
f  1//22 4//22 18//22
f  18//23 4//23 5//23
f  5//24 7//24 18//24
f  18//25 10//25 12//25
f  19//26 20//26 21//26
f  20//27 22//27 21//27
f  21//28 22//28 23//28
f  23//29 22//29 24//29
f  23//30 24//30 25//30
f  25//31 24//31 26//31
f  25//32 26//32 27//32
f  27//33 26//33 28//33
f  28//34 26//34 29//34
f  28//35 29//35 30//35
f  30//36 29//36 31//36
f  30//37 31//37 32//37
f  32//38 31//38 33//38
f  32//39 33//39 34//39
f  34//40 33//40 35//40
f  34//41 35//41 19//41
f  19//42 35//42 20//42
f  25//43 27//43 21//43
f  30//44 32//44 21//44
f  21//45 27//45 28//45
f  25//46 21//46 23//46
f  21//47 28//47 30//47
f  21//48 32//48 34//48
f  34//49 19//49 21//49

