# Blender v2.79 (sub 0) OBJ File: ''
# www.blender.org
mtllib link3.mtl
o Link3
v 0.046301 -0.030187 -0.120999
v 0.054918 -0.007835 -0.120998
v 0.129196 0.000776 -0.029613
v 0.124788 0.091303 -0.019898
v 0.114440 0.101004 -0.019110
v 0.128178 0.093017 -0.004663
v -0.016675 0.052758 -0.121001
v 0.078020 0.101031 -0.036832
v 0.009506 0.054968 -0.120998
v 0.098648 0.101070 -0.033043
v 0.133141 0.066125 -0.014248
v 0.130133 0.086718 -0.008256
v 0.135174 0.065815 -0.001263
v 0.112032 0.000601 0.046705
v 0.102467 0.000564 0.051469
v 0.005082 -0.044914 -0.038339
v -0.006061 -0.043348 -0.034716
v 0.082189 0.000568 0.055156
v 0.091923 0.000611 0.054511
v 0.113908 0.091545 -0.034439
v 0.051192 0.000885 0.045464
v -0.034843 -0.013918 -0.026153
v -0.030187 -0.023146 -0.026645
v -0.028469 -0.029575 -0.030171
v -0.022609 -0.033803 -0.029722
v -0.049615 0.024667 -0.120993
v -0.051133 0.016610 -0.089954
v -0.048029 0.025903 -0.101594
v -0.039719 0.037917 -0.106977
v -0.037087 0.041023 -0.121018
v 0.137561 0.000591 -0.005199
v 0.134980 0.000582 -0.017309
v 0.097133 0.066309 0.050464
v 0.106453 0.065611 0.046881
v 0.104194 0.086449 0.043301
v 0.115961 0.066544 0.040596
v 0.035118 0.043010 -0.120998
v 0.074742 0.109198 -0.013768
v 0.082221 0.107566 -0.020426
v 0.049881 0.023787 -0.121000
v 0.001935 -0.054534 -0.101876
v -0.007130 -0.054668 -0.120995
v 0.005735 -0.054917 -0.120998
v 0.130017 0.065351 -0.022771
v 0.120542 0.000546 0.040058
v 0.127308 0.000507 0.032247
v 0.132378 0.000608 0.023833
v 0.125852 0.065915 0.030017
v 0.133242 0.066199 0.014384
v 0.136889 0.000544 0.010212
v 0.114547 0.093809 0.032140
v 0.122662 0.093747 0.021421
v 0.106871 0.101004 0.027909
v 0.124558 0.065814 -0.031581
v 0.054401 0.008968 -0.121000
v 0.121106 0.084974 -0.029834
v 0.011153 -0.050959 -0.075627
v 0.041278 0.089486 0.022893
v -0.039756 0.020915 -0.037129
v -0.038601 0.012569 -0.029565
v 0.047117 0.100870 0.010420
v -0.036818 0.027215 -0.040392
v 0.090231 0.092298 0.045707
v 0.104702 0.093489 0.039999
v 0.116054 0.086166 0.034788
v 0.130388 0.086852 0.005292
v 0.092584 0.108213 -0.015935
v 0.032959 -0.044375 -0.120999
v 0.018842 -0.051789 -0.121005
v -0.008305 -0.053734 -0.098851
v -0.018801 -0.051551 -0.107901
v -0.025692 -0.048999 -0.120998
v -0.003884 -0.049675 -0.060069
v 0.007280 -0.047779 -0.052229
v -0.004142 -0.052752 -0.082124
v 0.004605 -0.052245 -0.078856
v 0.052254 0.090089 0.036272
v 0.053134 0.100909 0.022457
v 0.063756 0.106924 -0.012549
v 0.045446 0.100871 -0.002465
v -0.048402 0.011451 -0.059829
v -0.051532 0.000953 -0.070878
v -0.046154 0.002809 -0.041641
v 0.119397 0.100939 0.000438
v 0.099071 0.108666 -0.005736
v 0.101588 0.107713 0.006654
v 0.116384 0.100933 0.014279
v 0.124245 0.086628 0.024384
v 0.126814 0.092758 0.012786
v 0.082949 0.111203 -0.001596
v 0.086657 0.109898 -0.011964
v 0.091195 0.109398 0.012603
v 0.092755 0.110336 0.000887
v 0.076100 0.110146 0.009457
v 0.075849 0.092371 0.045553
v 0.070087 0.101035 0.035040
v 0.085436 0.065979 0.052613
v 0.077777 0.085805 0.048397
v 0.071485 0.000568 0.054191
v -0.015856 -0.038380 -0.030971
v 0.059279 0.000606 0.050110
v -0.052008 -0.016770 -0.102348
v -0.051607 -0.019395 -0.121000
v -0.046754 -0.029540 -0.120958
v -0.013162 -0.050673 -0.077665
v -0.044413 -0.008708 -0.038502
v -0.047733 -0.007449 -0.051911
v -0.045407 -0.018291 -0.055497
v -0.040567 -0.019002 -0.036828
v -0.004066 -0.045788 -0.041049
v -0.028926 -0.045977 -0.098079
v -0.021153 -0.048749 -0.084459
v -0.027533 -0.044026 -0.074282
v -0.015534 -0.047014 -0.058545
v 0.063672 0.090569 0.043158
v 0.063816 0.108261 0.000704
v -0.044976 0.025029 -0.070570
v -0.040366 0.035095 -0.086669
v 0.069431 0.065546 0.051013
v 0.051103 0.067234 0.042013
v -0.037863 0.002726 -0.026501
v -0.052776 0.008240 -0.087413
v -0.054615 0.008915 -0.120971
v -0.054422 0.002010 -0.099662
v 0.090021 0.100948 0.036133
v 0.013829 -0.052766 -0.101191
v -0.045138 -0.029590 -0.092390
v -0.048066 -0.021576 -0.080342
v -0.037870 -0.040342 -0.120938
v -0.036777 -0.038714 -0.086750
v -0.054646 -0.007606 -0.120996
v -0.054052 -0.005208 -0.097856
v -0.041371 -0.026752 -0.056950
v -0.043296 0.012746 -0.038093
v -0.043274 0.001422 -0.033617
v -0.019526 -0.042312 -0.043616
v -0.013154 -0.043029 -0.037657
v -0.045919 0.018267 -0.058169
v -0.037785 0.033267 -0.063465
v -0.039317 -0.004217 -0.028116
v -0.025243 -0.037023 -0.036986
v 0.072580 0.110435 0.000058
v 0.085342 0.108684 0.017137
v 0.076302 0.108275 0.017559
v 0.059348 0.066195 0.047189
v -0.050970 -0.011643 -0.076611
v -0.038922 -0.033393 -0.069888
v -0.029421 -0.039624 -0.057483
v -0.033718 -0.030905 -0.039763
v 0.066635 0.107910 0.011381
v -0.036020 -0.022938 -0.032649
v -0.039629 -0.011227 -0.030396
vn 0.7556 -0.2913 -0.5867
vn 0.6568 0.7191 -0.2270
vn -0.0759 0.8994 -0.4305
vn 0.0971 0.8376 -0.5375
vn 0.9716 0.1849 -0.1477
vn 0.1561 -0.9391 0.3062
vn 0.0125 -0.9032 0.4291
vn 0.0316 -0.9088 0.4160
vn 0.5976 0.6729 -0.4360
vn -0.5704 -0.3280 0.7530
vn -0.4770 -0.5172 0.7107
vn -0.4526 -0.5531 0.6994
vn -0.9259 0.3742 0.0519
vn -0.7938 0.6080 -0.0143
vn 0.9773 0.0371 -0.2084
vn 0.3647 0.1959 0.9103
vn 0.5478 0.0448 0.8354
vn 0.8791 0.4107 -0.2418
vn 0.3155 0.6758 -0.6661
vn -0.1036 0.9328 -0.3451
vn 0.5433 0.4173 -0.7285
vn -0.0194 -0.9997 0.0162
vn 0.9087 0.2222 -0.3533
vn 0.1001 -0.9272 0.3610
vn 0.1964 -0.9457 0.2592
vn 0.8558 0.0366 0.5161
vn 0.9915 0.0474 0.1213
vn 0.5109 0.7699 0.3823
vn 0.7749 0.0362 -0.6310
vn 0.7747 0.0238 -0.6319
vn 0.8587 0.2240 -0.4609
vn 0.7294 0.4214 -0.5388
vn 0.2763 -0.9485 0.1551
vn -0.7386 0.3938 0.5472
vn -0.7201 0.6462 0.2527
vn 0.2618 0.2406 0.9346
vn 0.4023 0.7434 0.5343
vn 0.5576 0.3191 0.7663
vn 0.5730 0.3668 0.7328
vn 0.9735 0.2279 -0.0206
vn 0.9757 0.1859 0.1159
vn 0.2611 0.9202 -0.2916
vn 0.6696 -0.6296 -0.3940
vn 0.4636 -0.8828 -0.0760
vn 0.4870 -0.8673 -0.1031
vn 0.9368 0.0425 -0.3473
vn 0.9156 0.2298 -0.3299
vn 0.4454 0.0358 0.8946
vn 0.7310 0.0452 0.6808
vn 0.2335 -0.9501 0.2070
vn 0.6738 0.2511 -0.6949
vn 0.6959 0.2122 -0.6861
vn 0.7102 0.1898 -0.6779
vn 0.4308 0.7612 -0.4847
vn -0.0665 -0.9970 0.0385
vn -0.2919 -0.9559 -0.0326
vn 0.0658 -0.9872 0.1451
vn 0.3128 -0.9437 0.1080
vn 0.0058 -0.9904 0.1381
vn -0.7291 0.3603 0.5819
vn -0.6505 0.6875 0.3229
vn -0.3897 0.9063 -0.1636
vn -0.4963 0.8634 -0.0904
vn -0.9788 0.1096 0.1731
vn 0.3614 0.0436 0.9314
vn 0.6117 0.7762 -0.1525
vn 0.3554 0.9347 -0.0003
vn 0.5059 0.7889 0.3490
vn 0.7224 0.1931 0.6640
vn 0.7290 0.3479 0.5895
vn 0.9514 0.3072 -0.0210
vn 0.8930 0.4435 0.0764
vn 0.6889 0.7220 0.0646
vn 0.9360 0.2419 0.2557
vn -0.0372 0.9897 -0.1379
vn 0.0688 0.9206 -0.3843
vn 0.0956 0.9302 -0.3545
vn 0.3405 0.6457 -0.6835
vn 0.8379 0.1974 -0.5088
vn 0.8502 0.0448 -0.5245
vn 0.2194 -0.9481 0.2302
vn 0.9871 0.0454 -0.1535
vn 0.0655 0.9939 0.0883
vn 0.2184 0.9700 0.1067
vn 0.2736 0.9617 0.0184
vn 0.0260 0.9935 0.1112
vn -0.0029 0.7710 0.6369
vn 0.1702 0.2210 0.9603
vn -0.0078 0.3954 0.9185
vn -0.0426 -0.8805 0.4721
vn -0.1917 -0.8033 0.5639
vn -0.1909 -0.8037 0.5635
vn -0.9014 -0.4311 0.0413
vn -0.2667 -0.9606 0.0776
vn -0.9402 -0.2703 0.2074
vn -0.9237 -0.3080 0.2277
vn -0.2274 -0.9734 0.0290
vn -0.0160 -0.9347 0.3551
vn 0.0256 -0.9794 0.2004
vn 0.0321 -0.9779 0.2067
vn 0.1032 -0.9782 0.1804
vn -0.4845 -0.8691 0.0996
vn -0.1999 -0.9666 0.1602
vn -0.6046 0.6453 0.4669
vn -0.3894 0.7016 0.5968
vn -0.4106 0.7304 0.5459
vn -0.2370 0.6820 0.6919
vn -0.3801 0.9236 0.0493
vn -0.2250 0.9281 -0.2967
vn -0.1598 0.9232 -0.3496
vn -0.8158 0.5776 0.0299
vn -0.8366 0.5390 0.0975
vn -0.1025 0.1688 0.9803
vn -0.1006 0.0454 0.9939
vn -0.0897 0.0431 0.9950
vn -0.6275 0.0396 0.7776
vn -0.9872 0.1486 0.0571
vn -0.9762 0.2091 0.0577
vn 0.3110 0.3851 0.8689
vn 0.1982 0.7294 0.6547
vn 0.5267 0.1991 0.8264
vn 0.5710 0.2305 0.7879
vn 0.6215 0.7541 0.2124
vn 0.6232 0.7702 0.1360
vn 0.3794 0.9215 0.0830
vn 0.8602 0.3469 0.3738
vn 0.7340 0.3936 0.5535
vn -0.0178 0.9663 -0.2569
vn 0.1441 -0.9884 0.0485
vn 0.6268 -0.7166 -0.3059
vn 0.9047 0.0335 -0.4247
vn 0.3620 -0.9311 0.0457
vn 0.1792 0.0463 0.9827
vn 0.2772 0.0372 0.9601
vn 0.6153 0.0363 0.7875
vn 0.7554 0.0391 0.6541
vn 0.9026 0.0497 0.4275
vn 0.9985 0.0339 0.0436
vn 0.2801 0.9333 0.2250
vn 0.3136 0.9251 0.2141
vn -0.6847 0.2098 0.6979
vn -0.9002 -0.4302 0.0673
vn -0.5791 -0.8148 0.0257
vn -0.1757 -0.9792 0.1012
vn -0.4390 -0.8967 0.0563
vn -0.5939 -0.7983 0.1002
vn -0.7717 -0.6346 0.0425
vn -1.0000 0.0018 0.0097
vn -0.9683 -0.2496 0.0143
vn -0.9947 -0.0263 0.0989
vn -0.8685 -0.4500 0.2080
vn -0.8590 0.1867 0.4768
vn -0.8314 0.3056 0.4641
vn -0.4343 -0.8859 0.1629
vn -0.4210 -0.8944 0.1512
vn -0.3026 -0.9293 0.2118
vn -0.1942 -0.9615 0.1946
vn -0.2129 -0.9550 0.2064
vn -0.1570 -0.9779 0.1383
vn -0.3579 0.9292 -0.0921
vn -0.9795 0.1465 0.1383
vn -0.9654 0.2279 0.1266
vn -0.9350 0.2914 0.2023
vn -0.8599 0.4727 0.1924
vn -0.9045 0.3661 0.2188
vn -0.7454 0.5458 0.3828
vn -0.9198 0.3697 0.1316
vn -0.9409 0.3091 0.1382
vn -0.9526 0.3024 0.0319
vn -0.6855 0.7159 0.1327
vn -0.8094 0.5846 0.0554
vn -0.8990 0.4262 0.1005
vn -0.8013 0.5829 0.1351
vn -0.8126 0.5545 0.1795
vn -0.7981 0.0272 0.6019
vn -0.8007 0.1225 0.5864
vn -0.6764 0.1722 0.7162
vn -0.1695 -0.9364 0.3074
vn -0.4051 -0.8524 0.3306
vn 0.0847 0.2384 0.9675
vn 0.9130 0.2408 0.3294
vn 0.1501 0.9831 -0.1047
vn 0.1093 0.9903 -0.0856
vn -0.2140 0.9694 -0.1202
vn 0.1736 0.9728 -0.1536
vn 0.2770 0.9359 -0.2178
vn 0.3783 0.9210 -0.0929
vn 0.2321 -0.9726 0.0108
vn 0.3919 -0.9199 0.0143
vn 0.9488 0.0328 0.3141
vn 0.1618 0.9272 0.3377
vn 0.1561 0.9247 0.3472
vn 0.2623 0.7977 0.5429
vn -0.0168 0.9246 0.3806
vn -0.0335 0.7412 0.6704
vn -0.0244 0.9267 0.3751
vn -0.3347 0.2113 0.9183
vn -0.2690 0.2316 0.9349
vn -0.3519 0.0420 0.9351
vn -0.2289 0.3294 0.9160
vn -0.4133 -0.6018 0.6834
vn -0.8959 -0.4414 0.0499
vn -0.4329 -0.8992 0.0640
vn -0.3397 -0.9307 0.1360
vn -0.6324 -0.7725 0.0570
vn -0.9888 -0.0961 0.1143
vn -0.9806 -0.1908 0.0449
vn -0.9929 0.0619 0.1020
vn -0.8188 -0.5587 0.1318
vn -0.8512 -0.5083 0.1312
vn -0.9508 -0.2598 0.1687
vn -0.8814 -0.4468 0.1534
vn -0.0564 -0.9958 0.0725
vn 0.0217 -0.9951 0.0964
vn -0.4760 -0.8624 0.1725
vn -0.6340 0.7716 0.0518
vn -0.6575 0.7486 0.0853
vn -0.8471 0.4950 0.1931
vn 0.0660 0.0355 0.9972
vn -0.2397 -0.8398 0.4871
vn -0.4246 -0.7606 0.4911
vn -0.3858 -0.8232 0.4165
vn -0.6175 -0.7547 0.2216
vn 0.8874 0.1838 0.4228
vn -0.0898 0.9907 -0.1027
vn 0.0702 0.9517 -0.2990
vn -0.3420 0.9319 0.1210
vn -0.3418 0.9247 0.1679
vn -0.0650 0.9964 0.0550
vn -0.0335 0.9736 0.2256
vn -0.2332 0.9679 0.0935
vn -0.2078 0.9722 0.1077
vn -0.4967 0.0391 0.8670
vn -0.5273 0.0434 0.8486
vn -0.5093 0.2337 0.8282
vn -0.4972 0.2267 0.8375
vn -0.3168 0.0363 0.9478
vn -0.2998 -0.9503 0.0835
vn -0.6682 -0.7297 0.1453
vn -0.6220 -0.7718 0.1323
vn -0.9826 -0.0317 0.1828
vn -0.9342 -0.3269 0.1432
vn -0.7750 -0.5306 0.3434
vn -0.6210 -0.1300 0.7729
vn -0.8609 -0.1223 0.4938
vn -0.8711 -0.1304 0.4735
vn -0.9428 -0.0528 0.3293
vn -0.9242 0.1388 0.3557
vn -0.7129 0.6704 0.2057
vn -0.6564 0.7498 0.0833
vn -0.6284 -0.0490 0.7764
vn -0.6686 -0.5934 0.4481
vn -0.6314 -0.4957 0.5963
vn -0.6910 -0.7008 0.1772
vn 0.2609 -0.9499 0.1723
vn -0.2463 0.9644 -0.0962
vn 0.0130 0.9850 0.1719
vn -0.7529 -0.6558 0.0553
vn -0.7644 -0.6364 0.1036
vn -0.9758 -0.2035 0.0799
vn -0.9986 -0.0437 0.0302
vn -0.9442 -0.3138 0.1006
vn -0.9691 -0.0832 0.2321
vn -0.9828 -0.1110 0.1477
vn -0.8160 -0.5277 0.2358
vn -0.7089 -0.1894 0.6794
vn -0.7790 -0.3412 0.5261
vn -0.6719 -0.3731 0.6398
vn -0.9566 0.1991 0.2128
vn 0.3180 -0.9428 0.0999
vn 0.1419 -0.9865 0.0816
vn -0.5205 -0.8273 0.2111
vn -0.2314 0.9247 0.3024
vn -0.2281 0.9255 0.3022
vn -0.5325 -0.6853 0.4968
vn -0.7527 -0.6327 0.1823
vn 0.1513 -0.9848 0.0855
vn -0.6169 -0.6598 0.4290
vn -0.8656 -0.2531 0.4321
vn -0.7236 -0.3387 0.6014
vn -0.1803 0.9574 0.2255
vn 0.7607 0.2246 0.6090
vn -0.3429 -0.6822 0.6458
vn 0.0001 0.0000 -1.0000
vn -0.0000 -0.0000 -1.0000
vn -0.0000 -0.0001 -1.0000
vn 0.0001 0.0001 -1.0000
vn -0.0005 -0.0001 -1.0000
vn 0.0001 0.0002 -1.0000
vn 0.0012 -0.0017 -1.0000
vn 0.0011 -0.0009 -1.0000
vn 0.0002 -0.0000 -1.0000
vn 0.0043 -0.0021 -1.0000
vn 0.0030 -0.0038 -1.0000
vn -0.0003 -0.0001 -1.0000
vn 0.0003 0.0002 -1.0000
vn -0.0005 0.0002 -1.0000
vn -0.0025 0.0015 -1.0000
vn -0.0047 0.0004 -1.0000
usemtl None
s off
f 1//1 2//1 3//1
f 4//2 5//2 6//2
f 7//3 8//3 9//3
f 9//4 8//4 10//4
f 11//5 12//5 13//5
f 14//6 15//6 16//6
f 17//7 16//7 18//7
f 16//8 19//8 18//8
f 20//9 5//9 4//9
f 21//10 22//10 23//10
f 23//11 24//11 21//11
f 25//12 21//12 24//12
f 26//13 27//13 28//13
f 26//14 29//14 30//14
f 11//15 31//15 32//15
f 33//16 34//16 35//16
f 36//17 34//17 14//17
f 12//18 4//18 6//18
f 37//19 9//19 20//19
f 38//20 39//20 8//20
f 37//21 20//21 40//21
f 41//22 42//22 43//22
f 11//23 44//23 4//23
f 19//24 16//24 15//24
f 14//25 16//25 45//25
f 46//26 47//26 48//26
f 13//27 49//27 50//27
f 51//28 52//28 53//28
f 54//29 3//29 55//29
f 55//30 3//30 2//30
f 44//31 56//31 4//31
f 56//32 20//32 4//32
f 47//33 46//33 57//33
f 58//34 59//34 60//34
f 58//35 61//35 62//35
f 35//36 63//36 33//36
f 51//37 53//37 64//37
f 64//38 35//38 65//38
f 64//39 65//39 51//39
f 66//40 13//40 12//40
f 66//41 49//41 13//41
f 10//42 67//42 5//42
f 1//43 3//43 68//43
f 31//44 69//44 68//44
f 31//45 68//45 32//45
f 11//46 32//46 44//46
f 12//47 11//47 4//47
f 14//48 34//48 15//48
f 45//49 48//49 36//49
f 16//50 46//50 45//50
f 40//51 20//51 56//51
f 56//52 55//52 40//52
f 54//53 55//53 56//53
f 10//54 5//54 20//54
f 41//55 70//55 42//55
f 71//56 72//56 42//56
f 73//57 57//57 74//57
f 50//58 47//58 57//58
f 75//59 76//59 73//59
f 77//60 58//60 60//60
f 61//61 58//61 78//61
f 79//62 7//62 80//62
f 7//63 30//63 80//63
f 81//64 82//64 83//64
f 33//65 15//65 34//65
f 84//66 6//66 5//66
f 85//67 86//67 84//67
f 53//68 52//68 87//68
f 48//69 65//69 36//69
f 65//70 88//70 51//70
f 12//71 6//71 66//71
f 89//72 66//72 6//72
f 6//73 84//73 89//73
f 89//74 49//74 66//74
f 38//75 90//75 91//75
f 8//76 39//76 10//76
f 39//77 67//77 10//77
f 20//78 9//78 10//78
f 54//79 56//79 44//79
f 3//80 54//80 44//80
f 74//81 46//81 16//81
f 13//82 31//82 11//82
f 90//83 92//83 93//83
f 93//84 92//84 86//84
f 86//85 85//85 93//85
f 90//86 94//86 92//86
f 95//87 63//87 96//87
f 63//88 97//88 33//88
f 63//89 95//89 98//89
f 99//90 17//90 18//90
f 100//91 17//91 101//91
f 101//92 17//92 99//92
f 102//93 103//93 104//93
f 70//94 105//94 71//94
f 106//95 107//95 108//95
f 108//96 109//96 106//96
f 70//97 71//97 42//97
f 110//98 16//98 17//98
f 74//99 110//99 73//99
f 16//100 110//100 74//100
f 76//101 57//101 73//101
f 111//102 112//102 113//102
f 105//103 73//103 114//103
f 77//104 78//104 58//104
f 96//105 77//105 115//105
f 96//106 78//106 77//106
f 95//107 96//107 115//107
f 116//108 80//108 61//108
f 7//109 79//109 38//109
f 8//110 7//110 38//110
f 28//111 29//111 26//111
f 28//112 117//112 118//112
f 97//113 98//113 119//113
f 97//114 119//114 99//114
f 97//115 99//115 18//115
f 120//116 121//116 21//116
f 122//117 123//117 124//117
f 123//118 122//118 27//118
f 63//119 35//119 64//119
f 64//120 125//120 63//120
f 36//121 35//121 34//121
f 36//122 65//122 35//122
f 52//123 89//123 87//123
f 89//124 84//124 87//124
f 84//125 86//125 87//125
f 88//126 89//126 52//126
f 51//127 88//127 52//127
f 91//128 39//128 38//128
f 43//129 126//129 41//129
f 3//130 32//130 68//130
f 44//131 32//131 3//131
f 50//132 126//132 69//132
f 33//133 97//133 19//133
f 19//134 15//134 33//134
f 45//135 36//135 14//135
f 45//136 46//136 48//136
f 49//137 48//137 47//137
f 50//138 31//138 13//138
f 86//139 92//139 53//139
f 53//140 87//140 86//140
f 60//141 120//141 77//141
f 127//142 128//142 102//142
f 129//143 72//143 111//143
f 105//144 70//144 75//144
f 111//145 72//145 71//145
f 130//146 111//146 113//146
f 129//147 127//147 104//147
f 131//148 124//148 123//148
f 131//149 103//149 102//149
f 132//150 82//150 124//150
f 133//151 109//151 108//151
f 134//152 135//152 60//152
f 134//153 60//153 59//153
f 113//154 114//154 136//154
f 113//155 112//155 114//155
f 136//156 114//156 137//156
f 114//157 73//157 110//157
f 137//158 114//158 110//158
f 105//159 75//159 73//159
f 80//160 116//160 79//160
f 81//161 122//161 82//161
f 81//162 27//162 122//162
f 134//163 138//163 81//163
f 59//164 117//164 138//164
f 59//165 138//165 134//165
f 58//166 62//166 59//166
f 117//167 27//167 138//167
f 27//168 81//168 138//168
f 26//169 123//169 27//169
f 61//170 118//170 139//170
f 29//171 28//171 118//171
f 27//172 117//172 28//172
f 117//173 139//173 118//173
f 139//174 117//174 62//174
f 140//175 121//175 135//175
f 60//176 135//176 121//176
f 121//177 120//177 60//177
f 110//178 17//178 137//178
f 136//179 137//179 141//179
f 63//180 98//180 97//180
f 89//181 88//181 49//181
f 93//182 85//182 91//182
f 93//183 91//183 90//183
f 79//184 142//184 38//184
f 91//185 85//185 67//185
f 5//186 67//186 85//186
f 85//187 84//187 5//187
f 126//188 43//188 69//188
f 69//189 31//189 50//189
f 49//190 47//190 50//190
f 53//191 143//191 125//191
f 53//192 92//192 143//192
f 53//193 125//193 64//193
f 125//194 143//194 96//194
f 96//195 63//195 125//195
f 96//196 143//196 144//196
f 115//197 145//197 119//197
f 115//198 119//198 98//198
f 145//199 101//199 119//199
f 95//200 115//200 98//200
f 101//201 21//201 25//201
f 104//202 127//202 102//202
f 112//203 111//203 71//203
f 112//204 105//204 114//204
f 130//205 129//205 111//205
f 132//206 146//206 82//206
f 102//207 132//207 131//207
f 122//208 124//208 82//208
f 127//209 147//209 133//209
f 127//210 133//210 128//210
f 108//211 107//211 146//211
f 133//212 108//212 128//212
f 75//213 70//213 41//213
f 41//214 76//214 75//214
f 113//215 136//215 148//215
f 30//216 29//216 80//216
f 118//217 61//217 80//217
f 117//218 59//218 62//218
f 97//219 18//219 19//219
f 137//220 17//220 100//220
f 141//221 100//221 25//221
f 137//222 100//222 141//222
f 149//223 148//223 141//223
f 88//224 48//224 49//224
f 142//225 90//225 38//225
f 91//226 67//226 39//226
f 150//227 116//227 61//227
f 150//228 61//228 78//228
f 94//229 90//229 142//229
f 143//230 94//230 144//230
f 116//231 150//231 142//231
f 142//232 150//232 94//232
f 145//233 21//233 101//233
f 21//234 145//234 120//234
f 115//235 77//235 120//235
f 120//236 145//236 115//236
f 99//237 119//237 101//237
f 71//238 105//238 112//238
f 148//239 147//239 130//239
f 148//240 130//240 113//240
f 83//241 82//241 107//241
f 108//242 146//242 128//242
f 149//243 151//243 109//243
f 22//244 21//244 140//244
f 135//245 152//245 140//245
f 135//246 106//246 152//246
f 135//247 83//247 106//247
f 83//248 135//248 134//248
f 62//249 61//249 139//249
f 80//250 29//250 118//250
f 121//251 140//251 21//251
f 151//252 149//252 24//252
f 151//253 24//253 23//253
f 147//254 148//254 149//254
f 46//255 74//255 57//255
f 79//256 116//256 142//256
f 92//257 94//257 143//257
f 130//258 127//258 129//258
f 130//259 147//259 127//259
f 132//260 102//260 146//260
f 124//261 131//261 132//261
f 146//262 102//262 128//262
f 106//263 83//263 107//263
f 146//264 107//264 82//264
f 149//265 109//265 133//265
f 140//266 152//266 22//266
f 152//267 109//267 151//267
f 22//268 151//268 23//268
f 134//269 81//269 83//269
f 57//270 126//270 50//270
f 126//271 76//271 41//271
f 141//272 148//272 136//272
f 96//273 150//273 78//273
f 150//274 96//274 144//274
f 141//275 25//275 24//275
f 133//276 147//276 149//276
f 126//277 57//277 76//277
f 149//278 141//278 24//278
f 152//279 106//279 109//279
f 151//280 22//280 152//280
f 144//281 94//281 150//281
f 65//282 48//282 88//282
f 25//283 100//283 101//283
f 7//284 2//284 1//284
f 7//285 40//285 55//285
f 7//286 55//286 2//286
f 7//287 37//287 40//287
f 7//285 1//285 68//285
f 7//288 69//288 43//288
f 7//289 9//289 37//289
f 7//290 123//290 26//290
f 129//291 104//291 7//291
f 42//292 72//292 7//292
f 104//293 103//293 7//293
f 7//294 26//294 30//294
f 7//295 43//295 42//295
f 7//296 68//296 69//296
f 103//297 131//297 7//297
f 131//298 123//298 7//298
f 72//299 129//299 7//299
