# Blender v2.79 (sub 0) OBJ File: ''
# www.blender.org
mtllib link1.mtl
o Link1
v 0.053515 -0.062246 0.012661
v 0.051375 -0.063873 0.019532
v 0.048278 -0.090398 0.013883
v -0.005730 -0.000489 0.054943
v -0.008659 -0.064251 0.054435
v -0.001065 -0.065471 0.054973
v 0.054382 0.008925 -0.191997
v 0.051739 0.019267 -0.119399
v 0.054883 -0.000573 0.005949
v 0.023176 -0.050140 -0.192000
v 0.017859 -0.124397 -0.016615
v 0.007734 -0.054573 -0.192000
v 0.024036 -0.064734 0.049546
v 0.032229 -0.000468 0.045079
v 0.012128 -0.000504 0.053903
v -0.022482 -0.123341 -0.014598
v -0.028668 -0.119668 -0.016316
v -0.026108 -0.048685 -0.192000
v -0.042252 -0.000480 0.035591
v -0.050318 -0.000497 0.022466
v -0.043082 -0.063860 0.034509
v 0.042634 -0.109893 -0.012449
v 0.034727 -0.116294 -0.014648
v 0.037113 -0.040731 -0.192000
v 0.000198 0.054921 -0.125178
v 0.017598 0.052188 -0.126655
v 0.008945 0.054262 -0.126225
v -0.044899 -0.107411 0.012099
v -0.049066 -0.088310 0.012652
v -0.051902 -0.080543 0.005154
v -0.042666 -0.111290 0.006135
v -0.032844 -0.119203 0.007786
v -0.038870 -0.112925 0.014468
v 0.007705 -0.125795 -0.019477
v 0.009926 -0.064837 0.054230
v -0.020955 -0.064622 0.050931
v -0.014252 -0.084755 0.049507
v -0.022960 -0.085024 0.046110
v -0.049317 -0.064360 0.024332
v -0.041507 -0.107025 0.021371
v -0.008485 -0.125357 -0.020504
v -0.008000 -0.054700 -0.192000
v -0.025731 -0.000521 0.049162
v -0.033310 0.043874 -0.126128
v -0.054768 -0.000602 0.007517
v -0.053198 -0.062031 0.014282
v -0.053405 0.013622 -0.118476
v -0.054942 0.004026 -0.192000
v -0.054987 -0.060276 0.002945
v 0.046016 -0.000517 0.030428
v 0.051877 -0.000502 0.018582
v 0.028025 0.047407 -0.126459
v 0.055161 -0.003628 -0.192004
v 0.054953 -0.060668 0.003564
v -0.000355 0.055192 -0.192000
v 0.012202 0.053703 -0.192000
v 0.004312 -0.107445 0.046231
v -0.005865 -0.092055 0.049737
v -0.004323 -0.107417 0.046153
v -0.008265 -0.126733 0.016201
v -0.005769 -0.128742 0.007856
v 0.004204 -0.127918 0.013660
v 0.003928 -0.125091 0.022594
v -0.011212 -0.122478 0.026151
v -0.031829 -0.064068 0.045033
v -0.028280 -0.120773 0.013227
v -0.019273 -0.125821 0.008008
v -0.040768 -0.113565 -0.003566
v -0.046546 -0.107219 -0.000318
v -0.053668 -0.013207 -0.192003
v 0.049622 -0.024777 -0.191999
v -0.034037 -0.083714 0.038941
v -0.030923 -0.120931 -0.002243
v -0.022892 -0.125006 -0.000735
v -0.033893 -0.117564 -0.012558
v -0.015549 -0.126569 -0.010424
v -0.052335 0.017523 -0.192000
v -0.025424 0.048832 -0.126658
v 0.050649 -0.087687 0.003659
v 0.044789 0.032345 -0.192000
v 0.034292 0.043170 -0.192000
v 0.037478 0.040467 -0.125702
v 0.046444 -0.107388 0.000104
v 0.040514 -0.113037 0.008921
v 0.037484 -0.116272 -0.003615
v 0.045459 -0.108458 -0.005703
v 0.051823 0.018800 -0.192000
v 0.045560 0.030945 -0.123597
v 0.017871 -0.126682 -0.004769
v 0.030508 -0.121220 0.003392
v 0.020677 -0.125230 0.008339
v 0.004878 -0.129373 0.000947
v 0.008944 -0.128164 -0.009181
v 0.013466 -0.127783 0.005269
v -0.011272 -0.128513 0.000250
v 0.017385 -0.124411 0.017312
v -0.002744 -0.120577 0.031461
v 0.003266 -0.110954 0.043455
v 0.003911 -0.118217 0.034982
v 0.011679 -0.113173 0.039549
v -0.008900 -0.113838 0.039611
v -0.014551 -0.107379 0.044191
v -0.018167 -0.111932 0.038370
v -0.018039 -0.118665 0.029566
v -0.028266 -0.118307 0.020676
v -0.019234 -0.123633 0.017520
v -0.025502 -0.114408 0.030829
v -0.035215 -0.111623 0.024391
v -0.042379 -0.109673 -0.013965
v -0.042942 -0.035020 -0.191999
v 0.025412 -0.120945 -0.017632
v 0.026663 -0.122854 -0.007720
v -0.024877 -0.107484 0.039131
v 0.003794 -0.089031 0.050524
v -0.045587 -0.107758 -0.007254
v -0.012079 0.053723 -0.192000
v -0.008857 0.054245 -0.126016
v -0.015560 0.052799 -0.126596
v -0.021549 0.050744 -0.192000
v 0.046528 -0.064680 0.029295
v 0.044728 -0.091145 0.022528
v 0.022913 0.050151 -0.192000
v 0.021324 -0.120405 0.023699
v 0.029307 -0.120242 0.013105
v 0.034472 -0.114389 0.020296
v -0.033995 -0.107523 0.031677
v 0.040594 -0.064406 0.037127
v 0.040062 -0.090084 0.030405
v 0.039319 -0.107371 0.024663
v 0.032858 -0.064327 0.044151
v 0.032316 -0.085449 0.039941
v 0.021351 -0.084324 0.047018
v 0.022662 -0.107510 0.040512
v 0.021754 -0.111272 0.037267
v 0.033284 -0.107291 0.032546
v 0.000052 -0.127835 -0.014335
v -0.041334 -0.084538 0.030631
v -0.030773 0.045636 -0.192000
v 0.042932 -0.107418 0.017665
v 0.045443 -0.107338 0.009659
v -0.000252 -0.129371 -0.004151
v 0.013820 -0.119368 0.030524
v 0.021620 -0.116378 0.030633
v 0.011304 -0.091072 0.048954
v 0.030569 -0.112895 0.028145
v -0.037875 0.040031 -0.192000
v -0.050133 0.022744 -0.122074
v 0.013692 -0.107199 0.044435
v -0.008243 -0.128335 -0.008603
v -0.039695 0.038136 -0.125178
v -0.045885 0.030551 -0.192000
v -0.045798 0.030584 -0.123480
vn 0.9520 -0.1659 0.2573
vn -0.0714 -0.0047 0.9974
vn 0.9797 0.2003 0.0071
vn 0.2563 -0.8929 -0.3703
vn 0.4019 0.0124 0.9156
vn -0.4056 -0.8454 -0.3475
vn -0.8520 0.0022 0.5236
vn 0.6496 -0.7026 -0.2906
vn 0.1238 0.9502 0.2858
vn 0.2371 0.9343 0.2663
vn -0.9661 -0.2149 0.1428
vn -0.6354 -0.7593 0.1404
vn 0.2286 -0.8999 -0.3715
vn 0.3151 -0.0060 0.9490
vn -0.2664 -0.1559 0.9512
vn -0.3525 -0.1823 0.9179
vn -0.8527 0.0019 0.5223
vn -0.9154 -0.2097 0.3436
vn -0.0009 -0.9246 -0.3809
vn 0.0075 -0.9243 -0.3816
vn -0.2934 -0.8833 -0.3657
vn -0.2822 -0.8867 -0.3661
vn -0.2777 0.0051 0.9607
vn -0.2742 0.0061 0.9616
vn 0.0179 0.9555 0.2945
vn -0.5870 0.7917 0.1692
vn -0.9584 0.0069 0.2853
vn -0.9916 0.1293 0.0039
vn -1.0000 0.0036 0.0010
vn 0.4360 0.8734 0.2168
vn 1.0000 0.0011 0.0014
vn 0.1064 0.9513 0.2895
vn 0.9981 0.0619 0.0004
vn 0.0756 0.9971 0.0034
vn 0.2331 0.9724 0.0033
vn -0.0095 -0.2281 0.9736
vn -0.0477 -0.9743 0.2203
vn -0.0717 -0.9246 0.3742
vn -0.6347 0.0107 0.7727
vn -0.6831 -0.0035 0.7303
vn -0.5596 -0.7931 0.2404
vn -0.4372 -0.8927 0.1090
vn -0.7355 -0.6773 0.0150
vn -0.9811 -0.1858 -0.0547
vn 0.5289 -0.7833 -0.3266
vn 0.7613 -0.5969 -0.2533
vn -0.0976 -0.1753 0.9797
vn -0.1847 -0.1817 0.9658
vn -0.9970 -0.0737 -0.0245
vn -0.6770 -0.1475 0.7210
vn -0.4312 -0.8942 -0.1201
vn -0.4611 -0.8850 0.0642
vn -0.4689 -0.8674 -0.1664
vn -0.2551 -0.9225 -0.2897
vn -0.9818 0.1897 -0.0042
vn -0.5132 0.8367 0.1911
vn 0.9865 -0.1573 -0.0448
vn 0.7179 0.6962 -0.0061
vn 0.9632 -0.2523 -0.0926
vn 0.7017 -0.7124 0.0142
vn 0.9686 -0.1724 0.1789
vn 0.9680 0.2509 -0.0005
vn 0.7464 0.6570 0.1061
vn 0.5916 0.8062 0.0044
vn 0.3861 -0.9223 0.0194
vn 0.1844 -0.9819 -0.0432
vn 0.1931 -0.9809 -0.0229
vn -0.0536 -0.9985 0.0087
vn 0.0154 -0.9933 0.1145
vn 0.1986 -0.9587 0.2038
vn 0.1660 -0.9387 0.3021
vn -0.0584 -0.9067 0.4177
vn 0.1045 -0.7511 0.6518
vn -0.2337 -0.6902 0.6849
vn 0.0533 -0.8731 0.4846
vn -0.1780 -0.8139 0.5530
vn -0.1631 -0.8173 0.5526
vn -0.3649 -0.8474 0.3857
vn -0.3946 -0.8167 0.4211
vn -0.5681 -0.7626 0.3093
vn -0.5545 -0.7897 0.2625
vn -0.2930 -0.8733 0.3893
vn -0.4100 -0.8656 0.2873
vn -0.3834 -0.8997 0.2085
vn -0.9675 -0.2199 0.1249
vn -0.6221 -0.7227 -0.3011
vn 0.3482 -0.8670 -0.3565
vn 0.8109 -0.5404 -0.2246
vn 0.3418 -0.9227 -0.1783
vn -0.4258 -0.2352 0.8737
vn -0.3497 -0.2099 0.9130
vn -0.4770 -0.1574 0.8647
vn -0.4772 -0.0113 0.8787
vn -0.0207 -0.1896 0.9816
vn -0.9879 -0.0082 0.1547
vn -0.9332 -0.0041 0.3594
vn -0.2065 -0.9635 0.1702
vn -0.2085 -0.9704 0.1217
vn -0.2912 -0.9561 0.0314
vn -0.8821 -0.4338 -0.1834
vn -0.1244 0.9922 -0.0018
vn -0.0855 0.9531 0.2904
vn -0.0977 0.9525 0.2884
vn -0.2207 0.9368 0.2716
vn -0.3731 0.9278 0.0050
vn 0.8875 0.4609 -0.0019
vn 0.8744 0.4822 0.0544
vn 0.8963 -0.0005 0.4435
vn 0.8882 -0.1696 0.4270
vn 0.9783 -0.1976 -0.0623
vn 0.6997 -0.7143 0.0130
vn 0.6765 -0.7250 -0.1291
vn 0.6476 -0.7449 -0.1603
vn 0.6138 -0.7876 0.0549
vn 0.7619 0.6477 0.0047
vn 0.4167 0.9090 0.0055
vn 0.4026 0.8873 0.2249
vn 0.3147 0.9492 -0.0040
vn 0.1178 0.9930 -0.0026
vn 0.3197 -0.9468 0.0364
vn 0.2586 -0.9488 0.1815
vn 0.4624 -0.8206 0.3358
vn -0.2378 -0.7732 0.5878
vn -0.3902 -0.6924 0.6069
vn -0.4750 -0.6579 0.5845
vn -0.1836 -0.2408 0.9530
vn -0.0091 -0.6188 0.7855
vn -0.0082 -0.2273 0.9738
vn -0.0251 -0.7599 0.6495
vn -0.3322 -0.7516 0.5699
vn -0.0293 -0.9533 0.3007
vn -0.7018 -0.6880 0.1846
vn -0.5433 -0.7756 -0.3213
vn -0.5993 -0.7383 -0.3094
vn -0.6322 -0.7727 0.0576
vn 0.5042 -0.7979 -0.3305
vn 0.7970 -0.0043 0.6040
vn 0.7283 0.0101 0.6852
vn 0.8290 -0.2081 0.5190
vn 0.0581 0.0046 0.9983
vn 0.0673 0.0028 0.9977
vn 0.0763 -0.1698 0.9825
vn 0.5219 -0.0073 0.8530
vn 0.5160 -0.2043 0.8319
vn 0.4700 -0.6388 0.6091
vn -0.9818 -0.1348 0.1341
vn -0.9869 -0.1550 -0.0441
vn -0.5218 -0.7031 0.4831
vn -0.0016 -0.9287 -0.3708
vn -0.4375 -0.8939 0.0977
vn -0.2202 -0.9188 0.3277
vn -0.4678 -0.8711 -0.1496
vn -0.8043 -0.5490 -0.2276
vn -0.9498 -0.2934 -0.1086
vn -0.7139 -0.6849 -0.1457
vn -0.7292 -0.1852 0.6588
vn -0.0748 0.9972 0.0047
vn -0.2112 0.9774 0.0026
vn -0.2255 0.9360 0.2704
vn -0.5321 0.8466 0.0022
vn -0.3639 0.9010 0.2361
vn -0.3804 0.8951 0.2326
vn 0.8957 -0.0007 0.4447
vn 0.9111 -0.2070 0.3563
vn 0.9148 -0.1834 0.3599
vn 0.9642 -0.2037 0.1696
vn 0.6436 0.7507 0.1489
vn 0.9514 -0.2883 -0.1082
vn 0.9795 -0.1556 0.1278
vn 0.9688 -0.2253 0.1027
vn 0.7485 -0.6580 0.0819
vn 0.5229 0.8524 -0.0051
vn 0.5744 0.8007 0.1700
vn 0.1224 -0.9853 0.1193
vn 0.0839 -0.9928 -0.0849
vn 0.4060 -0.8657 0.2926
vn 0.1160 -0.8684 0.4821
vn -0.3371 -0.6285 0.7009
vn 0.2841 -0.7626 0.5812
vn 0.2765 -0.7605 0.5876
vn 0.1418 -0.2210 0.9649
vn -0.1449 -0.6536 0.7429
vn -0.0466 -0.7868 0.6154
vn -0.6152 -0.2310 0.7537
vn -0.4986 -0.7550 0.4257
vn -0.6551 -0.6794 0.3305
vn -0.7055 -0.6489 0.2851
vn -0.7919 -0.6031 0.0957
vn -0.7517 -0.6573 -0.0529
vn -0.6550 -0.7354 -0.1737
vn 0.4348 -0.8890 0.1433
vn 0.7144 -0.1910 0.6732
vn 0.7121 -0.1967 0.6740
vn 0.2821 -0.6647 0.6918
vn 0.5192 -0.1799 0.8355
vn 0.6722 -0.0041 0.7404
vn 0.4645 -0.7985 0.3829
vn 0.4293 -0.7889 0.4398
vn 0.4670 -0.6749 0.5714
vn -0.2180 -0.2205 0.9507
vn -0.5492 -0.1906 0.8137
vn -0.9072 -0.1920 0.3743
vn -0.9322 -0.1665 0.3214
vn -0.8577 -0.1902 0.4777
vn -0.7259 -0.2019 0.6575
vn -0.9668 -0.1641 0.1956
vn 0.1002 -0.9669 -0.2345
vn -0.2837 -0.9570 -0.0606
vn -0.2409 -0.9456 0.2185
vn -0.6195 0.7850 -0.0029
vn -0.9372 0.3476 0.0291
vn -0.3001 0.9539 -0.0025
vn 0.8839 0.4676 -0.0004
vn 0.9298 -0.2278 0.2893
vn 0.6609 -0.7011 0.2677
vn 0.6585 -0.6691 0.3445
vn 0.2792 0.9245 0.2597
vn 0.3915 -0.8922 0.2251
vn 0.2443 -0.8821 0.4027
vn 0.1711 -0.7929 0.5848
vn -0.5488 -0.2050 0.8104
vn 0.4313 -0.7192 0.5448
vn 0.3107 -0.8277 0.4674
vn 0.1887 -0.2390 0.9525
vn -0.0646 -0.6892 0.7217
vn -0.6576 -0.6042 0.4501
vn -0.5884 -0.8032 -0.0927
vn -0.6008 -0.7990 0.0226
vn 0.3806 -0.8979 -0.2211
vn 0.5357 -0.8422 -0.0614
vn 0.3983 -0.9173 -0.0029
vn 0.4918 -0.8413 -0.2242
vn 0.5839 -0.7822 0.2172
vn 0.7821 -0.1729 0.5986
vn 0.7716 -0.2302 0.5930
vn 0.5205 -0.1790 0.8349
vn 0.6624 -0.1628 0.7313
vn 0.5861 -0.2364 0.7750
vn -0.8368 -0.1684 0.5209
vn -0.1723 -0.9564 -0.2358
vn -0.3577 -0.9258 -0.1217
vn -0.4844 0.8748 -0.0031
vn -0.7777 0.6286 0.0007
vn -0.8693 0.4910 0.0574
vn 0.7235 -0.6543 0.2203
vn 0.9879 -0.0050 0.1552
vn -0.0555 -0.9969 0.0554
vn -0.2121 -0.9729 -0.0922
vn 0.0490 -0.9878 -0.1475
vn 0.3119 -0.1635 0.9359
vn 0.1677 -0.6574 0.7347
vn 0.1605 -0.6414 0.7503
vn -0.7922 -0.2272 0.5665
vn 0.5521 -0.8226 -0.1363
vn 0.5740 -0.8046 0.1520
vn 0.3833 -0.2294 0.8947
vn 0.3199 -0.2114 0.9236
vn -0.1072 -0.9650 -0.2393
vn 0.2487 -0.9510 -0.1837
vn 0.1991 -0.9495 -0.2424
vn -0.6681 0.7440 0.0029
vn -0.6494 0.7466 0.1442
vn -0.7638 0.6454 -0.0025
vn -0.7628 0.6389 0.0999
vn -0.8962 0.4436 -0.0049
vn 0.8643 -0.2292 0.4478
vn 0.8334 -0.1894 0.5191
vn 0.5981 -0.6785 0.4265
vn 0.5975 -0.6539 0.4641
vn 0.9728 0.0036 0.2315
vn 0.9549 -0.0031 0.2968
vn -0.0989 -0.9936 -0.0538
vn 0.2008 -0.8959 0.3962
vn 0.2807 -0.6625 0.6945
vn 0.2972 -0.1732 0.9390
vn -0.9408 0.3391 0.0043
vn -0.0444 -0.9876 -0.1503
vn 0.1521 -0.1872 0.9705
vn -0.8751 0.4840 0.0009
vn 0.0000 0.0000 -1.0000
vn 0.0001 0.0005 -1.0000
vn -0.0001 -0.0000 -1.0000
vn 0.0001 -0.0001 -1.0000
vn -0.0001 -0.0002 -1.0000
vn 0.0004 0.0000 -1.0000
vn -0.0001 0.0001 -1.0000
vn -0.0000 -0.0003 -1.0000
vn -0.0004 0.0001 -1.0000
usemtl None
s off
f 1//1 2//1 3//1
f 4//2 5//2 6//2
f 7//3 8//3 9//3
f 10//4 11//4 12//4
f 13//5 14//5 15//5
f 16//6 17//6 18//6
f 19//7 20//7 21//7
f 22//8 23//8 24//8
f 25//9 15//9 14//9
f 26//10 27//10 14//10
f 28//11 29//11 30//11
f 31//12 32//12 33//12
f 11//13 34//13 12//13
f 35//14 13//14 15//14
f 36//15 37//15 5//15
f 38//16 37//16 36//16
f 20//17 39//17 21//17
f 40//18 29//18 28//18
f 34//19 41//19 42//19
f 34//20 42//20 12//20
f 16//21 18//21 42//21
f 41//22 16//22 42//22
f 43//23 5//23 4//23
f 43//24 36//24 5//24
f 4//25 15//25 25//25
f 20//26 44//26 45//26
f 45//27 46//27 20//27
f 47//28 48//28 45//28
f 49//29 45//29 48//29
f 50//30 51//30 52//30
f 53//31 9//31 54//31
f 27//32 25//32 14//32
f 53//33 7//33 9//33
f 27//34 55//34 25//34
f 27//35 26//35 56//35
f 57//36 58//36 59//36
f 60//37 61//37 62//37
f 63//38 64//38 60//38
f 19//39 65//39 43//39
f 65//40 19//40 21//40
f 32//41 66//41 33//41
f 67//42 66//42 32//42
f 68//43 31//43 69//43
f 30//44 70//44 69//44
f 23//45 10//45 24//45
f 22//46 24//46 71//46
f 6//47 5//47 58//47
f 58//48 5//48 37//48
f 70//49 49//49 48//49
f 72//50 65//50 21//50
f 73//51 16//51 74//51
f 73//52 74//52 32//52
f 16//53 75//53 17//53
f 16//54 41//54 76//54
f 77//55 48//55 47//55
f 44//56 20//56 78//56
f 53//57 54//57 79//57
f 80//58 81//58 82//58
f 83//59 71//59 53//59
f 84//60 85//60 86//60
f 1//61 3//61 79//61
f 87//62 8//62 7//62
f 82//63 9//63 88//63
f 82//64 81//64 52//64
f 89//65 90//65 91//65
f 92//66 93//66 89//66
f 92//67 89//67 94//67
f 95//68 92//68 61//68
f 61//69 92//69 62//69
f 94//70 96//70 62//70
f 63//71 62//71 96//71
f 97//72 64//72 63//72
f 98//73 99//73 100//73
f 101//74 102//74 103//74
f 97//75 63//75 99//75
f 64//76 101//76 104//76
f 97//77 101//77 64//77
f 104//78 105//78 106//78
f 104//79 107//79 105//79
f 105//80 108//80 33//80
f 105//81 33//81 66//81
f 106//82 64//82 104//82
f 105//83 66//83 106//83
f 106//84 66//84 67//84
f 69//85 28//85 30//85
f 109//86 110//86 75//86
f 11//87 10//87 111//87
f 86//88 22//88 71//88
f 11//89 112//89 89//89
f 113//90 102//90 38//90
f 37//91 38//91 102//91
f 65//92 38//92 36//92
f 65//93 36//93 43//93
f 114//94 6//94 58//94
f 45//95 49//95 46//95
f 39//96 20//96 46//96
f 61//97 60//97 67//97
f 95//98 61//98 67//98
f 95//99 67//99 74//99
f 115//100 70//100 110//100
f 55//101 116//101 117//101
f 25//102 43//102 4//102
f 117//103 43//103 25//103
f 117//104 19//104 43//104
f 78//105 118//105 119//105
f 80//106 8//106 87//106
f 8//107 88//107 9//107
f 2//108 51//108 50//108
f 120//109 121//109 2//109
f 83//110 53//110 79//110
f 84//111 86//111 83//111
f 22//112 86//112 85//112
f 22//113 85//113 23//113
f 90//114 85//114 84//114
f 88//115 80//115 82//115
f 122//116 26//116 52//116
f 26//117 50//117 52//117
f 122//118 56//118 26//118
f 55//119 27//119 56//119
f 94//120 89//120 91//120
f 96//121 94//121 91//121
f 123//122 124//122 125//122
f 103//123 104//123 101//123
f 103//124 113//124 107//124
f 113//125 126//125 107//125
f 58//126 102//126 59//126
f 57//127 59//127 98//127
f 58//128 57//128 114//128
f 101//129 99//129 98//129
f 107//130 104//130 103//130
f 60//131 62//131 63//131
f 33//132 28//132 31//132
f 75//133 18//133 17//133
f 75//134 110//134 18//134
f 68//135 32//135 31//135
f 111//136 10//136 23//136
f 127//137 120//137 50//137
f 127//138 50//138 14//138
f 128//139 129//139 121//139
f 6//140 15//140 4//140
f 6//141 35//141 15//141
f 35//142 6//142 114//142
f 13//143 130//143 14//143
f 131//144 132//144 133//144
f 134//145 135//145 133//145
f 46//146 49//146 30//146
f 30//147 49//147 70//147
f 126//148 108//148 107//148
f 136//149 41//149 34//149
f 74//150 67//150 32//150
f 106//151 60//151 64//151
f 75//152 16//152 73//152
f 109//153 115//153 110//153
f 115//154 69//154 70//154
f 115//155 109//155 68//155
f 137//156 72//156 21//156
f 25//157 55//157 117//157
f 118//158 117//158 116//158
f 19//159 117//159 118//159
f 78//160 138//160 44//160
f 78//161 19//161 118//161
f 20//162 19//162 78//162
f 120//163 2//163 50//163
f 3//164 121//164 139//164
f 2//165 121//165 3//165
f 140//166 79//166 3//166
f 82//167 51//167 9//167
f 83//168 86//168 71//168
f 1//169 79//169 54//169
f 140//170 83//170 79//170
f 83//171 140//171 84//171
f 81//172 122//172 52//172
f 51//173 82//173 52//173
f 62//174 92//174 94//174
f 92//175 141//175 93//175
f 96//176 124//176 123//176
f 99//177 63//177 142//177
f 113//178 103//178 102//178
f 142//179 143//179 134//179
f 134//180 100//180 142//180
f 114//181 57//181 144//181
f 101//182 59//182 102//182
f 97//183 99//183 101//183
f 126//184 113//184 72//184
f 108//185 105//185 107//185
f 40//186 33//186 108//186
f 33//187 40//187 28//187
f 31//188 28//188 69//188
f 69//189 115//189 68//189
f 75//190 68//190 109//190
f 90//191 124//191 91//191
f 127//192 131//192 128//192
f 131//193 135//193 128//193
f 100//194 134//194 133//194
f 131//195 130//195 13//195
f 130//196 127//196 14//196
f 123//197 125//197 145//197
f 123//198 145//198 143//198
f 134//199 145//199 135//199
f 58//200 37//200 102//200
f 72//201 38//201 65//201
f 29//202 40//202 39//202
f 39//203 46//203 29//203
f 137//204 39//204 40//204
f 137//205 126//205 72//205
f 46//206 30//206 29//206
f 136//207 34//207 93//207
f 76//208 95//208 74//208
f 106//209 67//209 60//209
f 138//210 146//210 44//210
f 147//211 47//211 45//211
f 118//212 116//212 119//212
f 80//213 88//213 8//213
f 3//214 139//214 140//214
f 125//215 84//215 139//215
f 129//216 125//216 139//216
f 26//217 14//217 50//217
f 96//218 91//218 124//218
f 142//219 96//219 123//219
f 100//220 99//220 142//220
f 72//221 113//221 38//221
f 143//222 145//222 134//222
f 142//223 123//223 143//223
f 144//224 57//224 148//224
f 101//225 98//225 59//225
f 126//226 40//226 108//226
f 73//227 68//227 75//227
f 73//228 32//228 68//228
f 11//229 111//229 112//229
f 90//230 112//230 85//230
f 112//231 90//231 89//231
f 112//232 111//232 23//232
f 124//233 84//233 125//233
f 127//234 128//234 120//234
f 129//235 128//235 135//235
f 13//236 132//236 131//236
f 130//237 131//237 127//237
f 131//238 133//238 135//238
f 137//239 21//239 39//239
f 41//240 149//240 76//240
f 74//241 16//241 76//241
f 119//242 138//242 78//242
f 150//243 151//243 152//243
f 152//244 147//244 45//244
f 140//245 139//245 84//245
f 1//246 54//246 9//246
f 141//247 92//247 95//247
f 76//248 149//248 95//248
f 136//249 93//249 141//249
f 132//250 13//250 35//250
f 148//251 98//251 100//251
f 148//252 57//252 98//252
f 40//253 126//253 137//253
f 112//254 23//254 85//254
f 90//255 84//255 124//255
f 148//256 133//256 132//256
f 144//257 148//257 132//257
f 136//258 149//258 41//258
f 93//259 11//259 89//259
f 11//260 93//260 34//260
f 44//261 146//261 150//261
f 44//262 150//262 45//262
f 146//263 151//263 150//263
f 45//264 150//264 152//264
f 147//265 151//265 77//265
f 129//266 139//266 121//266
f 128//267 121//267 120//267
f 145//268 125//268 129//268
f 129//269 135//269 145//269
f 1//270 9//270 51//270
f 51//271 2//271 1//271
f 95//272 149//272 141//272
f 142//273 63//273 96//273
f 100//274 133//274 148//274
f 132//275 35//275 144//275
f 77//276 47//276 147//276
f 136//277 141//277 149//277
f 144//278 35//278 114//278
f 147//279 152//279 151//279
f 71//280 24//280 151//280
f 151//280 56//280 122//280
f 12//280 42//280 151//280
f 7//281 53//281 151//281
f 18//282 110//282 151//282
f 48//282 77//282 151//282
f 151//280 24//280 10//280
f 42//280 18//280 151//280
f 146//283 138//283 151//283
f 151//280 80//280 87//280
f 81//280 80//280 151//280
f 53//284 71//284 151//284
f 151//280 10//280 12//280
f 151//285 110//285 70//285
f 151//280 55//280 56//280
f 119//286 116//286 151//286
f 151//287 87//287 7//287
f 116//280 55//280 151//280
f 122//280 81//280 151//280
f 70//288 48//288 151//288
f 151//286 138//286 119//286
