# Blender v2.79 (sub 0) OBJ File: ''
# www.blender.org
mtllib link2.mtl
o Link2
v 0.054780 0.008755 0.000695
v 0.054985 0.001797 0.060077
v 0.054936 -0.194003 -0.005000
v 0.054135 0.009444 0.062822
v 0.031051 -0.126082 -0.045501
v 0.047601 0.028033 0.000490
v 0.050244 0.022674 0.063238
v 0.021205 -0.126588 -0.050810
v 0.039946 -0.124494 -0.037926
v 0.048413 -0.123261 -0.026532
v -0.051883 -0.194000 -0.018395
v -0.050014 -0.121697 -0.023261
v -0.046670 -0.194000 -0.029425
v -0.043963 0.033295 0.000490
v -0.036151 0.041648 0.064481
v -0.032099 0.045000 0.000508
v -0.015237 -0.017193 0.125084
v -0.023760 -0.194000 0.049712
v -0.010578 -0.194000 0.054149
v -0.025466 -0.016198 0.121439
v 0.030702 -0.016091 0.118495
v 0.021837 -0.194000 0.050687
v 0.036953 -0.194000 0.041087
v 0.016094 0.052763 0.064144
v 0.028599 0.047274 0.000500
v 0.013564 0.053444 0.000497
v 0.028720 0.047023 0.064773
v 0.003512 -0.125580 -0.054882
v 0.011452 -0.126129 -0.053787
v -0.013871 -0.126413 -0.053340
v 0.039076 0.038788 0.000497
v -0.043936 -0.011797 0.108632
v -0.046228 -0.003653 0.107627
v -0.048742 -0.193999 0.025965
v -0.054829 0.006423 0.000592
v -0.053447 -0.118112 -0.013166
v -0.055153 -0.194010 0.005101
v -0.054520 -0.194000 -0.008187
v -0.035829 -0.125777 -0.041827
v -0.051180 0.020557 0.000499
v -0.003430 -0.125759 -0.054876
v -0.017912 0.052124 0.000504
v -0.021417 0.050906 0.064564
v -0.007769 0.054505 0.064503
v -0.002460 0.055220 0.000493
v -0.051227 0.020371 0.062750
v 0.053404 -0.118713 -0.013523
v 0.000752 -0.007417 0.129075
v -0.003484 -0.016731 0.127099
v 0.006265 -0.018241 0.126383
v 0.005598 -0.194000 0.054903
v 0.037916 -0.014736 0.113617
v 0.046282 -0.003001 0.107483
v 0.047780 -0.194000 0.027475
v 0.053431 -0.194000 0.013614
v 0.044607 -0.011733 0.107859
v -0.010045 -0.001108 0.128719
v -0.006886 0.007743 0.128603
v -0.015039 0.011399 0.126577
v -0.036657 -0.015210 0.114621
v 0.044597 0.032246 0.063990
v 0.051786 0.001630 0.081572
v 0.049448 0.017366 0.079018
v 0.028294 -0.194000 -0.047250
v 0.045818 -0.194000 -0.030588
v 0.037325 -0.194000 -0.040575
v -0.051781 0.002211 0.081707
v -0.054916 0.004632 0.061059
v -0.037430 -0.194000 0.040666
v -0.027680 -0.126212 -0.047668
v -0.045213 0.031449 0.063457
v -0.039594 0.033347 0.083142
v -0.008551 0.050903 0.084596
v -0.019788 0.047468 0.085111
v -0.013023 0.044806 0.107063
v -0.025218 0.044866 0.084745
v -0.031319 0.040953 0.083982
v 0.003379 0.055008 0.064440
v 0.051759 -0.194000 -0.019092
v 0.019051 -0.017229 0.123856
v -0.014125 -0.009581 0.127168
v 0.029822 -0.008664 0.120929
v 0.024075 -0.004086 0.124500
v 0.003973 0.000518 0.129489
v -0.020886 -0.000462 0.125820
v -0.012976 -0.194000 -0.053589
v -0.000043 -0.194000 -0.055097
v 0.036488 0.041135 0.065520
v -0.043060 -0.123826 -0.034323
v 0.009017 0.012684 0.127561
v 0.002612 0.008569 0.128877
v 0.011859 -0.008311 0.127792
v 0.013767 0.020453 0.124378
v 0.017617 0.004251 0.126807
v 0.026031 0.009702 0.122739
v 0.045935 0.006738 0.107678
v 0.039298 -0.005929 0.114605
v 0.036384 0.003278 0.117268
v -0.025557 0.007950 0.123264
v -0.023691 0.021526 0.120405
v -0.032303 0.015809 0.117600
v -0.004348 0.017106 0.126883
v -0.014422 0.019931 0.124302
v 0.048610 0.010152 0.093321
v -0.046252 0.006992 0.106752
v -0.042764 0.005394 0.111331
v -0.026749 -0.194000 -0.048290
v 0.016019 -0.194000 -0.052881
v -0.051425 0.013273 0.074757
v -0.046531 0.023048 0.082205
v -0.037476 0.027545 0.107331
v -0.042532 0.018274 0.107673
v -0.026673 0.032484 0.112352
v -0.031162 0.034397 0.107352
v 0.001970 0.051202 0.086691
v -0.044065 0.015443 0.107130
v 0.000310 0.023519 0.124821
v 0.033109 0.013721 0.117691
v -0.030280 0.002256 0.121284
v -0.036204 0.007314 0.116785
v -0.031353 -0.008962 0.119999
v -0.038120 -0.194000 -0.039784
v 0.043851 0.023960 0.091848
v 0.039956 0.032570 0.084039
v -0.017877 0.042608 0.107975
v -0.005822 0.043059 0.110978
v -0.009527 0.037623 0.115319
v -0.017156 0.032361 0.117111
v -0.024455 0.039499 0.107471
v -0.038761 0.016625 0.112248
v -0.032079 0.025715 0.113308
v 0.016992 0.028742 0.119516
v 0.003126 0.032569 0.119968
v -0.002764 0.046319 0.107409
v 0.011449 0.050063 0.085647
v 0.042468 0.018754 0.107658
v 0.036581 0.028501 0.107512
v 0.034152 0.022474 0.113524
v -0.037452 -0.003133 0.116357
v 0.002943 0.040497 0.113812
v -0.011792 0.028698 0.120959
v 0.012030 0.039453 0.113150
v 0.020436 0.037216 0.111937
v 0.008742 0.045676 0.107309
v 0.027754 0.025289 0.116309
v 0.024247 0.019117 0.120984
v 0.039396 0.015644 0.111980
v 0.020000 0.046744 0.088105
v 0.026041 0.038696 0.106945
v 0.019662 0.042100 0.107295
v 0.024906 0.031369 0.114376
v 0.031728 0.034030 0.107127
vn 1.0000 0.0009 -0.0034
vn 0.9942 0.1072 0.0091
vn 0.5318 0.1892 -0.8255
vn 0.9371 0.3489 -0.0097
vn 0.4557 0.2093 -0.8652
vn 0.7953 0.0854 -0.6002
vn -0.9041 -0.0054 -0.4273
vn -0.7023 0.7118 -0.0072
vn -0.2973 -0.3622 0.8834
vn -0.3443 -0.3541 0.8695
vn 0.5062 -0.3291 0.7972
vn 0.3796 0.9251 -0.0052
vn 0.4138 0.9104 0.0028
vn 0.1502 0.2818 -0.9476
vn 0.1181 0.2874 -0.9505
vn -0.2593 0.2643 -0.9290
vn 0.3147 0.2501 -0.9157
vn 0.2933 0.2542 -0.9216
vn 0.2198 0.2716 -0.9370
vn 0.9594 0.2820 0.0068
vn 0.6249 0.1524 -0.7657
vn -0.8668 -0.1869 0.4623
vn -0.9436 0.0260 -0.3301
vn -0.9989 0.0005 -0.0476
vn -0.6239 0.1560 -0.7657
vn -0.1569 0.2808 -0.9469
vn -0.1427 0.2836 -0.9483
vn -0.4487 0.8936 -0.0076
vn -0.2550 0.9669 0.0044
vn -0.1965 0.9805 -0.0053
vn -0.9683 0.2500 0.0000
vn 0.9905 0.0046 -0.1372
vn 0.0369 -0.2234 0.9740
vn 0.0097 -0.3767 0.9263
vn -0.0431 -0.3787 0.9245
vn 0.5718 -0.3103 0.7594
vn 0.9156 -0.1492 0.3733
vn 0.9066 -0.1570 0.3917
vn 0.6949 -0.2729 0.6653
vn -0.2040 0.0855 0.9752
vn -0.5127 -0.3254 0.7945
vn 0.0328 0.2937 -0.9553
vn 0.8615 0.5076 0.0071
vn 0.9874 0.0568 0.1474
vn 0.9510 0.2753 0.1406
vn 0.4744 0.0034 -0.8803
vn 0.7618 -0.0040 -0.6478
vn 0.8024 0.0048 -0.5968
vn 0.6479 0.0046 -0.7617
vn -0.9787 -0.0598 0.1962
vn -0.9886 -0.0398 0.1454
vn -0.9682 -0.0027 -0.2501
vn -0.6846 -0.2761 0.6746
vn -0.9465 0.0027 -0.3228
vn -0.9899 0.0047 -0.1419
vn -1.0000 0.0016 -0.0014
vn -0.5675 0.1733 -0.8049
vn -0.7465 0.6482 0.1506
vn -0.0593 0.2923 -0.9545
vn -0.0083 0.2926 -0.9562
vn -0.2800 0.9430 0.1800
vn -0.2781 0.9396 0.1996
vn -0.5265 0.8366 0.1512
vn -0.5470 0.8207 0.1648
vn -0.5321 0.8466 0.0107
vn 0.1102 0.9939 -0.0068
vn 0.1739 0.9847 0.0036
vn 0.9755 -0.0050 -0.2199
vn 0.9295 0.0309 -0.3674
vn 0.2336 -0.3687 0.8997
vn 0.2082 -0.3691 0.9057
vn -0.1023 -0.1617 0.9815
vn 0.3997 -0.1967 0.8953
vn 0.4202 -0.3414 0.8408
vn 0.7573 -0.2525 0.6023
vn 0.9964 -0.0270 0.0805
vn 0.9883 -0.0427 0.1468
vn -0.0512 -0.0314 0.9982
vn -0.1077 -0.1286 0.9858
vn -0.9498 -0.1127 0.2919
vn -0.2543 0.0637 0.9650
vn -0.5221 -0.3241 0.7889
vn -0.1158 -0.0025 -0.9933
vn 0.9785 -0.0602 0.1971
vn 0.7837 0.6212 -0.0041
vn 0.7391 0.6735 0.0051
vn 0.6294 0.7771 -0.0030
vn -0.7678 -0.2478 0.5908
vn -0.6978 0.1260 -0.7051
vn -0.7478 0.6640 0.0046
vn -0.0450 0.9990 0.0074
vn 0.9329 0.0063 -0.3601
vn 0.1392 0.0985 0.9854
vn -0.1427 -0.3718 0.9173
vn 0.0972 -0.1933 0.9763
vn -0.1549 -0.2397 0.9584
vn 0.3102 0.2127 0.9266
vn 0.4251 -0.2360 0.8738
vn 0.7117 0.0112 0.7024
vn 0.7051 0.0182 0.7089
vn -0.4422 0.2426 0.8635
vn -0.2609 -0.0509 0.9640
vn -0.1688 0.2654 0.9492
vn 0.2862 0.2082 0.9353
vn -0.3292 0.1023 0.9387
vn -0.0009 0.0032 -1.0000
vn 0.9766 0.0305 0.2129
vn 0.9757 0.0851 0.2020
vn 0.5944 -0.0034 -0.8042
vn 0.8883 -0.0063 -0.4591
vn -0.7862 0.0488 0.6160
vn -0.9770 0.0153 0.2128
vn -0.3665 0.2344 -0.9004
vn -0.4016 0.2269 -0.8873
vn 0.0000 -1.0000 -0.0001
vn 0.0000 -1.0000 -0.0000
vn -0.0001 -1.0000 -0.0000
vn -0.0011 -1.0000 0.0000
vn -0.9275 0.3282 0.1787
vn -0.8788 0.4771 0.0008
vn -0.8701 0.4929 -0.0028
vn -0.8230 0.5377 0.1831
vn -0.8524 0.4731 0.2225
vn -0.8732 0.4647 0.1468
vn -0.3799 0.0033 -0.9250
vn -0.4349 0.8819 0.1820
vn -0.5422 0.4976 0.6770
vn -0.2510 0.9544 0.1614
vn -0.0625 0.9828 0.1738
vn -0.9506 0.2371 0.2002
vn -0.9702 0.2154 0.1114
vn -0.9737 0.2276 0.0053
vn 0.0549 0.2693 0.9615
vn 0.1066 -0.0950 0.9897
vn 0.1697 0.0853 0.9818
vn 0.4030 0.0595 0.9133
vn 0.5254 0.1307 0.8407
vn 0.3092 -0.1641 0.9367
vn 0.6876 -0.1866 0.7017
vn -0.0588 0.0340 0.9977
vn -0.0348 0.0700 0.9969
vn -0.5290 0.1481 0.8356
vn -0.5112 0.1535 0.8456
vn -0.1431 0.2162 0.9658
vn 0.1043 0.3218 0.9410
vn 0.0274 0.2657 0.9637
vn -0.1261 0.3856 0.9140
vn -0.3844 -0.1504 0.9108
vn 0.1367 -0.0040 -0.9906
vn 0.1364 -0.0040 -0.9906
vn -0.1457 0.0017 -0.9893
vn -0.8385 0.0691 -0.5404
vn -0.7197 0.0034 -0.6943
vn 0.8955 0.4063 0.1818
vn 0.7427 0.6499 0.1614
vn 0.9601 0.2230 0.1688
vn 0.9769 0.1240 0.1741
vn 0.4170 -0.0042 -0.9089
vn 0.2922 0.0069 -0.9563
vn -0.7553 0.1672 0.6337
vn -0.9713 0.1482 0.1861
vn 0.0034 -1.0000 -0.0006
vn -0.5990 -0.0039 -0.8008
vn -0.9282 0.3203 0.1896
vn -0.3671 0.9031 0.2226
vn -0.1949 0.7108 0.6758
vn -0.1990 0.6908 0.6951
vn -0.3480 0.6101 0.7118
vn -0.3420 0.6072 0.7172
vn -0.6440 0.3758 0.6664
vn -0.6255 0.3803 0.6812
vn -0.3888 0.4745 0.7897
vn -0.4318 0.4549 0.7789
vn -0.5443 0.5269 0.6528
vn -0.8210 0.5347 0.2002
vn -0.0435 0.9852 0.1658
vn -0.9772 0.1346 0.1641
vn -0.2643 0.6314 0.7290
vn 0.1541 0.4546 0.8773
vn -0.1364 0.7868 0.6020
vn 0.1364 0.9750 0.1754
vn 0.1752 0.9715 0.1598
vn -0.0702 0.9744 0.2136
vn 0.6409 0.3970 0.6570
vn 0.4872 0.0423 0.8723
vn 0.2068 -0.2507 0.9457
vn 0.5740 -0.1797 0.7989
vn 0.5823 -0.1900 0.7904
vn -0.5756 0.3360 0.7455
vn -0.3345 0.2653 0.9043
vn -0.7045 -0.0207 0.7094
vn -0.6089 0.2060 0.7660
vn -0.0450 0.1923 0.9803
vn -0.0570 0.6465 0.7608
vn -0.0456 0.6120 0.7895
vn -0.0688 0.4880 0.8701
vn -0.1263 0.3862 0.9137
vn -0.5190 -0.2602 0.8142
vn -0.7712 -0.0048 -0.6366
vn -0.8460 0.0063 -0.5331
vn 0.6040 0.7970 0.0020
vn -0.6097 -0.1519 0.7779
vn -0.5825 -0.0005 -0.8128
vn -0.5463 0.8109 0.2098
vn -0.4335 0.8736 0.2209
vn -0.4305 0.8749 0.2219
vn -0.5929 0.7743 0.2212
vn -0.6745 0.7127 0.1925
vn -0.1963 0.5589 0.8057
vn 0.2764 -0.0515 0.9597
vn 0.1963 -0.0131 0.9804
vn 0.2656 0.5805 0.7697
vn 0.1818 0.5632 0.8061
vn 0.1321 0.7146 0.6869
vn 0.1396 0.9670 0.2133
vn 0.4974 0.3263 0.8038
vn 0.4941 0.3250 0.8064
vn 0.4660 0.2467 0.8497
vn 0.3263 0.2326 0.9162
vn 0.6384 0.3334 0.6937
vn 0.7321 -0.1114 0.6720
vn 0.5658 -0.0588 0.8224
vn 0.5157 -0.0208 0.8565
vn -0.8751 0.4318 0.2184
vn -0.6466 0.0461 0.7615
vn -0.3622 0.2395 0.9008
vn -0.3049 0.4406 0.8444
vn -0.0869 0.5478 0.8321
vn -0.3849 -0.1313 0.9136
vn -0.3461 -0.2003 0.9166
vn 0.5031 0.8412 0.1981
vn 0.8235 0.5374 0.1819
vn 0.8547 0.4909 0.1689
vn -0.6690 -0.1487 0.7283
vn -0.6978 -0.1090 0.7080
vn -0.3590 -0.0013 -0.9333
vn -0.4677 0.5997 0.6493
vn -0.6736 0.7104 0.2038
vn -0.7175 0.6605 0.2213
vn -0.0018 0.7390 0.6737
vn -0.1496 0.9614 0.2311
vn 0.2395 0.7288 0.6415
vn 0.2794 0.6844 0.6735
vn 0.4689 0.8565 0.2156
vn 0.8296 0.5047 0.2387
vn 0.3129 0.5594 0.7676
vn 0.8039 0.5558 0.2119
vn 0.5289 0.4829 0.6979
vn -0.6568 0.2169 0.7222
vn -0.2907 0.4158 0.8618
vn -0.5844 0.0366 0.8106
vn -0.5429 -0.0441 0.8386
vn -0.4479 -0.0594 0.8921
vn -0.4254 0.0384 0.9042
vn 0.1289 0.4372 0.8901
vn 0.9269 0.3104 0.2109
vn 0.9049 0.3743 0.2024
vn 0.0482 0.7600 0.6482
vn 0.0563 0.9688 0.2412
vn 0.9331 0.2697 0.2379
vn 0.5179 0.4699 0.7148
vn 0.3284 0.3795 0.8649
vn 0.7260 0.6524 0.2175
vn 0.7198 0.2088 0.6620
vn 0.5946 0.2868 0.7511
vn -0.7187 0.2019 0.6654
vn -0.6592 0.1753 0.7312
vn -0.4941 0.3550 0.7936
vn 0.1271 0.6102 0.7820
vn 0.6176 0.7605 0.2005
vn 0.5809 0.7908 0.1930
vn 0.4018 0.9015 0.1609
vn 0.5258 0.5089 0.6816
vn 0.3903 0.6660 0.6357
vn 0.3092 0.9330 0.1840
vn 0.3032 0.9250 0.2292
vn 0.3829 0.4380 0.8134
vn 0.3791 0.4122 0.8285
vn 0.6813 0.7046 0.1983
vn 0.6743 0.1454 0.7240
vn 0.6341 0.1683 0.7547
vn 0.4323 0.6082 0.6657
vn 0.4659 0.5935 0.6563
vn 0.2956 0.9284 0.2250
usemtl None
s off
f 1//1 2//1 3//1
f 1//2 4//2 2//2
f 5//3 6//3 1//3
f 6//4 7//4 1//4
f 5//5 8//5 6//5
f 9//6 1//6 10//6
f 11//7 12//7 13//7
f 14//8 15//8 16//8
f 17//9 18//9 19//9
f 20//10 18//10 17//10
f 21//11 22//11 23//11
f 24//12 25//12 26//12
f 25//13 24//13 27//13
f 28//14 25//14 29//14
f 28//15 26//15 25//15
f 16//16 30//16 14//16
f 8//17 31//17 6//17
f 29//18 31//18 8//18
f 29//19 25//19 31//19
f 7//20 4//20 1//20
f 5//21 1//21 9//21
f 32//22 33//22 34//22
f 35//23 12//23 36//23
f 37//24 35//24 38//24
f 39//25 35//25 40//25
f 16//26 41//26 30//26
f 42//27 41//27 16//27
f 16//28 43//28 42//28
f 44//29 42//29 43//29
f 44//30 45//30 42//30
f 46//31 40//31 35//31
f 3//32 47//32 1//32
f 48//33 49//33 50//33
f 49//34 51//34 50//34
f 49//35 19//35 51//35
f 52//36 21//36 23//36
f 53//37 54//37 55//37
f 53//38 56//38 54//38
f 52//39 23//39 56//39
f 57//40 58//40 59//40
f 18//41 20//41 60//41
f 28//42 45//42 26//42
f 7//43 6//43 61//43
f 2//44 4//44 62//44
f 4//45 7//45 63//45
f 8//46 5//46 64//46
f 9//47 65//47 66//47
f 10//48 65//48 9//48
f 66//49 5//49 9//49
f 33//50 67//50 37//50
f 67//51 68//51 37//51
f 36//52 11//52 38//52
f 32//53 69//53 60//53
f 36//54 12//54 11//54
f 38//55 35//55 36//55
f 68//56 35//56 37//56
f 70//57 39//57 40//57
f 15//58 71//58 72//58
f 41//59 42//59 45//59
f 41//60 45//60 28//60
f 73//61 43//61 74//61
f 73//62 74//62 75//62
f 76//63 43//63 15//63
f 15//64 77//64 76//64
f 43//65 16//65 15//65
f 78//66 26//66 45//66
f 78//67 24//67 26//67
f 79//68 47//68 3//68
f 1//69 47//69 10//69
f 80//70 51//70 22//70
f 80//71 50//71 51//71
f 81//72 49//72 48//72
f 82//73 83//73 80//73
f 21//74 80//74 22//74
f 56//75 23//75 54//75
f 55//76 3//76 2//76
f 2//77 62//77 55//77
f 84//78 57//78 48//78
f 57//79 81//79 48//79
f 33//80 37//80 34//80
f 85//81 57//81 59//81
f 69//82 18//82 60//82
f 86//83 41//83 87//83
f 53//84 55//84 62//84
f 31//85 61//85 6//85
f 61//86 31//86 88//86
f 31//87 25//87 88//87
f 32//88 34//88 69//88
f 35//89 39//89 89//89
f 14//90 71//90 15//90
f 44//91 78//91 45//91
f 79//92 10//92 47//92
f 90//93 91//93 84//93
f 49//94 17//94 19//94
f 92//95 48//95 50//95
f 49//96 81//96 17//96
f 93//97 94//97 95//97
f 80//98 21//98 82//98
f 96//99 97//99 53//99
f 96//100 98//100 97//100
f 99//101 100//101 101//101
f 81//102 57//102 85//102
f 102//103 103//103 59//103
f 90//104 94//104 93//104
f 85//105 59//105 99//105
f 41//106 28//106 87//106
f 62//107 96//107 53//107
f 62//108 104//108 96//108
f 5//109 66//109 64//109
f 65//110 10//110 79//110
f 105//111 33//111 106//111
f 67//112 33//112 105//112
f 30//113 70//113 14//113
f 70//114 40//114 14//114
f 79//115 107//115 86//115
f 66//116 65//116 79//116
f 79//116 19//116 18//116
f 23//116 22//116 79//116
f 79//116 108//116 64//116
f 79//117 55//117 54//117
f 79//116 22//116 51//116
f 79//116 51//116 19//116
f 79//116 54//116 23//116
f 79//116 86//116 87//116
f 79//117 64//117 66//117
f 87//116 108//116 79//116
f 79//118 3//118 55//118
f 109//119 110//119 46//119
f 71//120 40//120 46//120
f 40//121 71//121 14//121
f 110//122 72//122 71//122
f 111//123 110//123 112//123
f 110//124 71//124 46//124
f 107//125 70//125 30//125
f 76//126 74//126 43//126
f 111//127 113//127 114//127
f 43//128 73//128 44//128
f 115//129 44//129 73//129
f 116//130 109//130 105//130
f 68//131 109//131 46//131
f 68//132 46//132 35//132
f 102//133 91//133 117//133
f 48//134 92//134 84//134
f 94//135 90//135 84//135
f 94//136 83//136 95//136
f 95//137 98//137 118//137
f 80//138 83//138 92//138
f 97//139 52//139 56//139
f 84//140 58//140 57//140
f 84//141 91//141 58//141
f 119//142 99//142 101//142
f 120//143 119//143 101//143
f 58//144 102//144 59//144
f 117//145 90//145 93//145
f 91//146 90//146 117//146
f 117//147 103//147 102//147
f 85//148 121//148 81//148
f 28//149 108//149 87//149
f 108//150 28//150 29//150
f 41//151 86//151 30//151
f 89//152 12//152 35//152
f 39//153 122//153 89//153
f 7//154 123//154 63//154
f 88//155 124//155 61//155
f 4//156 63//156 104//156
f 104//157 62//157 4//157
f 64//158 108//158 8//158
f 108//159 29//159 8//159
f 116//160 105//160 106//160
f 105//161 109//161 67//161
f 38//116 122//116 107//116
f 79//116 38//116 107//116
f 38//117 13//117 122//117
f 38//117 11//117 13//117
f 38//162 34//162 37//162
f 38//117 69//117 34//117
f 18//116 69//116 38//116
f 38//116 79//116 18//116
f 122//163 39//163 107//163
f 110//164 109//164 116//164
f 75//165 74//165 125//165
f 126//166 75//166 125//166
f 127//167 126//167 125//167
f 113//168 128//168 125//168
f 113//169 125//169 129//169
f 111//170 112//170 130//170
f 131//171 111//171 130//171
f 100//172 128//172 113//172
f 113//173 131//173 100//173
f 113//174 111//174 131//174
f 111//175 72//175 110//175
f 44//176 115//176 78//176
f 68//177 67//177 109//177
f 125//178 128//178 127//178
f 132//179 133//179 93//179
f 126//180 134//180 75//180
f 135//181 78//181 115//181
f 135//182 24//182 78//182
f 134//183 115//183 73//183
f 136//184 137//184 138//184
f 95//185 83//185 98//185
f 92//186 50//186 80//186
f 21//187 52//187 97//187
f 97//188 82//188 21//188
f 101//189 131//189 130//189
f 103//190 100//190 59//190
f 106//191 33//191 139//191
f 120//192 101//192 130//192
f 58//193 91//193 102//193
f 126//194 127//194 140//194
f 140//195 127//195 133//195
f 141//196 117//196 133//196
f 117//197 141//197 103//197
f 121//198 60//198 20//198
f 89//199 122//199 13//199
f 89//200 13//200 12//200
f 27//201 88//201 25//201
f 121//202 139//202 60//202
f 39//203 70//203 107//203
f 77//204 129//204 76//204
f 74//205 76//205 129//205
f 74//206 129//206 125//206
f 114//207 129//207 77//207
f 77//208 15//208 72//208
f 127//209 128//209 141//209
f 94//210 92//210 83//210
f 94//211 84//211 92//211
f 142//212 132//212 143//212
f 142//213 133//213 132//213
f 144//214 140//214 142//214
f 135//215 115//215 144//215
f 145//216 146//216 118//216
f 118//217 138//217 145//217
f 95//218 118//218 146//218
f 93//219 95//219 146//219
f 136//220 138//220 147//220
f 53//221 97//221 56//221
f 97//222 98//222 82//222
f 82//223 98//223 83//223
f 112//224 110//224 116//224
f 106//225 139//225 120//225
f 99//226 59//226 100//226
f 100//227 141//227 128//227
f 141//228 133//228 127//228
f 20//229 81//229 121//229
f 20//230 17//230 81//230
f 148//231 149//231 27//231
f 124//232 123//232 61//232
f 7//233 61//233 123//233
f 60//234 139//234 32//234
f 139//235 33//235 32//235
f 107//236 30//236 86//236
f 129//237 114//237 113//237
f 72//238 114//238 77//238
f 72//239 111//239 114//239
f 140//240 134//240 126//240
f 134//241 73//241 75//241
f 150//242 144//242 142//242
f 150//243 142//243 143//243
f 150//244 149//244 148//244
f 136//245 123//245 137//245
f 151//246 143//246 132//246
f 124//247 137//247 123//247
f 151//248 138//248 137//248
f 106//249 112//249 116//249
f 141//250 100//250 103//250
f 120//251 139//251 119//251
f 121//252 119//252 139//252
f 119//253 121//253 85//253
f 99//254 119//254 85//254
f 117//255 93//255 133//255
f 63//256 136//256 104//256
f 123//257 136//257 63//257
f 134//258 140//258 144//258
f 115//259 134//259 144//259
f 136//260 96//260 104//260
f 145//261 138//261 151//261
f 132//262 93//262 146//262
f 152//263 137//263 124//263
f 96//264 136//264 147//264
f 147//265 138//265 118//265
f 106//266 130//266 112//266
f 130//267 106//267 120//267
f 101//268 100//268 131//268
f 142//269 140//269 133//269
f 88//270 149//270 152//270
f 88//271 27//271 149//271
f 24//272 148//272 27//272
f 152//273 151//273 137//273
f 150//274 143//274 149//274
f 148//275 24//275 135//275
f 144//276 150//276 148//276
f 132//277 145//277 151//277
f 132//278 146//278 145//278
f 152//279 124//279 88//279
f 98//280 96//280 147//280
f 98//281 147//281 118//281
f 143//282 151//282 149//282
f 151//283 152//283 149//283
f 148//284 135//284 144//284
