####
#
# OBJ File Generated by Meshlab
#
####
# Object arm_roll.collision.obj
#
# Vertices: 47
# Faces: 90
#
####
vn -0.035715 0.145166 0.009723
v -0.034163 0.053429 -0.032344
vn -0.379544 1.542685 0.103332
v -0.039398 0.057057 -0.105746
vn 0.619532 -0.539866 0.129891
v 0.020259 -0.045765 0.014566
vn 1.120754 0.471811 -1.551065
v 0.030018 0.055146 -0.104854
vn -0.000761 -0.000909 -0.454055
v 0.024912 0.057047 -0.107966
vn -0.138609 -0.041349 0.001507
v -0.043358 -0.035037 -0.105654
vn -1.271291 -0.491868 0.431819
v -0.040158 -0.043110 -0.032857
vn 0.193584 0.001410 0.069837
v 0.028063 -0.039069 0.005178
vn 0.484512 -0.286177 0.582138
v 0.009518 -0.044621 0.024068
vn 0.571414 -0.337505 0.686551
v 0.022064 -0.033898 0.018897
vn 0.107275 0.000734 0.171810
v 0.009649 0.040564 0.026331
vn -0.752437 -0.000726 0.716631
v -0.016737 -0.037293 0.023688
vn 0.002418 0.067680 -0.040777
v -0.028609 0.059770 -0.106619
vn -0.036187 0.000722 0.173315
v -0.003538 -0.039921 0.027774
vn 0.350031 0.383981 0.181500
v 0.016461 0.047407 0.015929
vn 1.204276 1.321080 0.624446
v 0.020582 0.049225 0.004134
vn -0.161074 -2.012954 0.524920
v -0.010483 -0.046778 0.020924
vn -0.032955 -0.411846 0.107397
v 0.006703 -0.048434 0.019850
vn 0.031367 0.345899 0.032647
v 0.022994 0.059252 -0.104420
vn -0.003184 0.138985 0.020310
v -0.000860 0.055612 -0.042933
vn 1.501294 -0.001213 0.100809
v 0.031662 0.039189 -0.045280
vn 2.093694 -1.556337 0.047125
v 0.030868 -0.036982 -0.034371
vn -0.014699 -0.249992 0.000931
v -0.017344 -0.048802 0.011057
vn 0.023001 0.001061 0.140587
v 0.009109 -0.035392 0.026993
vn 0.276485 0.012748 1.689904
v -0.000693 0.037599 0.028046
vn -0.031133 -1.797882 -2.179111
v -0.023183 -0.048895 -0.105924
vn -0.000729 -0.042127 -0.051060
v 0.018397 -0.047407 -0.107746
vn -0.106184 0.056317 0.046264
v -0.022494 0.045029 0.015569
vn 0.465397 -0.001160 0.032952
v 0.028462 0.042854 0.002416
vn 0.539734 -1.664672 -0.024370
v 0.026704 -0.044743 -0.105703
vn 0.123288 -0.489416 0.069147
v 0.022172 -0.047720 -0.002685
vn 0.070418 0.442869 0.337412
v -0.009445 0.047293 0.021485
vn -1.044520 0.015330 1.104800
v -0.013980 0.035996 0.025278
vn -0.747647 -0.002487 0.001896
v -0.043636 0.048369 -0.105887
vn 0.151678 -0.178425 -0.384120
v 0.030689 -0.037457 -0.107514
vn -0.067333 -0.128190 0.000386
v -0.033934 -0.046605 -0.107660
vn -0.385075 -0.390431 0.468452
v -0.024815 -0.043480 0.011892
vn -0.022677 -0.000332 -0.024663
v -0.040362 -0.041718 -0.107685
vn -0.030180 -0.142905 -0.001602
v -0.030482 -0.048188 -0.031432
vn -0.117433 0.057220 0.003244
v -0.042116 0.047312 -0.032247
vn -1.586944 0.593137 0.711198
v -0.027155 0.035848 0.012823
vn 0.966047 0.730958 0.611709
v 0.023053 0.037361 0.017523
vn -0.109851 0.239064 -0.614463
v -0.041437 0.050488 -0.107937
vn -0.459129 0.000818 0.177782
v -0.027404 -0.032019 0.012494
vn 0.731829 -0.012317 -0.001711
v 0.032088 0.045465 -0.106304
vn -0.108133 0.001705 0.010472
v -0.043173 -0.032902 -0.030106
vn -2.058226 0.032444 0.199322
v -0.041403 0.041881 -0.023999
# 47 vertices, 0 vertices normals

f 5//5 35//35 27//27
f 1//1 13//13 2//2
f 22//22 30//30 35//35
f 8//8 3//3 31//31
f 45//45 5//5 4//4
f 19//19 4//4 5//5
f 14//14 33//33 12//12
f 23//23 26//26 27//27
f 19//19 16//16 4//4
f 27//27 36//36 5//5
f 6//6 34//34 38//38
f 6//6 7//7 46//46
f 46//46 7//7 37//37
f 40//40 28//28 1//1
f 36//36 7//7 38//38
f 8//8 29//29 42//42
f 9//9 3//3 10//10
f 14//14 17//17 18//18
f 1//1 28//28 32//32
f 12//12 44//44 37//37
f 23//23 37//37 7//7
f 45//45 21//21 22//22
f 11//11 24//24 10//10
f 12//12 41//41 44//44
f 4//4 21//21 45//45
f 14//14 9//9 24//24
f 1//1 32//32 20//20
f 13//13 19//19 5//5
f 17//17 14//14 12//12
f 23//23 7//7 39//39
f 34//34 46//46 40//40
f 33//33 14//14 25//25
f 42//42 15//15 11//11
f 16//16 29//29 4//4
f 36//36 43//43 5//5
f 15//15 29//29 16//16
f 44//44 47//47 46//46
f 23//23 17//17 37//37
f 17//17 23//23 18//18
f 16//16 19//19 20//20
f 15//15 16//16 20//20
f 31//31 23//23 27//27
f 9//9 14//14 18//18
f 23//23 31//31 18//18
f 5//5 43//43 13//13
f 37//37 44//44 46//46
f 29//29 22//22 21//21
f 31//31 30//30 22//22
f 8//8 42//42 10//10
f 3//3 8//8 10//10
f 23//23 39//39 26//26
f 24//24 11//11 25//25
f 26//26 36//36 27//27
f 42//42 11//11 10//10
f 47//47 28//28 40//40
f 8//8 22//22 29//29
f 25//25 11//11 32//32
f 27//27 30//30 31//31
f 31//31 3//3 18//18
f 38//38 43//43 36//36
f 15//15 32//32 11//11
f 41//41 12//12 33//33
f 29//29 21//21 4//4
f 34//34 6//6 46//46
f 27//27 35//35 30//30
f 39//39 7//7 36//36
f 37//37 17//17 12//12
f 43//43 38//38 34//34
f 24//24 9//9 10//10
f 18//18 3//3 9//9
f 13//13 1//1 20//20
f 7//7 6//6 38//38
f 39//39 36//36 26//26
f 40//40 2//2 34//34
f 33//33 28//28 41//41
f 28//28 47//47 41//41
f 14//14 24//24 25//25
f 19//19 13//13 20//20
f 15//15 42//42 29//29
f 22//22 8//8 31//31
f 34//34 2//2 43//43
f 28//28 33//33 32//32
f 13//13 43//43 2//2
f 20//20 32//32 15//15
f 44//44 41//41 47//47
f 45//45 22//22 35//35
f 32//32 33//33 25//25
f 2//2 40//40 1//1
f 45//45 35//35 5//5
f 46//46 47//47 40//40
# 90 faces, 0 coords texture

# End of File