# File produced by Open Asset Import Library (http://www.assimp.sf.net)
# (assimp v4.1.0)

mtllib 1s68qdhzvju3.mtl

# 57 vertex positions
v  0.006968804635107517 0.009673378430306911 0.007000000216066837
v  0.006968804635107517 0.009673378430306911 -0.007000000216066837
v  0.006050095427781343 0.01019568275660276 -0.007000000216066837
v  0.006050095427781343 0.01019568275660276 0.007000000216066837
v  0.00502840057015419 0.01046580821275711 -0.007000000216066837
v  0.00502840057015419 0.01046580821275711 0.007000000216066837
v  0.003971599508076906 0.01046580821275711 -0.007000000216066837
v  0.003971599508076906 0.01046580821275711 0.007000000216066837
v  0.002949904650449753 0.01019568275660276 -0.007000000216066837
v  0.002949904650449753 0.01019568275660276 0.007000000216066837
v  0.002031195443123579 0.009673378430306911 -0.007000000216066837
v  0.002031195443123579 0.009673378430306911 0.007000000216066837
v  -0.003913958091288805 0.005189502146095037 0.007000000216066837
v  -0.003913958091288805 0.005189502146095037 -0.007000000216066837
v  -0.004901034291833639 0.004269644152373075 -0.007000000216066837
v  -0.004901034291833639 0.004269644152373075 0.007000000216066837
v  -0.005676935892552137 0.003165817121043801 -0.007000000216066837
v  -0.005676935892552137 0.003165817121043801 0.007000000216066837
v  -0.006208231206983328 0.001925582066178322 -0.007000000216066837
v  -0.006208231206983328 0.001925582066178322 0.007000000216066837
v  -0.006472027394920588 0.0006023779860697687 -0.007000000216066837
v  -0.006472027394920588 0.0006023779860697687 0.007000000216066837
v  -0.006456959061324596 -0.0007467811810784042 -0.007000000216066837
v  -0.006456959061324596 -0.0007467811810784042 0.007000000216066837
v  -0.006163674406707287 -0.002063763327896595 -0.007000000216066837
v  -0.006163674406707287 -0.002063763327896595 0.007000000216066837
v  -0.005604811012744904 -0.003291822271421552 -0.007000000216066837
v  -0.005604811012744904 -0.003291822271421552 0.007000000216066837
v  -0.004804448690265417 -0.004378044046461582 -0.007000000216066837
v  -0.004804448690265417 -0.004378044046461582 0.007000000216066837
v  -0.003797073848545551 -0.005275626201182604 -0.007000000216066837
v  -0.003797073848545551 -0.005275626201182604 0.007000000216066837
v  -0.002626091474667192 -0.005945893004536629 -0.007000000216066837
v  -0.002626091474667192 -0.005945893004536629 0.007000000216066837
v  -0.001341956667602062 -0.006359964609146118 -0.007000000216066837
v  -0.001341956667602062 -0.006359964609146118 0.007000000216066837
v  -3.533369087411548e-16 -0.006500000134110451 -0.007000000216066837
v  -3.517826032829432e-16 -0.006500000134110451 0.007000000216066837
v  0.01499999966472387 -0.006500000134110451 0.007000000216066837
v  0.01499999966472387 -0.006500000134110451 -0.007000000216066837
v  0.01499999966472387 -0.002499999944120646 0.007000000216066837
v  0.01499999966472387 -0.002499999944120646 -0.007000000216066837
v  0.01536216400563717 -0.001331493491306901 -0.007000000216066837
v  0.01536216400563717 -0.001331493491306901 0.007000000216066837
v  0.01549896784126759 -0.0001158230952569284 -0.007000000216066837
v  0.01549896784126759 -0.0001158230952569284 0.007000000216066837
v  0.01540556736290455 0.001103949965909123 -0.007000000216066837
v  0.01540556736290455 0.001103949965909123 0.007000000216066837
v  0.01508527062833309 0.002284619025886059 -0.007000000216066837
v  0.01508527062833309 0.002284619025886059 0.007000000216066837
v  0.01454942207783461 0.003384363139048219 -0.007000000216066837
v  0.01454942207783461 0.003384363139048219 0.007000000216066837
v  0.0138170039281249 0.004364226944744587 -0.007000000216066837
v  0.0138170039281249 0.004364226944744587 0.007000000216066837
v  0.0129139581695199 0.005189502146095037 -0.007000000216066837
v  0.0129139581695199 0.005189502146095037 0.007000000216066837
v  -3.521806028890343e-16 -0.006500000134110451 0.007000000216066837

# 0 UV coordinates

# 30 vertex normals
vn 0.4942314922809601 0.8693303465843201 0
vn 0.2556067705154419 0.9667808413505554 0
vn 0 1 0
vn -0.2556067705154419 0.9667808413505554 0
vn -0.4942314922809601 0.8693303465843201 0
vn -0.6021474599838257 0.7983849048614502 0
vn -0.6817582845687866 0.7315775156021118 0
vn -0.8181082606315613 0.5750642418861389 0
vn -0.919207751750946 0.3937727808952332 0
vn -0.9807008504867554 0.1955141723155975 0
vn -0.9999375939369202 -0.01116798724979162 -0
vn -0.9760892987251282 -0.2173697054386139 -0
vn -0.9101836085319519 -0.4142050743103027 -0
vn -0.8050599694252014 -0.5931934714317322 -0
vn -0.6652485132217407 -0.7466220259666443 -0
vn -0.4967724084854126 -0.8678808808326721 -0
vn -0.3068917393684387 -0.9517444372177124 -0
vn -0.1037881970405579 -0.994599461555481 -0
vn -0 -1 -0
vn 1 0 0
vn 0.9551741480827332 -0.2960446178913116 0
vn 0.9937276244163513 -0.1118278056383133 0
vn 0.9970812201499939 0.07634851336479187 0
vn 0.9651165008544922 0.2618207335472107 0
vn 0.8989655375480652 0.4380195140838623 0
vn 0.8009718656539917 0.5987018942832947 0
vn 0.6746059060096741 0.738178014755249 0
vn 0.6021474599838257 0.7983849048614502 0
vn 0 0 1
vn -0 -0 -1

# Mesh '<STL_BINARY>' with 108 faces
g <STL_BINARY>
usemtl DefaultMaterial
f  1//1 2//1 3//1
f  1//1 3//1 4//1
f  4//2 3//2 5//2
f  4//2 5//2 6//2
f  6//3 5//3 7//3
f  6//3 7//3 8//3
f  8//4 7//4 9//4
f  8//4 9//4 10//4
f  10//5 9//5 11//5
f  10//5 11//5 12//5
f  13//6 12//6 14//6
f  14//6 12//6 11//6
f  13//7 14//7 15//7
f  13//7 15//7 16//7
f  16//8 15//8 17//8
f  16//8 17//8 18//8
f  18//9 17//9 19//9
f  18//9 19//9 20//9
f  20//10 19//10 21//10
f  20//10 21//10 22//10
f  22//11 21//11 23//11
f  22//11 23//11 24//11
f  24//12 23//12 25//12
f  24//12 25//12 26//12
f  26//13 25//13 27//13
f  26//13 27//13 28//13
f  28//14 27//14 29//14
f  28//14 29//14 30//14
f  30//15 29//15 31//15
f  30//15 31//15 32//15
f  32//16 31//16 33//16
f  32//16 33//16 34//16
f  34//17 33//17 35//17
f  34//17 35//17 36//17
f  36//18 35//18 37//18
f  36//18 37//18 38//18
f  39//19 38//19 40//19
f  40//19 38//19 37//19
f  41//20 39//20 42//20
f  42//20 39//20 40//20
f  41//21 42//21 43//21
f  41//21 43//21 44//21
f  44//22 43//22 45//22
f  44//22 45//22 46//22
f  46//23 45//23 47//23
f  46//23 47//23 48//23
f  48//24 47//24 49//24
f  48//24 49//24 50//24
f  50//25 49//25 51//25
f  50//25 51//25 52//25
f  52//26 51//26 53//26
f  52//26 53//26 54//26
f  54//27 53//27 55//27
f  54//27 55//27 56//27
f  1//28 56//28 2//28
f  2//28 56//28 55//28
f  57//29 39//29 41//29
f  22//29 24//29 57//29
f  57//29 24//29 26//29
f  30//29 32//29 34//29
f  46//29 48//29 22//29
f  18//29 56//29 16//29
f  16//29 56//29 13//29
f  18//29 20//29 56//29
f  56//29 20//29 22//29
f  56//29 22//29 54//29
f  26//29 28//29 57//29
f  57//29 28//29 30//29
f  57//29 30//29 36//29
f  36//29 30//29 34//29
f  57//29 41//29 22//29
f  22//29 41//29 44//29
f  22//29 44//29 46//29
f  48//29 50//29 22//29
f  22//29 50//29 52//29
f  22//29 52//29 54//29
f  13//29 56//29 12//29
f  12//29 56//29 1//29
f  12//29 1//29 4//29
f  6//29 8//29 4//29
f  4//29 8//29 10//29
f  4//29 10//29 12//29
f  2//30 55//30 11//30
f  42//30 40//30 21//30
f  21//30 40//30 37//30
f  21//30 37//30 23//30
f  23//30 37//30 25//30
f  53//30 21//30 55//30
f  55//30 21//30 19//30
f  55//30 19//30 17//30
f  17//30 15//30 55//30
f  55//30 15//30 14//30
f  55//30 14//30 11//30
f  53//30 51//30 21//30
f  21//30 51//30 49//30
f  21//30 49//30 47//30
f  7//30 5//30 3//30
f  47//30 45//30 21//30
f  21//30 45//30 43//30
f  21//30 43//30 42//30
f  31//30 29//30 33//30
f  33//30 29//30 35//30
f  35//30 29//30 37//30
f  37//30 29//30 27//30
f  37//30 27//30 25//30
f  2//30 11//30 3//30
f  3//30 11//30 9//30
f  3//30 9//30 7//30

