# Blender v2.78 (sub 0) OBJ File: ''
# www.blender.org
mtllib FridgeDoor_color.mtl
o Shape_IndexedFaceSet_Shape_IndexedFaceSet.018
v -0.002233 -0.598554 -0.483553
v -0.002233 -0.002335 -0.483553
v -0.002233 -0.562716 -0.306528
v -0.008553 -0.598495 -0.483553
v -0.006446 -0.598554 -0.483553
v -0.006446 -0.598554 0.483553
v -0.002233 -0.002335 0.483553
v -0.008553 -0.002276 0.483553
v -0.004340 -0.002276 -0.483553
v -0.002233 -0.598554 0.483553
v -0.008553 -0.002276 -0.483553
v -0.008553 -0.598495 0.483553
vn 1.0000 -0.0000 0.0000
vn -0.0280 -0.9996 -0.0000
vn -0.0000 -0.0000 1.0000
vn 0.0000 0.0000 -1.0000
vn 0.0027 1.0000 0.0000
vn 0.0093 1.0000 0.0000
vn 0.0066 1.0000 0.0000
vn 0.0000 -1.0000 -0.0000
vn -1.0000 0.0000 0.0000
vn 0.0000 1.0000 0.0000
vn 0.0280 0.9996 0.0000
usemtl Shape.1027
s 1
f 1//1 2//1 3//1
f 4//2 5//2 6//2
f 6//3 7//3 8//3
f 5//4 4//4 9//4
f 8//5 7//6 9//7
f 6//8 5//8 1//8
f 5//4 9//4 1//4
f 6//8 1//8 10//8
f 7//3 6//3 10//3
f 4//9 8//9 11//9
f 9//4 4//4 11//4
f 8//5 9//7 11//10
f 9//11 7//11 2//11
f 1//4 9//4 2//4
f 4//2 6//2 12//2
f 6//3 8//3 12//3
f 8//9 4//9 12//9
f 10//1 1//1 3//1
f 7//1 10//1 3//1
f 2//1 7//1 3//1
