####
#
#	OBJ File Generated by LightWave3D
#	LightWave3D OBJ Export v2.3
#
####
o stand.obj
mtllib stand.mtl
g default
v -11 0 67
v -11.4019 0 65.5
v -12.5 0 64.4019
v -14 0 64
v -15.5 0 64.4019
v -16.5981 0 65.5
v -17 0 67
v -16.5981 0 68.5
v -15.5 0 69.5981
v -14 0 70
v -12.5 0 69.5981
v -11.4019 0 68.5
v -11 10 67
v -11.4019 10 65.5
v -12.5 10 64.4019
v -14 10 64
v -15.5 10 64.4019
v -16.5981 10 65.5
v -17 10 67
v -16.5981 10 68.5
v -15.5 10 69.5981
v -14 10 70
v -12.5 10 69.5981
v -11.4019 10 68.5
vn -0 -1 -0
vn -0 -1 -0
vn -0 -1 -0
vn -0 -1 -0
vn -0 -1 -0
vn -0 -1 -0
vn -0 -1 -0
vn -0 -1 -0
vn -0 -1 -0
vn -0 -1 -0
vn -0 -1 -0
vn -0 -1 -0
vn 0.965926 -0 -0.258819
vn 0.965926 -0 -0.258819
vn 0.965926 -0 -0.258819
vn 0.965926 -0 -0.258819
vn 0.707107 -0 -0.707107
vn 0.707107 -0 -0.707107
vn 0.707107 -0 -0.707107
vn 0.707107 -0 -0.707107
vn 0.258819 -0 -0.965926
vn 0.258819 -0 -0.965926
vn 0.258819 -0 -0.965926
vn 0.258819 -0 -0.965926
vn -0.258819 0 -0.965926
vn -0.258819 0 -0.965926
vn -0.258819 0 -0.965926
vn -0.258819 0 -0.965926
vn -0.707107 0 -0.707107
vn -0.707107 0 -0.707107
vn -0.707107 0 -0.707107
vn -0.707107 0 -0.707107
vn -0.965926 0 -0.258819
vn -0.965926 0 -0.258819
vn -0.965926 0 -0.258819
vn -0.965926 0 -0.258819
vn -0.965926 0 0.258819
vn -0.965926 0 0.258819
vn -0.965926 0 0.258819
vn -0.965926 0 0.258819
vn -0.707107 0 0.707107
vn -0.707107 0 0.707107
vn -0.707107 0 0.707107
vn -0.707107 0 0.707107
vn -0.258819 0 0.965926
vn -0.258819 0 0.965926
vn -0.258819 0 0.965926
vn -0.258819 0 0.965926
vn 0.258819 0 0.965926
vn 0.258819 0 0.965926
vn 0.258819 0 0.965926
vn 0.258819 0 0.965926
vn 0.707107 0 0.707107
vn 0.707107 0 0.707107
vn 0.707107 0 0.707107
vn 0.707107 0 0.707107
vn 0.965926 0 0.258819
vn 0.965926 0 0.258819
vn 0.965926 0 0.258819
vn 0.965926 0 0.258819
vn 0 1 -0
vn 0 1 -0
vn 0 1 -0
vn 0 1 -0
vn 0 1 -0
vn 0 1 -0
vn 0 1 -0
vn 0 1 -0
vn 0 1 -0
vn 0 1 -0
vn 0 1 -0
vn 0 1 -0
g Default
usemtl Default
s off
f 12//1 11//2 10//3 9//4 8//5 7//6 6//7 5//8 4//9 3//10 2//11 1//12
f 2//13 14//14 13//15 1//16
f 3//17 15//18 14//19 2//20
f 4//21 16//22 15//23 3//24
f 17//25 16//26 4//27 5//28
f 18//29 17//30 5//31 6//32
f 19//33 18//34 6//35 7//36
f 20//37 19//38 7//39 8//40
f 21//41 20//42 8//43 9//44
f 22//45 21//46 9//47 10//48
f 11//49 23//50 22//51 10//52
f 12//53 24//54 23//55 11//56
f 1//57 13//58 24//59 12//60
f 14//61 15//62 16//63 17//64 18//65 19//66 20//67 21//68 22//69 23//70 24//71 13//72
