# Blender v2.76 (sub 0) OBJ File: 'finger_1.blend'
# www.blender.org
mtllib finger_1.mtl
o Left_Finger_1
v 0.011346 -0.014871 0.088342
v -0.011800 0.008637 0.088324
v -0.011800 0.016473 0.088324
v -0.015854 0.016473 0.025957
v -0.015854 0.014514 0.025957
v -0.015854 0.012555 0.025957
v -0.015854 0.010596 0.025957
v -0.011800 -0.014871 0.088324
v -0.015854 0.008637 0.025957
v -0.015854 0.006678 0.025957
v -0.015854 0.004719 0.025957
v -0.015854 0.002760 0.025957
v -0.015854 -0.014871 0.025957
v -0.015854 -0.003117 0.025957
v -0.015854 -0.005076 0.025957
v -0.015854 -0.007035 0.025957
v -0.015854 -0.001158 0.025957
v -0.015854 0.000801 0.025957
v 0.015497 -0.014871 0.025982
v 0.011346 0.016473 0.088342
v 0.015497 0.016473 0.025982
v -0.008016 0.016473 0.025963
v -0.011935 0.016473 0.025960
v 0.013538 0.016473 0.025980
v 0.011578 0.016473 0.025979
v 0.009619 0.016473 0.025977
v 0.007659 0.016473 0.025976
v -0.006057 0.016473 0.025965
v -0.002138 0.016473 0.025968
v 0.003741 0.016473 0.025973
v 0.001781 0.016473 0.025971
v -0.000178 0.016473 0.025969
v 0.005700 0.016473 0.025974
v 0.015525 0.016406 0.025859
v -0.015826 0.016406 0.025834
v -0.015826 0.006611 0.025829
v -0.015826 0.004652 0.025829
v -0.015826 0.002693 0.025828
v -0.015826 -0.005143 0.025824
v -0.015826 -0.003184 0.025825
v -0.015826 -0.014938 0.025819
v 0.011107 0.016408 0.090725
v 0.011107 0.008572 0.090728
v 0.010449 0.016409 0.092897
v 0.010449 0.008573 0.092900
v 0.009380 0.016410 0.094899
v 0.009380 0.008574 0.094902
v 0.007941 0.016412 0.096654
v 0.007941 0.008576 0.096657
v 0.006187 0.016412 0.098095
v 0.006187 0.008577 0.098098
v 0.004186 0.016413 0.099165
v 0.004186 0.008577 0.099168
v 0.002015 0.016414 0.099825
v 0.002015 0.008578 0.099828
v -0.000244 0.016414 0.100048
v -0.000244 0.008578 0.100051
v -0.002503 0.016414 0.099827
v -0.002503 0.008578 0.099830
v -0.004675 0.016413 0.099169
v -0.004675 0.008577 0.099172
v -0.006677 0.016412 0.098100
v -0.006677 0.008577 0.098103
v -0.008432 0.016412 0.096661
v -0.008432 0.008576 0.096664
v -0.009873 0.016410 0.094907
v -0.009873 0.008574 0.094910
v -0.010943 0.016409 0.092906
v -0.010943 0.008573 0.092909
v -0.011603 0.016408 0.090735
v -0.011603 0.008572 0.090737
v -0.011826 0.016406 0.088426
v -0.011826 0.008570 0.088429
v 0.011329 -0.014938 0.088428
v 0.011107 -0.014936 0.090737
v 0.010449 -0.014935 0.092909
v -0.011826 -0.014938 0.088438
v 0.009380 -0.014934 0.094911
v 0.007941 -0.014932 0.096665
v -0.011603 -0.014936 0.090746
v -0.010943 -0.014935 0.092917
v -0.009873 -0.014934 0.094918
v 0.006187 -0.014931 0.098106
v -0.008432 -0.014932 0.096672
v 0.004186 -0.014931 0.099176
v -0.006677 -0.014931 0.098111
v 0.002015 -0.014930 0.099836
v -0.004675 -0.014931 0.099180
v -0.000244 -0.014930 0.100060
v -0.002503 -0.014930 0.099838
v 0.011329 0.016406 0.088417
v -0.006037 0.008570 0.088427
v -0.011820 -0.007085 0.088407
v -0.011813 -0.007068 0.088379
v 0.011333 0.008587 0.088400
v 0.011333 -0.007085 0.088405
v 0.005540 0.008570 0.088422
v 0.005540 -0.007102 0.088428
v -0.006037 -0.007102 0.088432
v -0.011826 -0.007102 0.088435
v -0.004675 -0.007095 0.099177
v -0.006677 -0.007095 0.098108
v -0.008432 -0.007096 0.096669
v -0.009873 -0.007098 0.094915
v -0.002503 -0.007094 0.099835
v -0.000244 -0.007094 0.100057
v 0.002015 -0.007094 0.099833
v 0.004186 -0.007095 0.099174
v 0.006187 -0.007095 0.098103
v -0.010943 -0.007099 0.092914
v 0.007941 -0.007096 0.096663
v -0.011603 -0.007100 0.090743
v 0.009380 -0.007098 0.094908
v 0.010449 -0.007099 0.092906
v 0.011107 -0.007100 0.090734
v 0.011329 -0.007102 0.088425
v -0.011715 -0.007101 0.089589
v 0.011329 0.008570 0.088420
v 0.015520 -0.014925 0.025869
v 0.015525 0.006611 0.025854
v 0.015524 -0.014934 0.025852
v 0.015520 -0.011007 0.025871
v -0.015788 -0.005143 0.001847
v -0.015503 -0.005141 -0.001019
v -0.014609 -0.005140 -0.003959
v -0.013158 -0.005139 -0.006668
v -0.011207 -0.005137 -0.009042
v -0.008830 -0.005136 -0.010989
v -0.006119 -0.005136 -0.012435
v -0.003178 -0.005135 -0.013325
v -0.000119 -0.005135 -0.013624
v 0.002939 -0.005135 -0.013320
v 0.005879 -0.005136 -0.012426
v 0.008587 -0.005136 -0.010975
v 0.010961 -0.005137 -0.009024
v 0.012909 -0.005139 -0.006647
v 0.014355 -0.005140 -0.003936
v 0.015245 -0.005141 -0.000995
v 0.015525 -0.005143 0.001872
v 0.015525 -0.005143 0.025848
v -0.015788 0.006611 0.001853
v -0.015503 0.006613 -0.001014
v -0.014609 0.006614 -0.003953
v -0.013158 0.006615 -0.006662
v -0.011207 0.006617 -0.009036
v -0.008830 0.006618 -0.010983
v -0.006119 0.006618 -0.012430
v -0.003178 0.006619 -0.013319
v -0.000119 0.006619 -0.013618
v 0.002939 0.006619 -0.013315
v 0.005879 0.006618 -0.012420
v 0.008587 0.006618 -0.010970
v 0.010961 0.006617 -0.009019
v 0.012909 0.006615 -0.006642
v 0.014355 0.006614 -0.003931
v 0.015245 0.006613 -0.000990
v 0.015525 -0.014938 0.025844
v 0.015524 -0.011016 0.025854
v 0.015525 0.006611 0.001877
vt 0.058533 0.942766
vt 0.057289 0.942274
vt 0.056848 0.942228
vt 0.056213 0.941559
vt 0.056267 0.941636
vt 0.056646 0.942174
vt 0.050279 0.944016
vt 0.049908 0.944120
vt 0.050240 0.942848
vt 0.051001 0.943225
vt 0.054588 0.942361
vt 0.212218 0.157465
vt 0.217328 0.154766
vt 0.208733 0.178274
vt 0.207628 0.175763
vt 0.126419 0.996935
vt 0.116272 0.991203
vt 0.074045 0.945999
vt 0.078856 0.951020
vt 0.084461 0.944824
vt 0.067233 0.954460
vt 0.059736 0.944985
vt 0.116772 0.990626
vt 0.081803 0.948054
vt 0.079407 0.947649
vt 0.079848 0.177356
vt 0.082919 0.060045
vt 0.080484 0.000064
vt 0.055518 0.944020
vt 0.084466 0.000975
vt 0.054776 0.943589
vt 0.054285 0.943187
vt 0.056809 0.942405
vt 0.053371 0.942360
vt 0.051359 0.940533
vt 0.049411 0.945171
vt 0.206059 0.123895
vt 0.209325 0.121681
vt 0.213203 0.134825
vt 0.209318 0.134708
vt 0.172431 0.134796
vt 0.176515 0.135603
vt 0.180440 0.145853
vt 0.177269 0.148698
vt 0.149030 0.039853
vt 0.151318 0.045018
vt 0.154542 0.041958
vt 0.147286 0.035947
vt 0.148938 0.033760
vt 0.153146 0.039986
vt 0.151806 0.037313
vt 0.150044 0.031947
vt 0.201853 0.164097
vt 0.198712 0.167547
vt 0.196392 0.166980
vt 0.199010 0.163966
vt 0.185385 0.133917
vt 0.183788 0.134683
vt 0.181897 0.135237
vt 0.179566 0.135636
vt 0.179042 0.127916
vt 0.197610 0.121272
vt 0.203114 0.125360
vt 0.200552 0.126639
vt 0.198000 0.127372
vt 0.195764 0.128684
vt 0.193834 0.129686
vt 0.191946 0.130294
vt 0.190121 0.131153
vt 0.188504 0.132126
vt 0.186915 0.133029
vt 0.197845 0.135932
vt 0.195796 0.135948
vt 0.145081 0.061571
vt 0.145185 0.055931
vt 0.142628 0.067269
vt 0.137508 0.074446
vt 0.207695 0.161899
vt 0.204647 0.171756
vt 0.202734 0.169825
vt 0.206121 0.163198
vt 0.000064 0.889533
vt 0.073834 0.943138
vt 0.072155 0.945230
vt 0.180797 0.037475
vt 0.177357 0.037536
vt 0.183363 0.178606
vt 0.173863 0.177314
vt 0.172431 0.176956
vt 0.175663 0.175844
vt 0.181889 0.155717
vt 0.177397 0.174349
vt 0.179452 0.153188
vt 0.177357 0.037791
vt 0.180738 0.037791
vt 0.180735 0.037850
vt 0.177357 0.037347
vt 0.177388 0.037203
vt 0.184068 0.037347
vt 0.143674 0.203438
vt 0.142353 0.184872
vt 0.143002 0.185452
vt 0.143822 0.203051
vt 0.183757 0.157761
vt 0.185541 0.159364
vt 0.182721 0.170190
vt 0.180294 0.171916
vt 0.209742 0.160063
vt 0.206092 0.173496
vt 0.189735 0.167212
vt 0.191946 0.162690
vt 0.194335 0.163257
vt 0.192022 0.166685
vt 0.189665 0.138180
vt 0.188280 0.139105
vt 0.184979 0.168835
vt 0.187524 0.160799
vt 0.189650 0.161873
vt 0.187375 0.167849
vt 0.194079 0.136228
vt 0.192549 0.136757
vt 0.183100 0.143971
vt 0.045852 0.926886
vt 0.152513 0.189447
vt 0.149226 0.186634
vt 0.152110 0.189002
vt 0.152592 0.189719
vt 0.152933 0.190257
vt 0.072082 0.951047
vt 0.075774 0.957253
vt 0.073863 0.943544
vt 0.072757 0.943943
vt 0.072548 0.943587
vt 0.073848 0.943321
vt 0.204082 0.164000
vt 0.200892 0.168232
vt 0.152484 0.034322
vt 0.150584 0.037500
vt 0.144793 0.015666
vt 0.146406 0.000064
vt 0.206168 0.135323
vt 0.203222 0.135831
vt 0.153016 0.121144
vt 0.129969 0.074595
vt 0.110451 0.989505
vt 0.172431 0.193663
vt 0.199276 0.193661
vt 0.199277 0.202746
vt 0.192565 0.202746
vt 0.179143 0.202747
vt 0.172431 0.202747
vt 0.148381 0.012638
vt 0.153984 0.032700
vt 0.196397 0.163679
vt 0.194336 0.166561
vt 0.144287 0.029306
vt 0.144604 0.023667
vt 0.149721 0.040440
vt 0.148397 0.044892
vt 0.142642 0.047212
vt 0.144631 0.061172
vt 0.150533 0.025847
vt 0.153190 0.034077
vt 0.152547 0.033088
vt 0.148647 0.016175
vt 0.114947 0.988044
vt 0.148687 0.042776
vt 0.153632 0.043629
vt 0.167211 0.051178
vt 0.171051 0.055283
vt 0.174418 0.060133
vt 0.200335 0.179778
vt 0.186904 0.140459
vt 0.154947 0.035488
vt 0.150693 0.029223
vt 0.144725 0.055525
vt 0.147448 0.048795
vt 0.153120 0.190341
vt 0.153139 0.190427
vt 0.153188 0.190638
vt 0.149480 0.201071
vt 0.142952 0.033849
vt 0.142075 0.039924
vt 0.200400 0.136049
vt 0.185191 0.142075
vt 0.204191 0.036403
vt 0.177357 0.036403
vt 0.177357 0.027318
vt 0.177357 0.000064
vt 0.204191 0.000064
vt 0.177361 0.036747
vt 0.177533 0.036739
vt 0.177552 0.036744
vt 0.177571 0.036779
vt 0.177826 0.036741
vt 0.178452 0.036693
vt 0.179375 0.036651
vt 0.180558 0.036616
vt 0.181965 0.036587
vt 0.183557 0.036564
vt 0.185299 0.036548
vt 0.187152 0.036536
vt 0.189081 0.036531
vt 0.191041 0.036531
vt 0.191150 0.037075
vt 0.152827 0.121272
vt 0.129749 0.178825
vt 0.153134 0.188998
vt 0.153668 0.190433
vt 0.172303 0.129081
vt 0.191110 0.137469
vt 0.208778 0.193533
vt 0.172431 0.193533
vt 0.172431 0.191262
vt 0.172431 0.188991
vt 0.172431 0.182177
vt 0.172431 0.179906
vt 0.208778 0.179906
vn 0.000000 0.000000 1.000000
vn -0.893900 0.000000 0.448300
vn 1.000000 0.000000 0.000000
vn 0.706000 0.000000 -0.708200
vn 0.948400 0.000000 -0.317100
vn -0.992200 -0.000000 0.124400
vn 0.970000 0.000000 -0.243200
vn 0.995400 0.000000 0.095600
vn 0.997800 0.000000 0.066400
vn -0.000000 1.000000 0.000000
vn -0.000800 1.000000 0.000000
vn 0.000400 -0.000100 -1.000000
vn 0.000100 0.809600 -0.586900
vn -0.000100 1.000000 0.000000
vn -0.000100 -0.659500 0.751700
vn 0.000000 -0.447900 -0.894100
vn -0.000100 0.184800 0.982800
vn -0.000200 -0.949000 -0.315300
vn 0.000200 -0.832900 0.553500
vn 0.000000 -1.000000 0.000000
vn -0.000200 -0.600900 0.799300
vn 0.000200 1.000000 0.000000
vn 0.000100 0.601300 -0.799000
vn 0.000300 -1.000000 0.000000
vn 0.000100 -1.000000 0.000000
vn 0.000000 0.000000 -1.000000
vn 0.000100 0.861100 -0.508500
vn 0.000400 0.879200 -0.476500
vn -0.241900 -0.000100 0.970300
vn 0.980500 0.000000 -0.196700
vn -0.970000 0.000200 -0.243200
vn -0.976000 0.000000 -0.217600
vn -0.706000 0.000000 0.708200
vn -0.995400 0.000000 0.096300
vn -0.995100 0.000000 -0.098800
vn -0.881500 0.000200 -0.472100
vn 0.290700 0.000300 0.956800
vn 0.000000 -1.000000 0.000600
vn 0.471700 0.000300 0.881700
vn 0.995300 0.000000 -0.097200
vn 0.773200 0.000200 0.634100
vn -0.000800 -0.000500 1.000000
vn 0.000300 0.780500 0.625200
vn 0.000200 0.856400 0.516300
vn -0.869800 0.486100 0.083900
vn -0.000300 -0.759000 -0.651100
vn -0.000200 -0.844200 -0.536000
vn 0.000100 -0.831300 -0.555900
vn -0.881700 0.000200 0.471800
vn 0.882100 0.000200 0.471100
vn -0.289900 0.000300 0.957100
vn -0.471000 0.000300 0.882100
vn -0.634100 0.000300 0.773300
vn 0.098400 0.000400 0.995100
vn -0.956800 0.000100 0.290700
vn -0.977300 0.000100 -0.211800
vn -0.970800 -0.000000 -0.239700
vn 0.977300 -0.000100 0.212000
vn 0.098800 0.000500 -0.995100
vn -0.772700 0.000200 0.634700
vn 0.957100 0.000100 0.289900
vn -0.000400 -0.000400 -1.000000
vn -0.097200 0.000500 -0.995300
vn -0.097600 0.000400 0.995200
vn 0.472100 0.000400 -0.881600
vn 0.634700 0.000300 0.772800
vn 0.957200 0.000100 -0.289600
vn 0.291000 0.000500 -0.956700
vn -0.470700 0.000400 -0.882300
vn -0.997900 -0.000000 0.064900
vn -1.000000 0.000000 -0.001600
vn -0.000300 -0.900500 0.434800
vn 0.000000 1.000000 -0.000400
vn -0.772500 0.000300 -0.635000
vn -0.000000 1.000000 0.000200
vn 0.979000 0.000000 0.203900
vn 0.000000 -1.000000 -0.000200
vn -0.289500 0.000500 -0.957200
vn -0.000800 -0.000000 1.000000
vn 0.773500 0.000300 -0.633800
vn 0.882300 0.000200 -0.470700
vn 0.635000 0.000400 -0.772500
vn -0.000100 0.799000 0.601400
vn -0.633800 0.000400 -0.773500
vn -0.000000 1.000000 -0.000600
vn -0.956700 0.000100 -0.291000
usemtl Material
s off
f 5/1/1 6/2/1 7/3/1
f 10/4/2 11/5/2 12/6/2
f 14/7/3 15/8/3 16/9/3
f 17/10/4 14/7/4 16/9/4
f 10/4/5 12/6/5 18/11/5
f 18/11/6 17/10/6 16/9/6
f 10/4/7 18/11/7 16/9/7
f 75/12/8 74/13/8 116/14/8 115/15/8
f 20/16/9 1/17/9 19/18/9 21/19/9
f 25/20/10 23/21/10 4/22/10 3/23/10 20/16/10 21/19/10 24/24/10
f 25/20/10 26/20/10 27/20/10
f 28/25/11 22/25/11 23/21/11
f 30/20/12 31/20/12 32/20/12
f 29/20/13 28/25/13 23/21/13
f 33/20/14 30/20/14 32/20/14
f 32/20/15 29/20/15 23/21/15
f 25/20/16 27/20/16 33/20/16
f 32/20/17 23/21/17 25/20/17
f 25/20/18 33/20/18 32/20/18
f 26/26/11 25/26/11 24/27/11
f 33/26/10 27/26/10 26/26/10
f 31/26/19 30/26/19 33/26/19
f 29/26/20 32/26/20 31/26/20
f 22/26/21 28/26/21 29/26/21
f 31/26/22 33/26/22 26/26/22
f 22/26/23 29/26/23 31/26/23
f 23/26/24 22/26/24 31/26/24
f 23/26/25 31/26/25 26/26/25
f 6/2/26 5/1/26 4/22/26
f 4/22/27 23/26/27 26/26/27
f 34/28/28 35/29/28 4/22/28 26/26/28 24/27/28 21/30/28
f 35/29/29 36/31/29 37/32/29
f 9/33/1 7/3/1 6/2/1
f 11/5/1 10/4/1 9/33/1
f 12/6/4 11/5/4 9/33/4
f 18/11/1 12/6/1 9/33/1
f 35/29/30 37/32/30 38/34/30
f 35/29/31 38/34/31 40/35/31
f 35/29/32 40/35/32 39/36/32
f 15/8/33 14/7/33 17/10/33
f 43/37/8 118/38/8 91/39/8 42/40/8
f 73/41/34 71/42/34 70/43/34 72/44/34
f 123/45/35 141/46/35 142/47/35 124/48/35
f 125/49/36 143/50/36 144/51/36 126/52/36
f 85/53/37 108/54/37 107/55/37 87/56/37
f 63/57/38 65/58/38 67/59/38 69/60/38 71/42/38 73/41/38 92/61/38 97/62/38 118/38/38 43/37/38 45/63/38 47/64/38 49/65/38 51/66/38 53/67/38 55/68/38 57/69/38 59/70/38 61/71/38
f 53/67/39 51/66/39 50/72/39 52/73/39
f 139/74/40 138/75/40 156/76/40 159/77/40
f 78/78/41 113/79/41 111/80/41 79/81/41
f 41/82/42 157/83/42 140/84/42 39/36/42
f 116/85/43 96/85/43 98/86/43
f 99/87/44 94/88/44 93/88/44
f 93/88/45 100/89/45 117/90/45
f 80/91/34 112/92/34 117/90/34 100/89/34 77/93/34
f 97/94/46 95/95/46 118/96/46
f 73/97/47 2/98/47 92/99/47
f 74/100/48 77/101/48 8/102/48 1/103/48
f 81/104/49 82/105/49 104/106/49 110/107/49
f 113/79/50 78/78/50 76/108/50 114/109/50
f 101/110/51 88/111/51 90/112/51 105/113/51
f 60/114/52 62/115/52 63/57/52 61/71/52
f 103/116/53 84/117/53 86/118/53 102/119/53
f 86/118/52 88/111/52 101/110/52 102/119/52
f 54/120/54 56/121/54 57/69/54 55/68/54
f 81/104/55 110/107/55 112/92/55 80/91/55
f 69/60/55 68/122/55 70/43/55 71/42/55
f 13/123/56 16/9/56 15/8/56 17/10/56 18/11/56 9/33/56 6/2/56 4/22/56 35/29/56 39/36/56 41/82/56
f 2/124/57 8/102/57 77/101/57 100/125/57 73/126/57 72/127/57 3/128/57
f 120/129/58 34/130/58 21/19/58 19/18/58 119/131/58 122/132/58 158/133/58 121/134/58 157/83/58 140/84/58
f 83/135/39 109/136/39 108/54/39 85/53/39
f 149/137/59 150/138/59 132/139/59 131/140/59
f 47/64/50 45/63/50 44/141/50 46/142/50
f 120/143/3 140/144/3 139/74/3 159/77/3
f 82/105/60 84/117/60 103/116/60 104/106/60
f 13/123/20 19/18/20 1/17/20 8/145/20
f 75/12/61 115/15/61 114/109/61 76/108/61
f 72/146/62 91/147/62 118/148/62 97/149/62 92/150/62 73/151/62
f 130/152/63 148/153/63 149/137/63 131/140/63
f 105/113/64 90/112/64 89/154/64 106/155/64
f 134/156/65 133/157/65 151/158/65 152/159/65
f 109/136/66 83/135/66 79/81/66 111/80/66
f 156/76/67 138/75/67 137/160/67 155/161/67
f 43/37/61 42/40/61 44/141/61 45/63/61
f 132/139/68 150/138/68 151/158/68 133/157/68
f 128/162/69 146/163/69 147/164/69 129/165/69
f 10/4/70 16/9/70 13/123/70 8/145/70 2/166/70 3/23/70 4/22/70 5/1/70
f 141/46/71 123/45/71 39/167/71 40/168/71 38/169/71 37/170/71 36/171/71
f 119/131/72 19/18/72 13/123/72 41/82/72 157/83/72 121/134/72
f 114/109/73 115/15/73 116/14/73 98/172/73 99/87/73 93/88/73 117/90/73 112/92/73 110/107/73 104/106/73 103/116/73 102/119/73 101/110/73 105/113/73 106/155/73 107/55/73 108/54/73 109/136/73 111/80/73 113/79/73
f 63/57/53 62/115/53 64/173/53 65/58/53
f 126/52/74 144/51/74 145/174/74 127/175/74
f 142/47/75 141/46/75 36/171/75 120/143/75 159/77/75 156/76/75 155/161/75 154/176/75 153/177/75 152/159/75 151/158/75 150/138/75 149/137/75 148/153/75 147/164/75 146/163/75 145/174/75 144/51/75 143/50/75
f 20/178/76 91/179/76 118/180/76 116/181/76 74/100/76 1/103/76
f 85/53/38 87/56/38 89/154/38 90/112/38 88/111/38 86/118/38 84/117/38 82/105/38 81/104/38 80/91/38 77/93/38 74/13/38 75/12/38 76/108/38 78/78/38 79/81/38 83/135/38
f 132/139/77 133/157/77 134/156/77 135/182/77 136/183/77 137/160/77 138/75/77 139/74/77 140/144/77 39/167/77 123/45/77 124/48/77 125/49/77 126/52/77 127/175/77 128/162/77 129/165/77 130/152/77 131/140/77
f 47/64/41 46/142/41 48/184/41 49/65/41
f 9/33/26 10/4/26 5/1/26 7/3/26
f 53/67/37 52/73/37 54/120/37 55/68/37
f 130/152/78 129/165/78 147/164/78 148/153/78
f 67/59/49 66/185/49 68/122/49 69/60/49
f 66/185/60 67/59/60 65/58/60 64/173/60
f 49/65/66 48/184/66 50/72/66 51/66/66
f 20/186/79 3/187/79 2/188/79 8/189/79 1/190/79
f 35/191/28 4/191/28 23/192/28 22/193/28 28/194/28 29/195/28 32/196/28 31/197/28 30/198/28 33/199/28 27/200/28 26/201/28 25/202/28 24/203/28 21/204/28 34/205/28
f 154/176/80 136/183/80 135/182/80 153/177/80
f 74/206/62 77/207/62 100/125/62 73/126/62 92/208/62 97/209/62 118/180/62 116/210/62
f 59/70/51 58/211/51 60/114/51 61/71/51
f 87/56/54 107/55/54 106/155/54 89/154/54
f 57/69/64 56/121/64 58/211/64 59/70/64
f 136/183/81 154/176/81 155/161/81 137/160/81
f 120/212/42 36/213/42 37/214/42 38/215/42 40/216/42 39/217/42 140/218/42
f 120/129/42 34/130/42 35/29/42 36/31/42
f 152/159/82 153/177/82 135/182/82 134/156/82
f 20/178/83 3/128/83 72/127/83 91/179/83
f 145/174/84 146/163/84 128/162/84 127/175/84
f 62/115/85 60/114/85 58/211/85 56/121/85 54/120/85 52/73/85 50/72/85 48/184/85 46/142/85 44/141/85 42/40/85 91/39/85 72/44/85 70/43/85 68/122/85 66/185/85 64/173/85
f 143/50/86 125/49/86 124/48/86 142/47/86
