# Blender v2.76 (sub 0) OBJ File: 'table.blend'
# www.blender.org
mtllib table.mtl
o Cube
v 0.083634 -0.730732 0.423142
v 0.083634 -0.730732 0.515884
v 0.083634 0.700880 0.423142
v 0.083634 0.700880 0.515884
v 0.346322 -0.730732 0.423142
v 0.346322 -0.730732 0.515884
v 0.346322 0.700880 0.423142
v 0.346322 0.700880 0.515884
vt 0.000000 0.000000
vt 1.000000 0.000000
vt 1.000000 1.000000
vt 0.000000 1.000000
vn -1.000000 0.000000 0.000000
vn 0.000000 1.000000 0.000000
vn 1.000000 0.000000 0.000000
vn 0.000000 -1.000000 0.000000
vn 0.000000 0.000000 -1.000000
vn 0.000000 0.000000 1.000000
usemtl Material
s off
f 2/1/1 4/2/1 3/3/1 1/4/1
f 4/1/2 8/2/2 7/3/2 3/4/2
f 8/1/3 6/2/3 5/3/3 7/4/3
f 6/1/4 2/2/4 1/3/4 5/4/4
f 1/1/5 3/2/5 7/3/5 5/4/5
f 6/1/6 8/2/6 4/3/6 2/4/6
o Cube.002_Cube.001
v 0.348856 0.699702 0.373204
v 0.348856 -0.728372 0.373204
v -0.344029 -0.728372 0.373204
v -0.344029 0.699702 0.373204
v 0.348856 0.699702 0.423204
v 0.348855 -0.728372 0.423204
v -0.344029 -0.728372 0.423204
v -0.344029 0.699702 0.423204
v -0.343396 0.571114 0.002136
v -0.343396 0.571114 0.373378
v -0.343396 0.698170 0.002136
v -0.343396 0.698170 0.373378
v -0.279288 0.571114 0.002136
v -0.279288 0.571114 0.373378
v -0.279288 0.698170 0.002136
v -0.279288 0.698170 0.373378
v -0.340904 -0.711454 0.002135
v -0.340904 -0.711454 0.373378
v -0.340904 -0.584398 0.002135
v -0.340904 -0.584398 0.373378
v -0.276796 -0.711454 0.002135
v -0.276796 -0.711454 0.373378
v -0.276796 -0.584398 0.002135
v -0.276796 -0.584398 0.373378
v 0.283399 -0.717374 0.002135
v 0.283399 -0.717374 0.373378
v 0.283399 -0.590318 0.002135
v 0.283399 -0.590318 0.373378
v 0.347507 -0.717374 0.002135
v 0.347507 -0.717374 0.373378
v 0.347507 -0.590318 0.002135
v 0.347507 -0.590318 0.373378
v 0.275923 0.559273 0.002136
v 0.275923 0.559273 0.373378
v 0.275923 0.686329 0.002136
v 0.275923 0.686329 0.373378
v 0.340031 0.559273 0.002136
v 0.340031 0.559273 0.373378
v 0.340031 0.686329 0.002136
v 0.340031 0.686329 0.373378
vt 0.000381 0.000381
vt 0.000381 0.499619
vt 0.499619 0.499619
vt 0.499619 0.000381
vt 0.499619 0.999619
vt 0.000381 0.999619
vt 0.000381 0.500381
vt 0.499619 0.500381
vt 0.541984 0.499619
vt 0.500381 0.499619
vt 0.500381 0.000381
vt 0.541984 0.000381
vt 0.542745 0.000381
vt 0.584348 0.000381
vt 0.584348 0.499619
vt 0.542745 0.499619
vt 0.756331 0.619699
vt 0.706384 0.619699
vt 0.706384 0.928597
vt 0.756331 0.928597
vt 0.644985 0.310040
vt 0.585109 0.310040
vt 0.585109 0.618938
vt 0.644985 0.618938
vt 0.645747 0.619699
vt 0.695694 0.619699
vt 0.695694 0.928597
vt 0.645747 0.928597
vt 0.585109 0.000381
vt 0.644985 0.000381
vt 0.644985 0.309278
vt 0.585109 0.309278
vt 0.816969 0.771064
vt 0.816969 0.721116
vt 0.757093 0.721116
vt 0.757093 0.771064
vt 0.817730 0.720355
vt 0.817730 0.670408
vt 0.877606 0.670408
vt 0.877606 0.720355
vt 0.867678 0.310040
vt 0.817730 0.310040
vt 0.817730 0.618938
vt 0.867677 0.618938
vt 0.705623 0.000381
vt 0.645747 0.000381
vt 0.645747 0.309278
vt 0.705623 0.309278
vt 0.868439 0.310040
vt 0.918386 0.310040
vt 0.918386 0.618938
vt 0.868439 0.618938
vt 0.645747 0.310040
vt 0.705623 0.310040
vt 0.705623 0.618938
vt 0.645747 0.618938
vt 0.816969 0.872482
vt 0.816969 0.822534
vt 0.757093 0.822534
vt 0.757093 0.872482
vt 0.817730 0.669646
vt 0.817730 0.619699
vt 0.877606 0.619699
vt 0.877606 0.669646
vt 0.816969 0.310040
vt 0.767021 0.310040
vt 0.767021 0.618938
vt 0.816969 0.618938
vt 0.560257 0.500381
vt 0.500381 0.500381
vt 0.500381 0.809279
vt 0.560257 0.809279
vt 0.827658 0.000381
vt 0.877606 0.000381
vt 0.877606 0.309278
vt 0.827658 0.309278
vt 0.767021 0.000381
vt 0.826897 0.000381
vt 0.826897 0.309278
vt 0.767021 0.309278
vt 0.560257 0.859987
vt 0.560257 0.810040
vt 0.500381 0.810040
vt 0.500381 0.859987
vt 0.757093 0.821773
vt 0.757093 0.771825
vt 0.816969 0.771825
vt 0.816969 0.821773
vt 0.644985 0.619699
vt 0.595038 0.619699
vt 0.595038 0.928597
vt 0.644985 0.928597
vt 0.766260 0.310040
vt 0.706384 0.310040
vt 0.706384 0.618938
vt 0.766260 0.618938
vt 0.878367 0.000381
vt 0.928315 0.000381
vt 0.928315 0.309278
vt 0.878367 0.309278
vt 0.706384 0.000381
vt 0.766260 0.000381
vt 0.766260 0.309278
vt 0.706384 0.309278
vt 0.816969 0.720355
vt 0.816969 0.670408
vt 0.757093 0.670408
vt 0.757093 0.720355
vt 0.757093 0.669646
vt 0.757093 0.619699
vt 0.816969 0.619699
vt 0.816969 0.669646
vn 0.000000 0.000000 -1.000000
vn -0.000000 -0.000000 1.000000
vn 1.000000 -0.000000 0.000000
vn -0.000000 -1.000000 -0.000000
vn -1.000000 0.000000 -0.000000
vn 0.000000 1.000000 0.000000
usemtl Material.001
s off
f 9/5/7 10/6/7 11/7/7 12/8/7
f 13/9/8 16/10/8 15/11/8 14/12/8
f 9/13/9 13/14/9 14/15/9 10/16/9
f 10/17/10 14/18/10 15/19/10 11/20/10
f 11/20/11 15/19/11 16/18/11 12/17/11
f 13/14/12 9/13/12 12/16/12 16/15/12
f 18/21/11 20/22/11 19/23/11 17/24/11
f 20/25/12 24/26/12 23/27/12 19/28/12
f 24/29/9 22/30/9 21/31/9 23/32/9
f 22/33/10 18/34/10 17/35/10 21/36/10
f 17/37/7 19/38/7 23/39/7 21/40/7
f 22/41/8 24/42/8 20/43/8 18/44/8
f 26/45/11 28/46/11 27/47/11 25/48/11
f 28/49/12 32/50/12 31/51/12 27/52/12
f 32/53/9 30/54/9 29/55/9 31/56/9
f 30/57/10 26/58/10 25/59/10 29/60/10
f 25/61/7 27/62/7 31/63/7 29/64/7
f 30/65/8 32/66/8 28/67/8 26/68/8
f 34/69/11 36/70/11 35/71/11 33/72/11
f 36/73/12 40/74/12 39/75/12 35/76/12
f 40/77/9 38/78/9 37/79/9 39/80/9
f 38/81/10 34/82/10 33/83/10 37/84/10
f 33/85/7 35/86/7 39/87/7 37/88/7
f 38/89/8 40/90/8 36/91/8 34/92/8
f 42/93/11 44/94/11 43/95/11 41/96/11
f 44/97/12 48/98/12 47/99/12 43/100/12
f 48/101/9 46/102/9 45/103/9 47/104/9
f 46/105/10 42/106/10 41/107/10 45/108/10
f 41/109/7 43/110/7 47/111/7 45/112/7
f 46/113/8 48/114/8 44/115/8 42/116/8
