# Blender v3.0.1 OBJ File: ''
# www.blender.org
mtllib srf05.mtl
o srf05
v -0.000000 -0.009379 -0.007930
v -0.012118 -0.010408 -0.008184
v -0.012116 -0.005832 -0.006021
v -0.000000 -0.005873 -0.006004
v -0.000005 -0.003202 -0.001575
v -0.012132 -0.002943 0.000121
v 0.000001 -0.005739 0.006321
v -0.012116 -0.005707 0.005865
v -0.012116 -0.009001 0.007780
v -0.000001 -0.013488 0.008165
v -0.012120 -0.015142 0.007565
v -0.000000 -0.018262 0.004500
v -0.012116 -0.019426 0.002156
v -0.000000 -0.019571 0.000809
v -0.012116 -0.019140 -0.002734
v -0.000127 -0.018693 -0.003975
v -0.012121 -0.016343 -0.006650
v -0.000000 -0.014301 -0.007767
v 0.000108 0.003458 0.002515
v -0.012134 0.002957 0.000008
v -0.000000 0.003832 -0.003058
v -0.012125 0.006789 -0.007052
v 0.000003 0.007930 -0.007634
v -0.012116 0.013251 -0.007971
v -0.000000 0.013519 -0.007915
v -0.012116 0.017738 -0.005425
v -0.000000 0.016987 -0.006004
v 0.000001 0.019764 -0.000805
v -0.012114 0.019636 0.001496
v -0.000000 0.018060 0.004792
v -0.012125 0.016390 0.006560
v 0.000000 0.013143 0.008204
v -0.012112 0.010723 0.008299
v -0.000000 0.007472 0.007159
v -0.012116 0.005832 0.006021
vn -0.0173 0.4273 -0.9039
vn 0.0029 0.4815 -0.8764
vn 0.0037 0.8563 -0.5165
vn -0.0402 0.9042 -0.4253
vn 0.0630 0.9502 0.3052
vn -0.0139 0.9010 0.4335
vn -0.0312 0.5023 0.8641
vn 0.0547 0.2311 0.9714
vn -0.0446 -0.0349 0.9984
vn 0.0438 -0.6083 0.7925
vn -0.0447 -0.7832 0.6202
vn 0.0259 -0.9422 0.3341
vn -0.0184 -0.9981 -0.0584
vn 0.0180 -0.9833 -0.1809
vn -0.0298 -0.8134 -0.5810
vn 0.0405 -0.6537 -0.7557
vn -0.0470 -0.2500 -0.9671
vn 0.0238 -0.0331 -0.9992
vn 1.0000 -0.0001 0.0000
vn 1.0000 0.0000 -0.0000
vn 0.9974 -0.0615 -0.0378
vn 1.0000 -0.0001 0.0001
vn 1.0000 -0.0003 0.0013
vn 1.0000 0.0007 -0.0005
vn 1.0000 0.0001 0.0000
vn 0.0547 -0.9962 -0.0679
vn -0.0570 -0.8774 -0.4763
vn 0.0381 -0.7444 -0.6666
vn -0.0342 -0.1406 -0.9895
vn 0.0057 -0.0502 -0.9987
vn -0.0069 0.4936 -0.8697
vn -0.0120 0.4826 -0.8758
vn 0.0322 0.8816 -0.4709
vn -0.0603 0.9626 -0.2640
vn 0.0452 0.9557 0.2909
vn -0.0372 0.8414 0.5392
vn 0.0413 0.5695 0.8210
vn -0.0510 0.2929 0.9548
vn 0.0439 -0.1809 0.9825
vn -0.0280 -0.4221 0.9061
vn 0.0408 -0.7555 0.6539
vn -0.0514 -0.9009 0.4309
vn 1.0000 -0.0000 -0.0002
vn 1.0000 0.0007 0.0014
vn 1.0000 -0.0001 0.0002
vn 0.9988 0.0457 -0.0163
usemtl None
s off
f 1//1 2//1 3//1
f 1//2 3//2 4//2
f 4//3 3//3 5//3
f 5//4 3//4 6//4
f 5//5 6//5 7//5
f 6//6 8//6 7//6
f 7//7 8//7 9//7
f 7//8 9//8 10//8
f 10//9 9//9 11//9
f 10//10 11//10 12//10
f 12//11 11//11 13//11
f 12//12 13//12 14//12
f 14//13 13//13 15//13
f 14//14 15//14 16//14
f 16//15 15//15 17//15
f 16//16 17//16 18//16
f 18//17 17//17 2//17
f 18//18 2//18 1//18
f 7//19 10//19 18//19
f 14//20 18//20 12//20
f 14//21 16//21 18//21
f 1//22 4//22 18//22
f 18//23 4//23 5//23
f 5//24 7//24 18//24
f 18//25 10//25 12//25
f 19//26 20//26 21//26
f 20//27 22//27 21//27
f 21//28 22//28 23//28
f 23//29 22//29 24//29
f 23//30 24//30 25//30
f 25//31 24//31 26//31
f 25//32 26//32 27//32
f 27//33 26//33 28//33
f 28//34 26//34 29//34
f 28//35 29//35 30//35
f 30//36 29//36 31//36
f 30//37 31//37 32//37
f 32//38 31//38 33//38
f 32//39 33//39 34//39
f 34//40 33//40 35//40
f 34//41 35//41 19//41
f 19//42 35//42 20//42
f 25//20 27//20 21//20
f 30//20 32//20 21//20
f 21//43 27//43 28//43
f 25//44 21//44 23//44
f 21//45 28//45 30//45
f 21//20 32//20 34//20
f 34//46 19//46 21//46
