# Blender v2.79 (sub 0) OBJ File: ''
# www.blender.org
mtllib gripper_push3.mtl
o Gripper_Push3
v 1270.000000 889.000000 508.000000
v 1270.000000 -889.000000 508.000000
v 1270.000000 889.000000 762.000000
v 1270.000000 -889.000000 762.000000
v 1397.000000 -889.000000 762.000000
v 1397.000000 889.000000 762.000000
v -1270.000000 -889.000000 508.000000
v -1270.000000 889.000000 508.000000
v -1270.000000 -889.000000 762.000000
v -1270.000000 889.000000 762.000000
v -1397.000000 889.000000 762.000000
v -1397.000000 -889.000000 762.000000
v -1397.000000 -889.000000 381.000000
v 12.247905 -444.331238 381.000000
v 1397.000000 -889.000000 381.000000
v 36.706520 -442.981812 381.000000
v 61.053658 -440.287079 381.000000
v -1397.000000 889.000000 381.000000
v -444.500000 0.000000 381.000000
v -443.825043 -24.486509 381.000000
v -441.802185 -48.898655 381.000000
v 1397.000000 889.000000 381.000000
v -12.247905 444.331238 381.000000
v -36.706520 442.981812 381.000000
v -61.053658 440.287079 381.000000
v 444.500000 0.000000 381.000000
v 443.825043 24.486509 381.000000
v 441.802185 48.898655 381.000000
v 438.437592 73.162292 381.000000
v 433.741486 97.203743 381.000000
v 427.728119 120.949989 381.000000
v 420.415771 144.328918 381.000000
v 411.826599 167.269516 381.000000
v 401.986755 189.702133 381.000000
v 390.926086 211.558609 381.000000
v 378.678192 232.772614 381.000000
v 365.280243 253.279678 381.000000
v 350.772949 273.017548 381.000000
v 335.200378 291.926270 381.000000
v 318.609833 309.948425 381.000000
v 301.051666 327.029266 381.000000
v 282.579193 343.116943 381.000000
v 263.248566 358.162598 381.000000
v 243.118454 372.120514 381.000000
v 222.250000 384.948303 381.000000
v 200.706573 396.606995 381.000000
v 178.553619 407.061249 381.000000
v 155.858398 416.279236 381.000000
v 132.689835 424.233032 381.000000
v 109.118301 430.898407 381.000000
v 85.215378 436.255188 381.000000
v 61.053658 440.287079 381.000000
v 36.706520 442.981812 381.000000
v 12.247905 444.331238 381.000000
v -85.215378 436.255188 381.000000
v -109.118301 430.898407 381.000000
v -132.689835 424.233032 381.000000
v -155.858398 416.279236 381.000000
v -178.553619 407.061249 381.000000
v -200.706573 396.606995 381.000000
v -222.250000 384.948303 381.000000
v -243.118454 372.120514 381.000000
v -263.248566 358.162598 381.000000
v -282.579193 343.116943 381.000000
v -301.051666 327.029266 381.000000
v -318.609833 309.948425 381.000000
v -335.200378 291.926270 381.000000
v -350.772949 273.017548 381.000000
v -365.280243 253.279678 381.000000
v -378.678192 232.772614 381.000000
v -390.926086 211.558609 381.000000
v -401.986755 189.702133 381.000000
v -411.826599 167.269516 381.000000
v -420.415771 144.328918 381.000000
v -427.728119 120.949989 381.000000
v -433.741486 97.203743 381.000000
v -438.437592 73.162292 381.000000
v -441.802185 48.898655 381.000000
v -443.825043 24.486509 381.000000
v -438.437592 -73.162292 381.000000
v -433.741486 -97.203743 381.000000
v -427.728119 -120.949989 381.000000
v -420.415771 -144.328918 381.000000
v -411.826599 -167.269516 381.000000
v -401.986755 -189.702133 381.000000
v -390.926086 -211.558609 381.000000
v -378.678192 -232.772614 381.000000
v -365.280243 -253.279678 381.000000
v -350.772949 -273.017548 381.000000
v -335.200378 -291.926270 381.000000
v -318.609833 -309.948425 381.000000
v -301.051666 -327.029266 381.000000
v -282.579193 -343.116943 381.000000
v -263.248566 -358.162598 381.000000
v -243.118454 -372.120514 381.000000
v -222.250000 -384.948303 381.000000
v -200.706573 -396.606995 381.000000
v -178.553619 -407.061249 381.000000
v -155.858398 -416.279236 381.000000
v -132.689835 -424.233032 381.000000
v -109.118301 -430.898407 381.000000
v -85.215378 -436.255188 381.000000
v -61.053658 -440.287079 381.000000
v -36.706520 -442.981812 381.000000
v -12.247905 -444.331238 381.000000
v 85.215378 -436.255188 381.000000
v 109.118301 -430.898407 381.000000
v 132.689835 -424.233032 381.000000
v 155.858398 -416.279236 381.000000
v 178.553619 -407.061249 381.000000
v 200.706573 -396.606995 381.000000
v 222.250000 -384.948303 381.000000
v 243.118454 -372.120514 381.000000
v 263.248566 -358.162598 381.000000
v 282.579193 -343.116943 381.000000
v 301.051666 -327.029266 381.000000
v 318.609833 -309.948425 381.000000
v 335.200378 -291.926270 381.000000
v 350.772949 -273.017548 381.000000
v 365.280243 -253.279678 381.000000
v 378.678192 -232.772614 381.000000
v 390.926086 -211.558609 381.000000
v 401.986755 -189.702133 381.000000
v 411.826599 -167.269516 381.000000
v 420.415771 -144.328918 381.000000
v 427.728119 -120.949989 381.000000
v 433.741486 -97.203743 381.000000
v 438.437592 -73.162292 381.000000
v 441.802185 -48.898655 381.000000
v 443.825043 -24.486509 381.000000
v 443.825043 -24.486509 0.000000
v 444.500000 0.000000 0.000000
v 443.825043 24.486509 0.000000
v 441.802185 48.898655 0.000000
v 438.437592 73.162292 0.000000
v 433.741486 97.203743 0.000000
v 427.728119 120.949989 0.000000
v 420.415771 144.328918 0.000000
v 411.826599 167.269516 0.000000
v 401.986755 189.702133 0.000000
v 390.926086 211.558609 0.000000
v 378.678192 232.772614 0.000000
v 365.280243 253.279678 0.000000
v 350.772949 273.017548 0.000000
v 335.200378 291.926270 0.000000
v 318.609833 309.948425 0.000000
v 301.051666 327.029266 0.000000
v 282.579193 343.116943 0.000000
v 263.248566 358.162598 0.000000
v 243.118454 372.120514 0.000000
v 222.250000 384.948303 0.000000
v 200.706573 396.606995 0.000000
v 178.553619 407.061249 0.000000
v 155.858398 416.279236 0.000000
v 132.689835 424.233032 0.000000
v 109.118301 430.898407 0.000000
v 85.215378 436.255188 0.000000
v 61.053658 440.287079 0.000000
v 36.706520 442.981812 0.000000
v 12.247905 444.331238 0.000000
v -12.247905 444.331238 0.000000
v -36.706520 442.981812 0.000000
v -61.053658 440.287079 0.000000
v -85.215378 436.255188 0.000000
v -109.118301 430.898407 0.000000
v -132.689835 424.233032 0.000000
v -155.858398 416.279236 0.000000
v -178.553619 407.061249 0.000000
v -200.706573 396.606995 0.000000
v -222.250000 384.948303 0.000000
v -243.118454 372.120514 0.000000
v -263.248566 358.162598 0.000000
v -282.579193 343.116943 0.000000
v -301.051666 327.029266 0.000000
v -318.609833 309.948425 0.000000
v -335.200378 291.926270 0.000000
v -350.772949 273.017548 0.000000
v -365.280243 253.279678 0.000000
v -378.678192 232.772614 0.000000
v -390.926086 211.558609 0.000000
v -401.986755 189.702133 0.000000
v -411.826599 167.269516 0.000000
v -420.415771 144.328918 0.000000
v -427.728119 120.949989 0.000000
v -433.741486 97.203743 0.000000
v -438.437592 73.162292 0.000000
v -441.802185 48.898655 0.000000
v -443.825043 24.486509 0.000000
v -444.500000 0.000000 0.000000
v -443.825043 -24.486509 0.000000
v -441.802185 -48.898655 0.000000
v -438.437592 -73.162292 0.000000
v -433.741486 -97.203743 0.000000
v -427.728119 -120.949989 0.000000
v -420.415771 -144.328918 0.000000
v -411.826599 -167.269516 0.000000
v -401.986755 -189.702133 0.000000
v -390.926086 -211.558609 0.000000
v -378.678192 -232.772614 0.000000
v -365.280243 -253.279678 0.000000
v -350.772949 -273.017548 0.000000
v -335.200378 -291.926270 0.000000
v -318.609833 -309.948425 0.000000
v -301.051666 -327.029266 0.000000
v -282.579193 -343.116943 0.000000
v -263.248566 -358.162598 0.000000
v -243.118454 -372.120514 0.000000
v -222.250000 -384.948303 0.000000
v -200.706573 -396.606995 0.000000
v -178.553619 -407.061249 0.000000
v -155.858398 -416.279236 0.000000
v -132.689835 -424.233032 0.000000
v -109.118301 -430.898407 0.000000
v -85.215378 -436.255188 0.000000
v -61.053658 -440.287079 0.000000
v -36.706520 -442.981812 0.000000
v -12.247905 -444.331238 0.000000
v 12.247905 -444.331238 0.000000
v 36.706520 -442.981812 0.000000
v 61.053658 -440.287079 0.000000
v 85.215378 -436.255188 0.000000
v 109.118301 -430.898407 0.000000
v 132.689835 -424.233032 0.000000
v 155.858398 -416.279236 0.000000
v 178.553619 -407.061249 0.000000
v 200.706573 -396.606995 0.000000
v 222.250000 -384.948303 0.000000
v 243.118454 -372.120514 0.000000
v 263.248566 -358.162598 0.000000
v 282.579193 -343.116943 0.000000
v 301.051666 -327.029266 0.000000
v 318.609833 -309.948425 0.000000
v 335.200378 -291.926270 0.000000
v 350.772949 -273.017548 0.000000
v 365.280243 -253.279678 0.000000
v 378.678192 -232.772614 0.000000
v 390.926086 -211.558609 0.000000
v 401.986755 -189.702133 0.000000
v 411.826599 -167.269516 0.000000
v 420.415771 -144.328918 0.000000
v 427.728119 -120.949989 0.000000
v 433.741486 -97.203743 0.000000
v 438.437592 -73.162292 0.000000
v 441.802185 -48.898655 0.000000
vn -1.0000 0.0000 0.0000
vn 0.0000 0.0000 1.0000
vn 1.0000 0.0000 0.0000
vn 0.0000 0.0000 -1.0000
vn 0.0000 1.0000 0.0000
vn 0.0000 -1.0000 0.0000
vn 0.9996 -0.0276 0.0000
vn 0.9996 0.0276 0.0000
vn 0.9966 0.0826 0.0000
vn 0.9905 0.1374 0.0000
vn 0.9815 0.1917 0.0000
vn 0.9694 0.2455 0.0000
vn 0.9544 0.2985 0.0000
vn 0.9365 0.3506 0.0000
vn 0.9158 0.4017 0.0000
vn 0.8923 0.4515 0.0000
vn 0.8660 0.5000 0.0000
vn 0.8372 0.5469 0.0000
vn 0.8058 0.5922 0.0000
vn 0.7719 0.6357 0.0000
vn 0.7357 0.6773 0.0000
vn 0.6973 0.7168 0.0000
vn 0.6568 0.7541 0.0000
vn 0.6142 0.7891 0.0000
vn 0.5698 0.8218 0.0000
vn 0.5237 0.8519 0.0000
vn 0.4759 0.8795 0.0000
vn 0.4268 0.9044 0.0000
vn 0.3763 0.9265 0.0000
vn 0.3247 0.9458 0.0000
vn 0.2721 0.9623 0.0000
vn 0.2187 0.9758 0.0000
vn 0.1646 0.9864 0.0000
vn 0.1100 0.9939 0.0000
vn 0.0551 0.9985 0.0000
vn -0.0551 0.9985 0.0000
vn -0.1100 0.9939 0.0000
vn -0.1646 0.9864 0.0000
vn -0.2187 0.9758 0.0000
vn -0.2721 0.9623 0.0000
vn -0.3247 0.9458 0.0000
vn -0.3763 0.9265 0.0000
vn -0.4268 0.9044 0.0000
vn -0.4759 0.8795 0.0000
vn -0.5237 0.8519 0.0000
vn -0.5698 0.8218 0.0000
vn -0.6142 0.7891 0.0000
vn -0.6568 0.7541 0.0000
vn -0.6973 0.7168 0.0000
vn -0.7357 0.6773 0.0000
vn -0.7719 0.6357 0.0000
vn -0.8058 0.5922 0.0000
vn -0.8372 0.5469 0.0000
vn -0.8660 0.5000 0.0000
vn -0.8923 0.4515 0.0000
vn -0.9158 0.4017 0.0000
vn -0.9365 0.3506 0.0000
vn -0.9544 0.2985 0.0000
vn -0.9694 0.2455 0.0000
vn -0.9815 0.1917 0.0000
vn -0.9905 0.1374 0.0000
vn -0.9966 0.0826 0.0000
vn -0.9996 0.0276 0.0000
vn -0.9996 -0.0276 0.0000
vn -0.9966 -0.0826 0.0000
vn -0.9905 -0.1374 0.0000
vn -0.9815 -0.1917 0.0000
vn -0.9694 -0.2455 0.0000
vn -0.9544 -0.2985 0.0000
vn -0.9365 -0.3506 0.0000
vn -0.9158 -0.4017 0.0000
vn -0.8923 -0.4515 0.0000
vn -0.8660 -0.5000 0.0000
vn -0.8372 -0.5469 0.0000
vn -0.8058 -0.5922 0.0000
vn -0.7719 -0.6357 0.0000
vn -0.7357 -0.6773 0.0000
vn -0.6973 -0.7168 0.0000
vn -0.6568 -0.7541 0.0000
vn -0.6142 -0.7891 0.0000
vn -0.5698 -0.8218 0.0000
vn -0.5237 -0.8519 0.0000
vn -0.4759 -0.8795 0.0000
vn -0.4268 -0.9044 0.0000
vn -0.3763 -0.9265 0.0000
vn -0.3247 -0.9458 0.0000
vn -0.2721 -0.9623 0.0000
vn -0.2187 -0.9758 0.0000
vn -0.1646 -0.9864 0.0000
vn -0.1100 -0.9939 0.0000
vn -0.0551 -0.9985 0.0000
vn 0.0551 -0.9985 0.0000
vn 0.1100 -0.9939 0.0000
vn 0.1646 -0.9864 0.0000
vn 0.2187 -0.9758 0.0000
vn 0.2721 -0.9623 0.0000
vn 0.3247 -0.9458 0.0000
vn 0.3763 -0.9265 0.0000
vn 0.4268 -0.9044 0.0000
vn 0.4759 -0.8795 0.0000
vn 0.5237 -0.8519 0.0000
vn 0.5698 -0.8218 0.0000
vn 0.6142 -0.7891 0.0000
vn 0.6568 -0.7541 0.0000
vn 0.6973 -0.7168 0.0000
vn 0.7357 -0.6773 0.0000
vn 0.7719 -0.6357 0.0000
vn 0.8058 -0.5922 0.0000
vn 0.8372 -0.5469 0.0000
vn 0.8660 -0.5000 0.0000
vn 0.8923 -0.4515 0.0000
vn 0.9158 -0.4017 0.0000
vn 0.9365 -0.3506 0.0000
vn 0.9544 -0.2985 0.0000
vn 0.9694 -0.2455 0.0000
vn 0.9815 -0.1917 0.0000
vn 0.9905 -0.1374 0.0000
vn 0.9966 -0.0826 0.0000
usemtl None
s off
f 1//1 2//1 3//1
f 3//1 2//1 4//1
f 4//2 5//2 3//2
f 3//2 5//2 6//2
f 7//3 8//3 9//3
f 9//3 8//3 10//3
f 10//2 11//2 9//2
f 9//2 11//2 12//2
f 13//4 14//4 15//4
f 15//4 14//4 16//4
f 15//4 16//4 17//4
f 18//4 19//4 13//4
f 13//4 19//4 20//4
f 13//4 20//4 21//4
f 22//4 23//4 18//4
f 18//4 23//4 24//4
f 18//4 24//4 25//4
f 15//4 26//4 22//4
f 22//4 26//4 27//4
f 22//4 27//4 28//4
f 28//4 29//4 22//4
f 22//4 29//4 30//4
f 22//4 30//4 31//4
f 31//4 32//4 22//4
f 22//4 32//4 33//4
f 22//4 33//4 34//4
f 34//4 35//4 22//4
f 22//4 35//4 36//4
f 22//4 36//4 37//4
f 37//4 38//4 22//4
f 22//4 38//4 39//4
f 22//4 39//4 40//4
f 40//4 41//4 22//4
f 22//4 41//4 42//4
f 22//4 42//4 43//4
f 43//4 44//4 22//4
f 22//4 44//4 45//4
f 22//4 45//4 46//4
f 46//4 47//4 22//4
f 22//4 47//4 48//4
f 22//4 48//4 49//4
f 49//4 50//4 22//4
f 22//4 50//4 51//4
f 22//4 51//4 52//4
f 52//4 53//4 22//4
f 22//4 53//4 54//4
f 22//4 54//4 23//4
f 25//4 55//4 18//4
f 18//4 55//4 56//4
f 18//4 56//4 57//4
f 57//4 58//4 18//4
f 18//4 58//4 59//4
f 18//4 59//4 60//4
f 60//4 61//4 18//4
f 18//4 61//4 62//4
f 18//4 62//4 63//4
f 63//4 64//4 18//4
f 18//4 64//4 65//4
f 18//4 65//4 66//4
f 66//4 67//4 18//4
f 18//4 67//4 68//4
f 18//4 68//4 69//4
f 69//4 70//4 18//4
f 18//4 70//4 71//4
f 18//4 71//4 72//4
f 72//4 73//4 18//4
f 18//4 73//4 74//4
f 18//4 74//4 75//4
f 75//4 76//4 18//4
f 18//4 76//4 77//4
f 18//4 77//4 78//4
f 78//4 79//4 18//4
f 18//4 79//4 19//4
f 21//4 80//4 13//4
f 13//4 80//4 81//4
f 13//4 81//4 82//4
f 82//4 83//4 13//4
f 13//4 83//4 84//4
f 13//4 84//4 85//4
f 85//4 86//4 13//4
f 13//4 86//4 87//4
f 13//4 87//4 88//4
f 88//4 89//4 13//4
f 13//4 89//4 90//4
f 13//4 90//4 91//4
f 91//4 92//4 13//4
f 13//4 92//4 93//4
f 13//4 93//4 94//4
f 94//4 95//4 13//4
f 13//4 95//4 96//4
f 13//4 96//4 97//4
f 97//4 98//4 13//4
f 13//4 98//4 99//4
f 13//4 99//4 100//4
f 100//4 101//4 13//4
f 13//4 101//4 102//4
f 13//4 102//4 103//4
f 103//4 104//4 13//4
f 13//4 104//4 105//4
f 13//4 105//4 14//4
f 17//4 106//4 15//4
f 15//4 106//4 107//4
f 15//4 107//4 108//4
f 108//4 109//4 15//4
f 15//4 109//4 110//4
f 15//4 110//4 111//4
f 111//4 112//4 15//4
f 15//4 112//4 113//4
f 15//4 113//4 114//4
f 114//4 115//4 15//4
f 15//4 115//4 116//4
f 15//4 116//4 117//4
f 117//4 118//4 15//4
f 15//4 118//4 119//4
f 15//4 119//4 120//4
f 120//4 121//4 15//4
f 15//4 121//4 122//4
f 15//4 122//4 123//4
f 123//4 124//4 15//4
f 15//4 124//4 125//4
f 15//4 125//4 126//4
f 126//4 127//4 15//4
f 15//4 127//4 128//4
f 15//4 128//4 129//4
f 129//4 130//4 15//4
f 15//4 130//4 26//4
f 18//1 13//1 11//1
f 11//1 13//1 12//1
f 6//5 22//5 1//5
f 1//5 22//5 18//5
f 1//5 18//5 8//5
f 8//5 18//5 11//5
f 8//5 11//5 10//5
f 1//5 3//5 6//5
f 15//3 22//3 5//3
f 5//3 22//3 6//3
f 12//6 13//6 7//6
f 7//6 13//6 15//6
f 7//6 15//6 2//6
f 2//6 15//6 5//6
f 2//6 5//6 4//6
f 7//6 9//6 12//6
f 1//2 8//2 2//2
f 2//2 8//2 7//2
f 130//7 131//7 26//7
f 26//7 131//7 132//7
f 26//8 132//8 27//8
f 27//8 132//8 133//8
f 27//9 133//9 28//9
f 28//9 133//9 134//9
f 28//10 134//10 29//10
f 29//10 134//10 135//10
f 29//11 135//11 30//11
f 30//11 135//11 136//11
f 30//12 136//12 31//12
f 31//12 136//12 137//12
f 31//13 137//13 32//13
f 32//13 137//13 138//13
f 32//14 138//14 33//14
f 33//14 138//14 139//14
f 33//15 139//15 34//15
f 34//15 139//15 140//15
f 34//16 140//16 35//16
f 35//16 140//16 141//16
f 35//17 141//17 36//17
f 36//17 141//17 142//17
f 36//18 142//18 37//18
f 37//18 142//18 143//18
f 37//19 143//19 38//19
f 38//19 143//19 144//19
f 38//20 144//20 39//20
f 39//20 144//20 145//20
f 39//21 145//21 40//21
f 40//21 145//21 146//21
f 40//22 146//22 41//22
f 41//22 146//22 147//22
f 41//23 147//23 42//23
f 42//23 147//23 148//23
f 42//24 148//24 43//24
f 43//24 148//24 149//24
f 43//25 149//25 44//25
f 44//25 149//25 150//25
f 44//26 150//26 45//26
f 45//26 150//26 151//26
f 45//27 151//27 46//27
f 46//27 151//27 152//27
f 46//28 152//28 47//28
f 47//28 152//28 153//28
f 47//29 153//29 48//29
f 48//29 153//29 154//29
f 48//30 154//30 49//30
f 49//30 154//30 155//30
f 49//31 155//31 50//31
f 50//31 155//31 156//31
f 50//32 156//32 51//32
f 51//32 156//32 157//32
f 51//33 157//33 52//33
f 52//33 157//33 158//33
f 52//34 158//34 53//34
f 53//34 158//34 159//34
f 53//35 159//35 54//35
f 54//35 159//35 160//35
f 54//5 160//5 23//5
f 23//5 160//5 161//5
f 23//36 161//36 24//36
f 24//36 161//36 162//36
f 24//37 162//37 25//37
f 25//37 162//37 163//37
f 25//38 163//38 55//38
f 55//38 163//38 164//38
f 55//39 164//39 56//39
f 56//39 164//39 165//39
f 56//40 165//40 57//40
f 57//40 165//40 166//40
f 57//41 166//41 58//41
f 58//41 166//41 167//41
f 58//42 167//42 59//42
f 59//42 167//42 168//42
f 59//43 168//43 60//43
f 60//43 168//43 169//43
f 60//44 169//44 61//44
f 61//44 169//44 170//44
f 61//45 170//45 62//45
f 62//45 170//45 171//45
f 62//46 171//46 63//46
f 63//46 171//46 172//46
f 63//47 172//47 64//47
f 64//47 172//47 173//47
f 64//48 173//48 65//48
f 65//48 173//48 174//48
f 65//49 174//49 66//49
f 66//49 174//49 175//49
f 66//50 175//50 67//50
f 67//50 175//50 176//50
f 67//51 176//51 68//51
f 68//51 176//51 177//51
f 68//52 177//52 69//52
f 69//52 177//52 178//52
f 69//53 178//53 70//53
f 70//53 178//53 179//53
f 70//54 179//54 71//54
f 71//54 179//54 180//54
f 71//55 180//55 72//55
f 72//55 180//55 181//55
f 72//56 181//56 73//56
f 73//56 181//56 182//56
f 73//57 182//57 74//57
f 74//57 182//57 183//57
f 74//58 183//58 75//58
f 75//58 183//58 184//58
f 75//59 184//59 76//59
f 76//59 184//59 185//59
f 76//60 185//60 77//60
f 77//60 185//60 186//60
f 77//61 186//61 78//61
f 78//61 186//61 187//61
f 78//62 187//62 79//62
f 79//62 187//62 188//62
f 79//63 188//63 19//63
f 19//63 188//63 189//63
f 19//64 189//64 20//64
f 20//64 189//64 190//64
f 20//65 190//65 21//65
f 21//65 190//65 191//65
f 21//66 191//66 80//66
f 80//66 191//66 192//66
f 80//67 192//67 81//67
f 81//67 192//67 193//67
f 81//68 193//68 82//68
f 82//68 193//68 194//68
f 82//69 194//69 83//69
f 83//69 194//69 195//69
f 83//70 195//70 84//70
f 84//70 195//70 196//70
f 84//71 196//71 85//71
f 85//71 196//71 197//71
f 85//72 197//72 86//72
f 86//72 197//72 198//72
f 86//73 198//73 87//73
f 87//73 198//73 199//73
f 87//74 199//74 88//74
f 88//74 199//74 200//74
f 88//75 200//75 89//75
f 89//75 200//75 201//75
f 89//76 201//76 90//76
f 90//76 201//76 202//76
f 90//77 202//77 91//77
f 91//77 202//77 203//77
f 91//78 203//78 92//78
f 92//78 203//78 204//78
f 92//79 204//79 93//79
f 93//79 204//79 205//79
f 93//80 205//80 94//80
f 94//80 205//80 206//80
f 94//81 206//81 95//81
f 95//81 206//81 207//81
f 95//82 207//82 96//82
f 96//82 207//82 208//82
f 96//83 208//83 97//83
f 97//83 208//83 209//83
f 97//84 209//84 98//84
f 98//84 209//84 210//84
f 98//85 210//85 99//85
f 99//85 210//85 211//85
f 99//86 211//86 100//86
f 100//86 211//86 212//86
f 100//87 212//87 101//87
f 101//87 212//87 213//87
f 101//88 213//88 102//88
f 102//88 213//88 214//88
f 102//89 214//89 103//89
f 103//89 214//89 215//89
f 103//90 215//90 104//90
f 104//90 215//90 216//90
f 104//91 216//91 105//91
f 105//91 216//91 217//91
f 105//6 217//6 14//6
f 14//6 217//6 218//6
f 14//92 218//92 16//92
f 16//92 218//92 219//92
f 16//93 219//93 17//93
f 17//93 219//93 220//93
f 17//94 220//94 106//94
f 106//94 220//94 221//94
f 106//95 221//95 107//95
f 107//95 221//95 222//95
f 107//96 222//96 108//96
f 108//96 222//96 223//96
f 108//97 223//97 109//97
f 109//97 223//97 224//97
f 109//98 224//98 110//98
f 110//98 224//98 225//98
f 110//99 225//99 111//99
f 111//99 225//99 226//99
f 111//100 226//100 112//100
f 112//100 226//100 227//100
f 112//101 227//101 113//101
f 113//101 227//101 228//101
f 113//102 228//102 114//102
f 114//102 228//102 229//102
f 114//103 229//103 115//103
f 115//103 229//103 230//103
f 115//104 230//104 116//104
f 116//104 230//104 231//104
f 116//105 231//105 117//105
f 117//105 231//105 232//105
f 117//106 232//106 118//106
f 118//106 232//106 233//106
f 118//107 233//107 119//107
f 119//107 233//107 234//107
f 119//108 234//108 120//108
f 120//108 234//108 235//108
f 120//109 235//109 121//109
f 121//109 235//109 236//109
f 121//110 236//110 122//110
f 122//110 236//110 237//110
f 122//111 237//111 123//111
f 123//111 237//111 238//111
f 123//112 238//112 124//112
f 124//112 238//112 239//112
f 124//113 239//113 125//113
f 125//113 239//113 240//113
f 125//114 240//114 126//114
f 126//114 240//114 241//114
f 126//115 241//115 127//115
f 127//115 241//115 242//115
f 127//116 242//116 128//116
f 128//116 242//116 243//116
f 128//117 243//117 129//117
f 129//117 243//117 244//117
f 129//118 244//118 130//118
f 130//118 244//118 131//118
f 131//4 190//4 132//4
f 132//4 190//4 189//4
f 132//4 189//4 133//4
f 133//4 189//4 188//4
f 133//4 188//4 134//4
f 134//4 188//4 187//4
f 134//4 187//4 135//4
f 135//4 187//4 186//4
f 135//4 186//4 136//4
f 136//4 186//4 185//4
f 136//4 185//4 137//4
f 137//4 185//4 184//4
f 137//4 184//4 138//4
f 138//4 184//4 183//4
f 138//4 183//4 139//4
f 139//4 183//4 182//4
f 139//4 182//4 140//4
f 140//4 182//4 181//4
f 140//4 181//4 141//4
f 141//4 181//4 180//4
f 141//4 180//4 142//4
f 142//4 180//4 179//4
f 142//4 179//4 143//4
f 143//4 179//4 178//4
f 143//4 178//4 144//4
f 144//4 178//4 177//4
f 144//4 177//4 145//4
f 145//4 177//4 176//4
f 145//4 176//4 146//4
f 146//4 176//4 175//4
f 146//4 175//4 147//4
f 147//4 175//4 174//4
f 147//4 174//4 148//4
f 148//4 174//4 173//4
f 148//4 173//4 149//4
f 149//4 173//4 172//4
f 149//4 172//4 150//4
f 150//4 172//4 171//4
f 150//4 171//4 151//4
f 151//4 171//4 170//4
f 151//4 170//4 152//4
f 152//4 170//4 169//4
f 152//4 169//4 153//4
f 153//4 169//4 168//4
f 153//4 168//4 154//4
f 154//4 168//4 167//4
f 154//4 167//4 155//4
f 155//4 167//4 166//4
f 155//4 166//4 156//4
f 156//4 166//4 165//4
f 156//4 165//4 157//4
f 157//4 165//4 164//4
f 157//4 164//4 158//4
f 158//4 164//4 163//4
f 158//4 163//4 159//4
f 159//4 163//4 162//4
f 159//4 162//4 160//4
f 160//4 162//4 161//4
f 190//4 131//4 191//4
f 191//4 131//4 244//4
f 191//4 244//4 192//4
f 192//4 244//4 243//4
f 192//4 243//4 193//4
f 193//4 243//4 242//4
f 193//4 242//4 194//4
f 194//4 242//4 241//4
f 194//4 241//4 195//4
f 195//4 241//4 240//4
f 195//4 240//4 196//4
f 196//4 240//4 239//4
f 196//4 239//4 197//4
f 197//4 239//4 238//4
f 197//4 238//4 198//4
f 198//4 238//4 237//4
f 198//4 237//4 199//4
f 199//4 237//4 236//4
f 199//4 236//4 200//4
f 200//4 236//4 235//4
f 200//4 235//4 201//4
f 201//4 235//4 234//4
f 201//4 234//4 202//4
f 202//4 234//4 233//4
f 202//4 233//4 203//4
f 203//4 233//4 232//4
f 203//4 232//4 204//4
f 204//4 232//4 231//4
f 204//4 231//4 205//4
f 205//4 231//4 230//4
f 205//4 230//4 206//4
f 206//4 230//4 229//4
f 206//4 229//4 207//4
f 207//4 229//4 228//4
f 207//4 228//4 208//4
f 208//4 228//4 227//4
f 208//4 227//4 209//4
f 209//4 227//4 226//4
f 209//4 226//4 210//4
f 210//4 226//4 225//4
f 210//4 225//4 211//4
f 211//4 225//4 224//4
f 211//4 224//4 212//4
f 212//4 224//4 223//4
f 212//4 223//4 213//4
f 213//4 223//4 222//4
f 213//4 222//4 214//4
f 214//4 222//4 221//4
f 214//4 221//4 215//4
f 215//4 221//4 220//4
f 215//4 220//4 216//4
f 216//4 220//4 219//4
f 216//4 219//4 217//4
f 217//4 219//4 218//4
