# Blender v2.79 (sub 0) OBJ File: ''
# www.blender.org
mtllib gripper_push_right.mtl
o Gripper_Push_Right
v 1270.000000 762.000000 508.000000
v 1397.000000 762.000000 508.000000
v 1270.000000 -762.000000 508.000000
v 1397.000000 -762.000000 508.000000
v 1270.000000 762.000000 1143.000000
v 1270.000000 -762.000000 1143.000000
v 1397.000000 762.000000 1143.000000
v 1397.000000 -762.000000 1143.000000
vn 0.0000 0.0000 -1.0000
vn -1.0000 0.0000 0.0000
vn 0.0000 1.0000 0.0000
vn 1.0000 0.0000 0.0000
vn 0.0000 -1.0000 0.0000
vn 0.0000 0.0000 1.0000
usemtl None
s off
f 1//1 2//1 3//1
f 3//1 2//1 4//1
f 1//2 3//2 5//2
f 5//2 3//2 6//2
f 2//3 1//3 7//3
f 7//3 1//3 5//3
f 4//4 2//4 8//4
f 8//4 2//4 7//4
f 3//5 4//5 6//5
f 6//5 4//5 8//5
f 6//6 8//6 5//6
f 5//6 8//6 7//6
