# Blender 3.6.11
# www.blender.org
mtllib 003_cracker_box.mtl
o textured_simple.016
v -0.032954 -0.079360 0.001413
v 0.031564 -0.080609 0.001621
v 0.025138 -0.082843 0.129743
v -0.033661 0.078024 0.207791
v -0.032865 0.078626 0.001234
v 0.025898 0.078245 0.136725
v 0.030436 0.075917 0.003773
v 0.007328 0.077149 -0.000319
v -0.032438 -0.013891 0.210331
v -0.033501 -0.081555 0.209486
v 0.026886 -0.079826 0.209856
v 0.031099 0.074704 0.207910
v -0.007967 0.079874 0.208286
vn -0.5790 0.5901 0.5626
vn -0.5728 0.5910 -0.5680
vn -0.5825 -0.5662 -0.5832
vn 0.5891 -0.5759 -0.5669
vn 0.6801 -0.7331 0.0046
vn 0.6842 0.7291 -0.0140
vn -0.5818 -0.5784 0.5718
vn 0.6405 0.5760 -0.5079
vn 0.0698 0.7085 -0.7022
vn -0.6945 0.0049 0.7194
vn 0.5849 -0.5619 0.5849
vn 0.6219 0.5439 0.5635
vn 0.0429 0.9970 0.0641
vt 0.157532 0.601949
vt 0.158577 0.147629
vt 0.503414 0.146310
vt 0.645027 0.149054
vt 0.639678 0.431049
vt 0.979033 0.427290
vt 0.527333 0.605282
vt 0.507549 0.014872
vt 0.158959 0.015478
vt 0.167551 0.067221
vt 0.083333 0.155287
vt 0.022570 0.156431
vt 0.022143 0.450238
vt 0.985310 0.155096
vt 0.352064 0.614066
vt 0.504226 0.613685
vt 0.502687 0.740943
vt 0.986049 0.602507
vt 0.643862 0.605825
vt 0.158440 0.739860
vt 0.165556 0.661468
vt 0.047792 0.610138
vt 0.093337 0.604897
s 1
usemtl Material.003
f 4/1/1 5/2/2 1/3/3
f 2/4/4 3/5/5 1/3/3
f 3/5/5 2/4/4 6/6/6
f 3/5/5 10/7/7 1/3/3
f 2/8/4 1/3/3 5/2/2
f 7/9/8 2/8/4 8/10/9
f 2/8/4 5/2/2 8/10/9
f 8/11/9 5/2/2 7/12/8
f 4/1/1 7/12/8 5/2/2
f 6/13/6 7/12/8 4/1/1
f 6/6/6 2/4/4 7/14/8
f 9/15/10 4/1/1 1/3/3
f 9/15/10 10/16/7 11/17/11
f 12/18/12 11/19/11 3/5/5
f 11/19/11 10/7/7 3/5/5
f 1/3/3 10/7/7 9/15/10
f 12/20/12 9/15/10 11/17/11
f 13/21/13 4/1/1 9/15/10
f 6/6/6 12/18/12 3/5/5
f 6/13/6 4/1/1 12/22/12
f 4/1/1 13/23/13 12/22/12
f 13/21/13 9/15/10 12/20/12
